SplineFontDB: 3.0
FontName: LindenHill-Italic
FullName: Linden Hill Italic
FamilyName: Linden Hill
Weight: Book
Copyright: Copyright (c) 2010 Barry Schwartz (chemoelectric@chemoelectric.org)\n
Version: 1.201
ItalicAngle: -4
UnderlinePosition: -405
UnderlineWidth: 200
Ascent: 3276
Descent: 820
sfntRevision: 0x00013374
LayerCount: 2
Layer: 0 1 "Back"  1
Layer: 1 1 "Fore"  0
XUID: [1021 288 713564382 16074350]
FSType: 0
OS2Version: 4
OS2_WeightWidthSlopeOnly: 0
OS2_UseTypoMetrics: 1
CreationTime: 1249677682
ModificationTime: 1314433157
PfmFamily: 17
TTFWeight: 400
TTFWidth: 5
LineGap: 0
VLineGap: 0
Panose: 2 0 5 3 0 0 0 0 0 0
OS2TypoAscent: 357
OS2TypoAOffset: 1
OS2TypoDescent: -1068
OS2TypoDOffset: 1
OS2TypoLinegap: 0
OS2WinAscent: 44
OS2WinAOffset: 1
OS2WinDescent: 0
OS2WinDOffset: 1
HheadAscent: 44
HheadAOffset: 1
HheadDescent: 0
HheadDOffset: 1
OS2SubXSize: 2662
OS2SubYSize: 2867
OS2SubXOff: 39
OS2SubYOff: 573
OS2SupXSize: 2662
OS2SupYSize: 2867
OS2SupXOff: -137
OS2SupYOff: 1966
OS2StrikeYSize: 204
OS2StrikeYPos: 1060
OS2Vendor: 'PfEd'
OS2CodePages: 00000093.00000000
OS2UnicodeRanges: 8000006f.00000042.00000000.00000000
Lookup: 3 0 0 "'aalt' Access All Alternates lookup 0"  {"'aalt' Access All Alternates lookup 0 subtable"  } ['aalt' ('DFLT' <'dflt' > ) ]
Lookup: 3 0 0 "'aalt' Access All Alternates in Latin lookup 1"  {"'aalt' Access All Alternates in Latin lookup 1 subtable"  } ['aalt' ('latn' <'AZE ' 'CAT ' 'CRT ' 'MOL ' 'ROM ' 'TRK ' 'dflt' > ) ]
Lookup: 1 0 0 "'locl' Localized Forms in Latin lookup 2"  {"'locl' Localized Forms in Latin lookup 2 subtable"  } ['locl' ('latn' <'CAT ' > ) ]
Lookup: 1 0 0 "'locl' Localized Forms in Latin lookup 3"  {"'locl' Localized Forms in Latin lookup 3 subtable"  } ['locl' ('latn' <'MOL ' 'ROM ' > ) ]
Lookup: 1 0 0 "'locl' Localized Forms in Latin lookup 4"  {"'locl' Localized Forms in Latin lookup 4 subtable"  } ['locl' ('latn' <'AZE ' 'CRT ' 'TRK ' > ) ]

StartChar: .notdef
Encoding: 65536 -1 0
Width: 2048
Flags: W
LayerCount: 2
Fore
SplineSet
213 0 m 1,0,-1
 213 2904 l 1,1,-1
 1835 2904 l 1,2,-1
 1835 0 l 1,3,-1
 213 0 l 1,0,-1
631 1135 m 0,4,5
 631 1053 631 1053 648.5 981.5 c 128,-1,6
 666 910 666 910 692.5 862 c 128,-1,7
 719 814 719 814 750.5 779.5 c 128,-1,8
 782 745 782 745 809.5 729 c 128,-1,9
 837 713 837 713 856 713 c 0,10,11
 877 713 877 713 891 726 c 128,-1,12
 905 739 905 739 905 758 c 128,-1,13
 905 777 905 777 892 794.5 c 128,-1,14
 879 812 879 812 864 829 c 128,-1,15
 849 846 849 846 836 893.5 c 128,-1,16
 823 941 823 941 823 1012 c 0,17,18
 823 1073 823 1073 861.5 1149 c 128,-1,19
 900 1225 900 1225 962 1299.5 c 128,-1,20
 1024 1374 1024 1374 1099 1452.5 c 128,-1,21
 1174 1531 1174 1531 1248.5 1607 c 128,-1,22
 1323 1683 1323 1683 1385 1752 c 128,-1,23
 1447 1821 1447 1821 1485.5 1886 c 128,-1,24
 1524 1951 1524 1951 1524 1999 c 0,25,26
 1524 2090 1524 2090 1494 2180 c 128,-1,27
 1464 2270 1464 2270 1415 2343 c 128,-1,28
 1366 2416 1366 2416 1304 2480 c 128,-1,29
 1242 2544 1242 2544 1177.5 2587 c 128,-1,30
 1113 2630 1113 2630 1052.5 2654.5 c 128,-1,31
 992 2679 992 2679 946 2679 c 0,32,33
 889 2679 889 2679 837 2651.5 c 128,-1,34
 785 2624 785 2624 753 2585 c 128,-1,35
 721 2546 721 2546 702.5 2509 c 128,-1,36
 684 2472 684 2472 684 2449 c 0,37,38
 684 2422 684 2422 694.5 2413 c 128,-1,39
 705 2404 705 2404 733 2404 c 0,40,41
 792 2404 792 2404 912 2422.5 c 128,-1,42
 1032 2441 1032 2441 1057 2441 c 0,43,44
 1148 2441 1148 2441 1213 2385 c 128,-1,45
 1278 2329 1278 2329 1278 2232 c 0,46,47
 1278 2155 1278 2155 1242.5 2071.5 c 128,-1,48
 1207 1988 1207 1988 1150 1912.5 c 128,-1,49
 1093 1837 1093 1837 1023.5 1758.5 c 128,-1,50
 954 1680 954 1680 885 1602.5 c 128,-1,51
 816 1525 816 1525 759 1449.5 c 128,-1,52
 702 1374 702 1374 666.5 1292 c 128,-1,53
 631 1210 631 1210 631 1135 c 0,4,5
692 311 m 0,54,55
 692 273 692 273 744 202 c 128,-1,56
 796 131 796 131 836 131 c 0,57,58
 885 131 885 131 946.5 200 c 128,-1,59
 1008 269 1008 269 1008 307 c 0,60,61
 1008 351 1008 351 955 419 c 128,-1,62
 902 487 902 487 856 487 c 0,63,64
 816 487 816 487 754 425 c 128,-1,65
 692 363 692 363 692 311 c 0,54,55
EndSplineSet
EndChar

StartChar: exclam
Encoding: 33 33 4
Width: 1167
GlyphClass: 2
Flags: W
LayerCount: 2
Fore
SplineSet
410 156 m 0,0,1
 410 211 410 211 478.5 279.5 c 128,-1,2
 547 348 547 348 590 348 c 0,3,4
 640 348 640 348 699 276.5 c 128,-1,5
 758 205 758 205 758 156 c 0,6,7
 758 115 758 115 687.5 39 c 128,-1,8
 617 -37 617 -37 565 -37 c 0,9,10
 522 -37 522 -37 466 39 c 128,-1,11
 410 115 410 115 410 156 c 0,0,1
553 766 m 0,12,13
 553 786 553 786 567.5 1077 c 128,-1,14
 582 1368 582 1368 596 1761 c 128,-1,15
 610 2154 610 2154 610 2421 c 0,16,17
 610 2478 610 2478 650 2506.5 c 128,-1,18
 690 2535 690 2535 799 2577 c 0,19,20
 820 2585 820 2585 831 2589 c 0,21,22
 871 2605 871 2605 893 2605 c 0,23,24
 930 2605 930 2605 930 2560 c 0,25,26
 930 2530 930 2530 923.5 2476 c 128,-1,27
 917 2422 917 2422 898.5 2295.5 c 128,-1,28
 880 2169 880 2169 856 2010 c 128,-1,29
 832 1851 832 1851 786.5 1538 c 128,-1,30
 741 1225 741 1225 692 872 c 0,31,32
 689 847 689 847 685 815 c 128,-1,33
 681 783 681 783 679 765 c 128,-1,34
 677 747 677 747 673.5 725.5 c 128,-1,35
 670 704 670 704 666 692.5 c 128,-1,36
 662 681 662 681 655 670.5 c 128,-1,37
 648 660 648 660 638 655.5 c 128,-1,38
 628 651 628 651 614 651 c 0,39,40
 553 651 553 651 553 766 c 0,12,13
EndSplineSet
Position2: "'cpsp' Capital Spacing in Latin lookup 0 subtable" dx=33 dy=0 dh=66 dv=0
EndChar

StartChar: numbersign
Encoding: 35 35 6
Width: 1748
GlyphClass: 2
Flags: W
LayerCount: 2
Fore
SplineSet
98 1053 m 1,0,-1
 98 1192 l 1,1,-1
 500 1192 l 1,2,-1
 586 1499 l 1,3,-1
 102 1499 l 1,4,-1
 102 1638 l 1,5,-1
 627 1638 l 1,6,-1
 950 2814 l 1,7,-1
 1118 2814 l 1,8,-1
 791 1638 l 1,9,-1
 1130 1638 l 1,10,-1
 1458 2814 l 1,11,-1
 1622 2814 l 1,12,-1
 1294 1638 l 1,13,-1
 1651 1638 l 1,14,-1
 1651 1499 l 1,15,-1
 1257 1499 l 1,16,-1
 1171 1192 l 1,17,-1
 1647 1192 l 1,18,-1
 1647 1053 l 1,19,-1
 1130 1053 l 1,20,-1
 778 -201 l 1,21,-1
 614 -201 l 1,22,-1
 967 1053 l 1,23,-1
 627 1053 l 1,24,-1
 283 -201 l 1,25,-1
 115 -201 l 1,26,-1
 463 1053 l 1,27,-1
 98 1053 l 1,0,-1
668 1192 m 1,28,-1
 1004 1192 l 1,29,-1
 1090 1499 l 1,30,-1
 754 1499 l 1,31,-1
 668 1192 l 1,28,-1
EndSplineSet
EndChar

StartChar: percent
Encoding: 37 37 8
Width: 3198
GlyphClass: 2
Flags: W
LayerCount: 2
Fore
SplineSet
180 -135 m 0,0,1
 180 -116 180 -116 217 -74 c 1,2,-1
 2679 2552 l 1,3,4
 2629 2527 2629 2527 2565 2502 c 128,-1,5
 2501 2477 2501 2477 2387 2442 c 128,-1,6
 2273 2407 2273 2407 2119 2385 c 128,-1,7
 1965 2363 1965 2363 1802 2363 c 0,8,9
 1720 2363 1720 2363 1507 2388 c 1,10,11
 1585 2264 1585 2264 1585 2089 c 0,12,13
 1585 1922 1585 1922 1512.5 1765.5 c 128,-1,14
 1440 1609 1440 1609 1323.5 1498 c 128,-1,15
 1207 1387 1207 1387 1054 1320 c 128,-1,16
 901 1253 901 1253 745 1253 c 0,17,18
 626 1253 626 1253 532.5 1292 c 128,-1,19
 439 1331 439 1331 382 1398 c 128,-1,20
 325 1465 325 1465 295.5 1550.5 c 128,-1,21
 266 1636 266 1636 266 1733 c 0,22,23
 266 1875 266 1875 322 2007.5 c 128,-1,24
 378 2140 378 2140 469.5 2239 c 128,-1,25
 561 2338 561 2338 674 2412.5 c 128,-1,26
 787 2487 787 2487 905.5 2525.5 c 128,-1,27
 1024 2564 1024 2564 1130 2564 c 0,28,29
 1188 2564 1188 2564 1246 2554 c 128,-1,30
 1304 2544 1304 2544 1353.5 2531.5 c 128,-1,31
 1403 2519 1403 2519 1518.5 2509 c 128,-1,32
 1634 2499 1634 2499 1794 2499 c 0,33,34
 2004 2499 2004 2499 2221.5 2535 c 128,-1,35
 2439 2571 2439 2571 2579 2613.5 c 128,-1,36
 2719 2656 2719 2656 2836 2692 c 128,-1,37
 2953 2728 2953 2728 2986 2728 c 128,-1,38
 3019 2728 3019 2728 3019 2707 c 0,39,40
 3019 2675 3019 2675 2945 2593 c 1,41,-1
 377 -164 l 1,42,-1
 250 -164 l 2,43,44
 215 -164 215 -164 197.5 -158 c 128,-1,45
 180 -152 180 -152 180 -135 c 0,0,1
442 1626 m 0,46,47
 442 1539 442 1539 494.5 1480 c 128,-1,48
 547 1421 547 1421 651 1421 c 0,49,50
 758 1421 758 1421 870 1477 c 128,-1,51
 982 1533 982 1533 1072.5 1622.5 c 128,-1,52
 1163 1712 1163 1712 1236 1817.5 c 128,-1,53
 1309 1923 1309 1923 1349 2030 c 128,-1,54
 1389 2137 1389 2137 1389 2220 c 0,55,56
 1389 2299 1389 2299 1332 2349.5 c 128,-1,57
 1275 2400 1275 2400 1188 2400 c 0,58,59
 1108 2400 1108 2400 1005.5 2348 c 128,-1,60
 903 2296 903 2296 806 2210.5 c 128,-1,61
 709 2125 709 2125 626 2025 c 128,-1,62
 543 1925 543 1925 492.5 1817.5 c 128,-1,63
 442 1710 442 1710 442 1626 c 0,46,47
1565 438 m 0,64,65
 1565 581 1565 581 1621 714 c 128,-1,66
 1677 847 1677 847 1768 946 c 128,-1,67
 1859 1045 1859 1045 1972.5 1119.5 c 128,-1,68
 2086 1194 2086 1194 2204.5 1232 c 128,-1,69
 2323 1270 2323 1270 2429 1270 c 0,70,71
 2525 1270 2525 1270 2606 1242 c 128,-1,72
 2687 1214 2687 1214 2750 1157.5 c 128,-1,73
 2813 1101 2813 1101 2848.5 1007 c 128,-1,74
 2884 913 2884 913 2884 791 c 0,75,76
 2884 624 2884 624 2812.5 467.5 c 128,-1,77
 2741 311 2741 311 2624.5 200 c 128,-1,78
 2508 89 2508 89 2356 22 c 128,-1,79
 2204 -45 2204 -45 2048 -45 c 0,80,81
 1929 -45 1929 -45 1835 -5.5 c 128,-1,82
 1741 34 1741 34 1683 101.5 c 128,-1,83
 1625 169 1625 169 1595 255 c 128,-1,84
 1565 341 1565 341 1565 438 c 0,64,65
1741 332 m 0,85,86
 1741 245 1741 245 1795.5 184 c 128,-1,87
 1850 123 1850 123 1954 123 c 0,88,89
 2061 123 2061 123 2173 179.5 c 128,-1,90
 2285 236 2285 236 2375.5 326 c 128,-1,91
 2466 416 2466 416 2538.5 522.5 c 128,-1,92
 2611 629 2611 629 2651 736 c 128,-1,93
 2691 843 2691 843 2691 926 c 0,94,95
 2691 1005 2691 1005 2632 1055.5 c 128,-1,96
 2573 1106 2573 1106 2486 1106 c 0,97,98
 2419 1106 2419 1106 2335.5 1068.5 c 128,-1,99
 2252 1031 2252 1031 2170.5 970 c 128,-1,100
 2089 909 2089 909 2010.5 828 c 128,-1,101
 1932 747 1932 747 1873 662.5 c 128,-1,102
 1814 578 1814 578 1777.5 490.5 c 128,-1,103
 1741 403 1741 403 1741 332 c 0,85,86
EndSplineSet
EndChar

StartChar: ampersand
Encoding: 38 38 9
Width: 3534
GlyphClass: 2
Flags: W
LayerCount: 2
Fore
SplineSet
184 799 m 0,0,1
 184 921 184 921 211 1029 c 128,-1,2
 238 1137 238 1137 283.5 1217.5 c 128,-1,3
 329 1298 329 1298 388 1367 c 128,-1,4
 447 1436 447 1436 512.5 1483.5 c 128,-1,5
 578 1531 578 1531 643 1569 c 128,-1,6
 708 1607 708 1607 767 1629.5 c 128,-1,7
 826 1652 826 1652 871.5 1666.5 c 128,-1,8
 917 1681 917 1681 944 1686 c 2,9,-1
 971 1692 l 1,10,11
 964 1694 964 1694 952.5 1699 c 128,-1,12
 941 1704 941 1704 908 1722.5 c 128,-1,13
 875 1741 875 1741 844.5 1763 c 128,-1,14
 814 1785 814 1785 777.5 1821.5 c 128,-1,15
 741 1858 741 1858 714 1899 c 128,-1,16
 687 1940 687 1940 669 1997.5 c 128,-1,17
 651 2055 651 2055 651 2118 c 0,18,19
 651 2212 651 2212 686.5 2307 c 128,-1,20
 722 2402 722 2402 799 2491.5 c 128,-1,21
 876 2581 876 2581 984 2650 c 128,-1,22
 1092 2719 1092 2719 1248.5 2760.5 c 128,-1,23
 1405 2802 1405 2802 1589 2802 c 0,24,25
 1727 2802 1727 2802 1848.5 2773.5 c 128,-1,26
 1970 2745 1970 2745 2065.5 2689.5 c 128,-1,27
 2161 2634 2161 2634 2217 2543.5 c 128,-1,28
 2273 2453 2273 2453 2273 2339 c 0,29,30
 2273 2270 2273 2270 2253 2212 c 128,-1,31
 2233 2154 2233 2154 2198.5 2113.5 c 128,-1,32
 2164 2073 2164 2073 2118 2045 c 128,-1,33
 2072 2017 2072 2017 2021.5 2004 c 128,-1,34
 1971 1991 1971 1991 1917 1991 c 0,35,36
 1824 1991 1824 1991 1737.5 2034 c 128,-1,37
 1651 2077 1651 2077 1651 2138 c 0,38,39
 1651 2168 1651 2168 1674 2175.5 c 128,-1,40
 1697 2183 1697 2183 1716 2163 c 0,41,42
 1757 2122 1757 2122 1819 2122 c 0,43,44
 1903 2122 1903 2122 1957 2188.5 c 128,-1,45
 2011 2255 2011 2255 2011 2347 c 0,46,47
 2011 2407 2011 2407 1985 2463 c 128,-1,48
 1959 2519 1959 2519 1907 2567.5 c 128,-1,49
 1855 2616 1855 2616 1763 2645.5 c 128,-1,50
 1671 2675 1671 2675 1552 2675 c 0,51,52
 1450 2675 1450 2675 1359 2640.5 c 128,-1,53
 1268 2606 1268 2606 1204.5 2551 c 128,-1,54
 1141 2496 1141 2496 1094.5 2427.5 c 128,-1,55
 1048 2359 1048 2359 1026 2290 c 128,-1,56
 1004 2221 1004 2221 1004 2159 c 0,57,58
 1004 2045 1004 2045 1036.5 1960.5 c 128,-1,59
 1069 1876 1069 1876 1125.5 1828.5 c 128,-1,60
 1182 1781 1182 1781 1248.5 1758 c 128,-1,61
 1315 1735 1315 1735 1393 1733 c 1,62,63
 1536 1733 1536 1733 1536 1683 c 0,64,65
 1536 1666 1536 1666 1530 1654.5 c 128,-1,66
 1524 1643 1524 1643 1516 1636.5 c 128,-1,67
 1508 1630 1508 1630 1490.5 1626 c 128,-1,68
 1473 1622 1473 1622 1458.5 1620.5 c 128,-1,69
 1444 1619 1444 1619 1417 1618 c 0,70,71
 1235 1611 1235 1611 1086 1554 c 128,-1,72
 937 1497 937 1497 843.5 1414 c 128,-1,73
 750 1331 750 1331 686 1225.5 c 128,-1,74
 622 1120 622 1120 595.5 1020.5 c 128,-1,75
 569 921 569 921 569 827 c 0,76,77
 569 773 569 773 577.5 720.5 c 128,-1,78
 586 668 586 668 605.5 608.5 c 128,-1,79
 625 549 625 549 660.5 495.5 c 128,-1,80
 696 442 696 442 744.5 390.5 c 128,-1,81
 793 339 793 339 865.5 297 c 128,-1,82
 938 255 938 255 1027 223 c 128,-1,83
 1116 191 1116 191 1235.5 173.5 c 128,-1,84
 1355 156 1355 156 1495 156 c 0,85,86
 1673 156 1673 156 1822 188.5 c 128,-1,87
 1971 221 1971 221 2079 276.5 c 128,-1,88
 2187 332 2187 332 2271.5 412 c 128,-1,89
 2356 492 2356 492 2409.5 581.5 c 128,-1,90
 2463 671 2463 671 2497.5 777 c 128,-1,91
 2532 883 2532 883 2546 984.5 c 128,-1,92
 2560 1086 2560 1086 2560 1196 c 0,93,94
 2560 1252 2560 1252 2546.5 1274.5 c 128,-1,95
 2533 1297 2533 1297 2494 1303 c 0,96,97
 2369 1323 2369 1323 2228 1323 c 0,98,99
 2162 1323 2162 1323 2077 1311 c 1,100,101
 1975 1299 1975 1299 1895 1213 c 128,-1,102
 1815 1127 1815 1127 1815 1036 c 0,103,104
 1815 964 1815 964 1857.5 912 c 128,-1,105
 1900 860 1900 860 1966 860 c 0,106,107
 2000 860 2000 860 2035.5 872.5 c 128,-1,108
 2071 885 2071 885 2073 885 c 0,109,110
 2086 888 2086 888 2095.5 879 c 128,-1,111
 2105 870 2105 870 2105 852 c 0,112,113
 2105 821 2105 821 2054.5 795.5 c 128,-1,114
 2004 770 2004 770 1962 770 c 0,115,116
 1815 770 1815 770 1733 866 c 128,-1,117
 1651 962 1651 962 1651 1102 c 0,118,119
 1651 1197 1651 1197 1688 1287 c 128,-1,120
 1725 1377 1725 1377 1792 1449.5 c 128,-1,121
 1859 1522 1859 1522 1964 1566 c 128,-1,122
 2069 1610 2069 1610 2195 1610 c 0,123,124
 2299 1610 2299 1610 2523.5 1593.5 c 128,-1,125
 2748 1577 2748 1577 2916 1577 c 0,126,127
 3088 1577 3088 1577 3205 1668.5 c 128,-1,128
 3322 1760 3322 1760 3322 1888 c 0,129,130
 3322 1962 3322 1962 3289.5 1997 c 128,-1,131
 3257 2032 3257 2032 3207 2032 c 0,132,133
 3198 2032 3198 2032 3173 2027.5 c 128,-1,134
 3148 2023 3148 2023 3142 2023 c 0,135,136
 3097 2023 3097 2023 3097 2064 c 0,137,138
 3097 2103 3097 2103 3141.5 2120.5 c 128,-1,139
 3186 2138 3186 2138 3248 2138 c 0,140,141
 3358 2138 3358 2138 3415.5 2067 c 128,-1,142
 3473 1996 3473 1996 3473 1819 c 0,143,144
 3473 1740 3473 1740 3459.5 1661 c 128,-1,145
 3446 1582 3446 1582 3424 1532 c 0,146,147
 3370 1409 3370 1409 3236 1341.5 c 128,-1,148
 3102 1274 3102 1274 2892 1274 c 2,149,-1
 2863 1274 l 2,150,151
 2844 1274 2844 1274 2831.5 1270.5 c 128,-1,152
 2819 1267 2819 1267 2804 1255 c 128,-1,153
 2789 1243 2789 1243 2779 1215 c 128,-1,154
 2769 1187 2769 1187 2765 1143 c 1,155,156
 2692 543 2692 543 2340.5 241 c 128,-1,157
 1989 -61 1989 -61 1397 -61 c 0,158,159
 1128 -61 1128 -61 920.5 -20.5 c 128,-1,160
 713 20 713 20 575 92.5 c 128,-1,161
 437 165 437 165 348.5 273.5 c 128,-1,162
 260 382 260 382 222 510.5 c 128,-1,163
 184 639 184 639 184 799 c 0,0,1
EndSplineSet
Position2: "'cpsp' Capital Spacing in Latin lookup 0 subtable" dx=33 dy=0 dh=66 dv=0
EndChar

StartChar: parenleft
Encoding: 40 40 11
Width: 1282
GlyphClass: 2
Flags: W
LayerCount: 2
Fore
SplineSet
184 938 m 0,0,1
 184 1205 184 1205 237.5 1452.5 c 128,-1,2
 291 1700 291 1700 376 1882 c 128,-1,3
 461 2064 461 2064 564.5 2222.5 c 128,-1,4
 668 2381 668 2381 771 2486 c 128,-1,5
 874 2591 874 2591 959 2666.5 c 128,-1,6
 1044 2742 1044 2742 1098 2776 c 2,7,-1
 1151 2810 l 1,8,-1
 1217 2732 l 1,9,10
 1201 2720 1201 2720 1174 2696 c 128,-1,11
 1147 2672 1147 2672 1068 2587.5 c 128,-1,12
 989 2503 989 2503 917.5 2406.5 c 128,-1,13
 846 2310 846 2310 758.5 2152.5 c 128,-1,14
 671 1995 671 1995 608 1826 c 128,-1,15
 545 1657 545 1657 502 1426.5 c 128,-1,16
 459 1196 459 1196 459 954 c 0,17,18
 459 703 459 703 498.5 469.5 c 128,-1,19
 538 236 538 236 601.5 64 c 128,-1,20
 665 -108 665 -108 741 -258.5 c 128,-1,21
 817 -409 817 -409 893.5 -509 c 128,-1,22
 970 -609 970 -609 1033.5 -681.5 c 128,-1,23
 1097 -754 1097 -754 1136 -786 c 2,24,-1
 1176 -819 l 1,25,-1
 1102 -905 l 1,26,27
 1090 -896 1090 -896 1069.5 -878.5 c 128,-1,28
 1049 -861 1049 -861 986.5 -801.5 c 128,-1,29
 924 -742 924 -742 863.5 -676.5 c 128,-1,30
 803 -611 803 -611 720 -506 c 128,-1,31
 637 -401 637 -401 566 -292 c 128,-1,32
 495 -183 495 -183 422.5 -38.5 c 128,-1,33
 350 106 350 106 299 253 c 128,-1,34
 248 400 248 400 216 579 c 128,-1,35
 184 758 184 758 184 938 c 0,0,1
EndSplineSet
EndChar

StartChar: parenright
Encoding: 41 41 12
Width: 1282
GlyphClass: 2
Flags: W
LayerCount: 2
Fore
SplineSet
70 2732 m 1,0,-1
 135 2810 l 1,1,2
 147 2803 147 2803 168.5 2789 c 128,-1,3
 190 2775 190 2775 256 2724.5 c 128,-1,4
 322 2674 322 2674 386 2615.5 c 128,-1,5
 450 2557 450 2557 537.5 2460 c 128,-1,6
 625 2363 625 2363 699.5 2257 c 128,-1,7
 774 2151 774 2151 850.5 2004.5 c 128,-1,8
 927 1858 927 1858 980.5 1701.5 c 128,-1,9
 1034 1545 1034 1545 1068 1346.5 c 128,-1,10
 1102 1148 1102 1148 1102 938 c 0,11,12
 1102 709 1102 709 1051.5 483.5 c 128,-1,13
 1001 258 1001 258 920 81 c 128,-1,14
 839 -96 839 -96 741 -257.5 c 128,-1,15
 643 -419 643 -419 545 -534 c 128,-1,16
 447 -649 447 -649 366 -735 c 128,-1,17
 285 -821 285 -821 234 -863 c 2,18,-1
 184 -905 l 1,19,-1
 115 -819 l 1,20,21
 124 -812 124 -812 140 -798.5 c 128,-1,22
 156 -785 156 -785 204.5 -736.5 c 128,-1,23
 253 -688 253 -688 300 -632.5 c 128,-1,24
 347 -577 347 -577 411.5 -484.5 c 128,-1,25
 476 -392 476 -392 531 -291.5 c 128,-1,26
 586 -191 586 -191 642 -52 c 128,-1,27
 698 87 698 87 737.5 234.5 c 128,-1,28
 777 382 777 382 802 569.5 c 128,-1,29
 827 757 827 757 827 954 c 0,30,31
 827 1145 827 1145 801 1327.5 c 128,-1,32
 775 1510 775 1510 731.5 1658 c 128,-1,33
 688 1806 688 1806 631 1942.5 c 128,-1,34
 574 2079 574 2079 511.5 2184.5 c 128,-1,35
 449 2290 449 2290 386 2381 c 128,-1,36
 323 2472 323 2472 266 2535.5 c 128,-1,37
 209 2599 209 2599 165.5 2644 c 128,-1,38
 122 2689 122 2689 96 2710 c 2,39,-1
 70 2732 l 1,0,-1
EndSplineSet
EndChar

StartChar: asterisk
Encoding: 42 42 13
Width: 1863
GlyphClass: 2
Flags: W
LayerCount: 2
Fore
SplineSet
180 1520 m 0,0,1
 180 1580 180 1580 244 1629.5 c 128,-1,2
 308 1679 308 1679 398.5 1709.5 c 128,-1,3
 489 1740 489 1740 580 1763.5 c 128,-1,4
 671 1787 671 1787 735 1807.5 c 128,-1,5
 799 1828 799 1828 799 1847 c 0,6,7
 799 1875 799 1875 735.5 1894.5 c 128,-1,8
 672 1914 672 1914 582 1930 c 128,-1,9
 492 1946 492 1946 401.5 1970 c 128,-1,10
 311 1994 311 1994 247.5 2045 c 128,-1,11
 184 2096 184 2096 184 2171 c 0,12,13
 184 2215 184 2215 204 2249.5 c 128,-1,14
 224 2284 224 2284 252.5 2301 c 128,-1,15
 281 2318 281 2318 305 2326.5 c 128,-1,16
 329 2335 329 2335 344 2335 c 0,17,18
 391 2335 391 2335 473 2278.5 c 128,-1,19
 555 2222 555 2222 627.5 2154.5 c 128,-1,20
 700 2087 700 2087 770.5 2030.5 c 128,-1,21
 841 1974 841 1974 868 1974 c 0,22,23
 885 1974 885 1974 885 2011 c 0,24,25
 885 2069 885 2069 821.5 2270 c 128,-1,26
 758 2471 758 2471 758 2499 c 0,27,28
 758 2590 758 2590 812 2644.5 c 128,-1,29
 866 2699 866 2699 938 2699 c 0,30,31
 971 2699 971 2699 1001 2688 c 128,-1,32
 1031 2677 1031 2677 1058.5 2653 c 128,-1,33
 1086 2629 1086 2629 1102 2583 c 128,-1,34
 1118 2537 1118 2537 1118 2474 c 0,35,36
 1118 2429 1118 2429 1058.5 2230.5 c 128,-1,37
 999 2032 999 2032 999 1987 c 0,38,39
 999 1958 999 1958 1020 1958 c 0,40,41
 1043 1958 1043 1958 1088 1995 c 128,-1,42
 1133 2032 1133 2032 1186 2085 c 128,-1,43
 1239 2138 1239 2138 1296 2191 c 128,-1,44
 1353 2244 1353 2244 1414.5 2281 c 128,-1,45
 1476 2318 1476 2318 1524 2318 c 0,46,47
 1594 2318 1594 2318 1638.5 2280.5 c 128,-1,48
 1683 2243 1683 2243 1683 2187 c 0,49,50
 1683 2129 1683 2129 1649.5 2083.5 c 128,-1,51
 1616 2038 1616 2038 1562 2010 c 128,-1,52
 1508 1982 1508 1982 1443 1960.5 c 128,-1,53
 1378 1939 1378 1939 1313 1925.5 c 128,-1,54
 1248 1912 1248 1912 1194 1901 c 128,-1,55
 1140 1890 1140 1890 1106.5 1876.5 c 128,-1,56
 1073 1863 1073 1863 1073 1847 c 0,57,58
 1073 1826 1073 1826 1115.5 1807 c 128,-1,59
 1158 1788 1158 1788 1222 1773.5 c 128,-1,60
 1286 1759 1286 1759 1360 1736 c 128,-1,61
 1434 1713 1434 1713 1498 1686 c 128,-1,62
 1562 1659 1562 1659 1604.5 1611.5 c 128,-1,63
 1647 1564 1647 1564 1647 1503 c 128,-1,64
 1647 1442 1647 1442 1613 1399 c 128,-1,65
 1579 1356 1579 1356 1516 1356 c 0,66,67
 1465 1356 1465 1356 1398 1394.5 c 128,-1,68
 1331 1433 1331 1433 1270.5 1487.5 c 128,-1,69
 1210 1542 1210 1542 1155 1597 c 128,-1,70
 1100 1652 1100 1652 1059 1690.5 c 128,-1,71
 1018 1729 1018 1729 1004 1729 c 0,72,73
 1001 1729 1001 1729 997 1726.5 c 128,-1,74
 993 1724 993 1724 988 1713 c 128,-1,75
 983 1702 983 1702 983 1683 c 0,76,77
 983 1629 983 1629 1038.5 1449 c 128,-1,78
 1094 1269 1094 1269 1094 1221 c 0,79,80
 1094 1147 1094 1147 1043.5 1098 c 128,-1,81
 993 1049 993 1049 926 1049 c 0,82,83
 860 1049 860 1049 805 1097 c 128,-1,84
 750 1145 750 1145 750 1208 c 0,85,86
 750 1258 750 1258 809 1473 c 128,-1,87
 868 1688 868 1688 868 1720 c 0,88,89
 868 1737 868 1737 860 1737 c 0,90,91
 845 1737 845 1737 802 1699 c 128,-1,92
 759 1661 759 1661 701.5 1606.5 c 128,-1,93
 644 1552 644 1552 581 1498 c 128,-1,94
 518 1444 518 1444 449 1406 c 128,-1,95
 380 1368 380 1368 328 1368 c 0,96,97
 259 1368 259 1368 219.5 1418 c 128,-1,98
 180 1468 180 1468 180 1520 c 0,0,1
EndSplineSet
EndChar

StartChar: plus
Encoding: 43 43 14
Width: 3125
GlyphClass: 2
Flags: W
LayerCount: 2
Fore
SplineSet
328 844 m 1,0,-1
 328 1081 l 1,1,2
 781 1081 781 1081 1064.5 1077 c 128,-1,3
 1348 1073 1348 1073 1405 1069 c 2,4,-1
 1462 1065 l 1,5,6
 1442 1121 1442 1121 1442 2200 c 1,7,-1
 1683 2200 l 1,8,9
 1683 1161 1683 1161 1663 1065 c 1,10,11
 1788 1081 1788 1081 2798 1081 c 1,12,-1
 2798 844 l 1,13,14
 2348 844 2348 844 2064.5 848 c 128,-1,15
 1781 852 1781 852 1722 856 c 2,16,-1
 1663 860 l 1,17,18
 1683 736 1683 736 1683 -274 c 1,19,-1
 1442 -274 l 1,20,21
 1442 176 1442 176 1447 459.5 c 128,-1,22
 1452 743 1452 743 1457 802 c 2,23,-1
 1462 860 l 1,24,25
 1346 844 1346 844 328 844 c 1,0,-1
EndSplineSet
EndChar

StartChar: comma
Encoding: 44 44 15
Width: 917
GlyphClass: 2
Flags: W
LayerCount: 2
Fore
SplineSet
143 -541 m 0,0,1
 143 -523 143 -523 164.5 -504 c 128,-1,2
 186 -485 186 -485 217.5 -467 c 128,-1,3
 249 -449 249 -449 286.5 -419 c 128,-1,4
 324 -389 324 -389 355.5 -353.5 c 128,-1,5
 387 -318 387 -318 408.5 -259.5 c 128,-1,6
 430 -201 430 -201 430 -131 c 0,7,8
 430 -85 430 -85 417 -49 c 128,-1,9
 404 -13 404 -13 384.5 6.5 c 128,-1,10
 365 26 365 26 342 42 c 128,-1,11
 319 58 319 58 299.5 68 c 128,-1,12
 280 78 280 78 267 92 c 128,-1,13
 254 106 254 106 254 123 c 0,14,15
 254 153 254 153 294.5 200.5 c 128,-1,16
 335 248 335 248 380 281.5 c 128,-1,17
 425 315 425 315 442 315 c 0,18,19
 451 315 451 315 471 310.5 c 128,-1,20
 491 306 491 306 528 286.5 c 128,-1,21
 565 267 565 267 595 235.5 c 128,-1,22
 625 204 625 204 648.5 140 c 128,-1,23
 672 76 672 76 672 -8 c 0,24,25
 672 -131 672 -131 617 -265 c 128,-1,26
 562 -399 562 -399 487 -471 c 0,27,28
 417 -538 417 -538 332.5 -568 c 128,-1,29
 248 -598 248 -598 197 -598 c 0,30,31
 143 -598 143 -598 143 -541 c 0,0,1
EndSplineSet
EndChar

StartChar: hyphen
Encoding: 45 45 16
Width: 1290
GlyphClass: 2
Flags: W
LayerCount: 2
Fore
SplineSet
139 987 m 1,0,-1
 139 1233 l 1,1,-1
 1151 1532 l 1,2,-1
 1151 1282 l 1,3,-1
 139 987 l 1,0,-1
EndSplineSet
EndChar

StartChar: period
Encoding: 46 46 17
Width: 917
GlyphClass: 2
Flags: W
LayerCount: 2
Fore
SplineSet
254 168 m 0,0,1
 254 211 254 211 334 281.5 c 128,-1,2
 414 352 414 352 451 352 c 0,3,4
 507 352 507 352 575 271 c 128,-1,5
 643 190 643 190 643 147 c 0,6,7
 643 97 643 97 564.5 28 c 128,-1,8
 486 -41 486 -41 438 -41 c 0,9,10
 399 -41 399 -41 326.5 37 c 128,-1,11
 254 115 254 115 254 168 c 0,0,1
EndSplineSet
EndChar

StartChar: slash
Encoding: 47 47 18
Width: 1810
GlyphClass: 2
Flags: W
LayerCount: 2
Fore
SplineSet
70 -946 m 1,0,-1
 1466 2892 l 1,1,-1
 1659 2892 l 1,2,-1
 262 -946 l 1,3,-1
 70 -946 l 1,0,-1
EndSplineSet
Substitution2: "'numr' Numerators in Latin lookup 5 subtable" fraction
AlternateSubs2: "'aalt' Access All Alternates in Latin lookup 1 subtable" fraction
AlternateSubs2: "'aalt' Access All Alternates lookup 0 subtable" fraction
EndChar

StartChar: colon
Encoding: 58 58 29
Width: 1044
GlyphClass: 2
Flags: W
LayerCount: 2
Fore
SplineSet
307 156 m 0,0,1
 307 211 307 211 375.5 279.5 c 128,-1,2
 444 348 444 348 487 348 c 0,3,4
 537 348 537 348 596 276.5 c 128,-1,5
 655 205 655 205 655 156 c 0,6,7
 655 115 655 115 585 39 c 128,-1,8
 515 -37 515 -37 463 -37 c 0,9,10
 420 -37 420 -37 363.5 39 c 128,-1,11
 307 115 307 115 307 156 c 0,0,1
418 1430 m 0,12,13
 418 1485 418 1485 486.5 1553.5 c 128,-1,14
 555 1622 555 1622 598 1622 c 0,15,16
 648 1622 648 1622 705 1550.5 c 128,-1,17
 762 1479 762 1479 762 1430 c 0,18,19
 762 1389 762 1389 693.5 1313 c 128,-1,20
 625 1237 625 1237 573 1237 c 0,21,22
 530 1237 530 1237 474 1313 c 128,-1,23
 418 1389 418 1389 418 1430 c 0,12,13
EndSplineSet
EndChar

StartChar: semicolon
Encoding: 59 59 30
Width: 1044
GlyphClass: 2
Flags: W
LayerCount: 2
Fore
SplineSet
180 -565 m 0,0,1
 180 -548 180 -548 205.5 -517.5 c 128,-1,2
 231 -487 231 -487 267 -447.5 c 128,-1,3
 303 -408 303 -408 339 -360.5 c 128,-1,4
 375 -313 375 -313 400.5 -247 c 128,-1,5
 426 -181 426 -181 426 -111 c 0,6,7
 426 -62 426 -62 408 -30.5 c 128,-1,8
 390 1 390 1 364 15.5 c 128,-1,9
 338 30 338 30 312 40.5 c 128,-1,10
 286 51 286 51 268 67.5 c 128,-1,11
 250 84 250 84 250 111 c 0,12,13
 250 157 250 157 275 203.5 c 128,-1,14
 300 250 300 250 334.5 281.5 c 128,-1,15
 369 313 369 313 403.5 332.5 c 128,-1,16
 438 352 438 352 459 352 c 0,17,18
 523 352 523 352 562.5 267.5 c 128,-1,19
 602 183 602 183 602 53 c 0,20,21
 602 -50 602 -50 574.5 -155.5 c 128,-1,22
 547 -261 547 -261 504.5 -344 c 128,-1,23
 462 -427 462 -427 413.5 -493 c 128,-1,24
 365 -559 365 -559 320.5 -595 c 128,-1,25
 276 -631 276 -631 246 -631 c 0,26,27
 220 -631 220 -631 204 -618 c 128,-1,28
 188 -605 188 -605 184 -591.5 c 128,-1,29
 180 -578 180 -578 180 -565 c 0,0,1
418 1430 m 0,30,31
 418 1485 418 1485 486.5 1553.5 c 128,-1,32
 555 1622 555 1622 598 1622 c 0,33,34
 648 1622 648 1622 705 1550.5 c 128,-1,35
 762 1479 762 1479 762 1430 c 0,36,37
 762 1389 762 1389 693.5 1313 c 128,-1,38
 625 1237 625 1237 573 1237 c 0,39,40
 530 1237 530 1237 474 1313 c 128,-1,41
 418 1389 418 1389 418 1430 c 0,30,31
EndSplineSet
EndChar

StartChar: less
Encoding: 60 60 31
Width: 3117
GlyphClass: 2
Flags: W
LayerCount: 2
Fore
SplineSet
242 954 m 1,0,-1
 242 1044 l 1,1,-1
 2875 2306 l 1,2,-1
 2875 2032 l 1,3,-1
 668 999 l 1,4,-1
 2875 -33 l 1,5,-1
 2875 -307 l 1,6,-1
 242 954 l 1,0,-1
EndSplineSet
EndChar

StartChar: equal
Encoding: 61 61 32
Width: 3211
GlyphClass: 2
Flags: W
LayerCount: 2
Fore
SplineSet
369 500 m 1,0,-1
 369 741 l 1,1,-1
 2843 741 l 1,2,-1
 2843 500 l 1,3,-1
 369 500 l 1,0,-1
369 1184 m 1,4,-1
 369 1425 l 1,5,-1
 2843 1425 l 1,6,-1
 2843 1184 l 1,7,-1
 369 1184 l 1,4,-1
EndSplineSet
EndChar

StartChar: greater
Encoding: 62 62 33
Width: 3117
GlyphClass: 2
Flags: W
LayerCount: 2
Fore
SplineSet
242 -33 m 1,0,-1
 2449 999 l 1,1,-1
 242 2032 l 1,2,-1
 242 2306 l 1,3,-1
 2875 1044 l 1,4,-1
 2875 954 l 1,5,-1
 242 -307 l 1,6,-1
 242 -33 l 1,0,-1
EndSplineSet
EndChar

StartChar: question
Encoding: 63 63 34
Width: 1490
GlyphClass: 2
Flags: W
LayerCount: 2
Fore
SplineSet
422 1053 m 0,0,1
 422 1135 422 1135 461 1224.5 c 128,-1,2
 500 1314 500 1314 562.5 1395.5 c 128,-1,3
 625 1477 625 1477 700.5 1561.5 c 128,-1,4
 776 1646 776 1646 851.5 1730.5 c 128,-1,5
 927 1815 927 1815 989.5 1897.5 c 128,-1,6
 1052 1980 1052 1980 1091 2070.5 c 128,-1,7
 1130 2161 1130 2161 1130 2245 c 0,8,9
 1130 2350 1130 2350 1057 2412 c 128,-1,10
 984 2474 984 2474 885 2474 c 0,11,12
 858 2474 858 2474 729.5 2453.5 c 128,-1,13
 601 2433 601 2433 537 2433 c 0,14,15
 508 2433 508 2433 495.5 2444 c 128,-1,16
 483 2455 483 2455 483 2482 c 128,-1,17
 483 2509 483 2509 503 2549.5 c 128,-1,18
 523 2590 523 2590 558 2631.5 c 128,-1,19
 593 2673 593 2673 650 2702.5 c 128,-1,20
 707 2732 707 2732 770 2732 c 0,21,22
 820 2732 820 2732 886 2705 c 128,-1,23
 952 2678 952 2678 1021 2631 c 128,-1,24
 1090 2584 1090 2584 1157 2514.5 c 128,-1,25
 1224 2445 1224 2445 1276.5 2365.5 c 128,-1,26
 1329 2286 1329 2286 1361 2188 c 128,-1,27
 1393 2090 1393 2090 1393 1991 c 0,28,29
 1393 1938 1393 1938 1351 1867.5 c 128,-1,30
 1309 1797 1309 1797 1242.5 1722 c 128,-1,31
 1176 1647 1176 1647 1095 1564.5 c 128,-1,32
 1014 1482 1014 1482 933 1396 c 128,-1,33
 852 1310 852 1310 785.5 1227.5 c 128,-1,34
 719 1145 719 1145 677 1059 c 128,-1,35
 635 973 635 973 635 901 c 0,36,37
 635 845 635 845 649 797.5 c 128,-1,38
 663 750 663 750 680 725.5 c 128,-1,39
 697 701 697 701 711 678 c 128,-1,40
 725 655 725 655 725 643 c 0,41,42
 725 622 725 622 710 610 c 128,-1,43
 695 598 695 598 672 598 c 0,44,45
 651 598 651 598 620.5 615 c 128,-1,46
 590 632 590 632 555.5 669.5 c 128,-1,47
 521 707 521 707 491 758 c 128,-1,48
 461 809 461 809 441.5 887 c 128,-1,49
 422 965 422 965 422 1053 c 0,0,1
492 156 m 0,50,51
 492 211 492 211 560.5 279.5 c 128,-1,52
 629 348 629 348 672 348 c 0,53,54
 722 348 722 348 779 276.5 c 128,-1,55
 836 205 836 205 836 156 c 0,56,57
 836 115 836 115 767.5 39 c 128,-1,58
 699 -37 699 -37 647 -37 c 0,59,60
 604 -37 604 -37 548 39 c 128,-1,61
 492 115 492 115 492 156 c 0,50,51
EndSplineSet
Position2: "'cpsp' Capital Spacing in Latin lookup 0 subtable" dx=33 dy=0 dh=66 dv=0
EndChar

StartChar: at
Encoding: 64 64 35
Width: 3317
GlyphClass: 2
Flags: W
LayerCount: 2
Fore
SplineSet
225 729 m 0,0,1
 225 877 225 877 259 1028.5 c 128,-1,2
 293 1180 293 1180 361 1325 c 128,-1,3
 429 1470 429 1470 525 1601.5 c 128,-1,4
 621 1733 621 1733 750 1843.5 c 128,-1,5
 879 1954 879 1954 1029.5 2035.5 c 128,-1,6
 1180 2117 1180 2117 1363.5 2162.5 c 128,-1,7
 1547 2208 1547 2208 1745 2208 c 0,8,9
 1950 2208 1950 2208 2123 2173 c 128,-1,10
 2296 2138 2296 2138 2420 2078.5 c 128,-1,11
 2544 2019 2544 2019 2641 1936 c 128,-1,12
 2738 1853 2738 1853 2799 1762 c 128,-1,13
 2860 1671 2860 1671 2899.5 1566 c 128,-1,14
 2939 1461 2939 1461 2954.5 1365.5 c 128,-1,15
 2970 1270 2970 1270 2970 1171 c 0,16,17
 2970 994 2970 994 2929.5 829.5 c 128,-1,18
 2889 665 2889 665 2817.5 533 c 128,-1,19
 2746 401 2746 401 2648 291.5 c 128,-1,20
 2550 182 2550 182 2436 108.5 c 128,-1,21
 2322 35 2322 35 2195.5 -5 c 128,-1,22
 2069 -45 2069 -45 1942 -45 c 0,23,24
 1926 -45 1926 -45 1906.5 -39 c 128,-1,25
 1887 -33 1887 -33 1862 -13 c 128,-1,26
 1837 7 1837 7 1817 37.5 c 128,-1,27
 1797 68 1797 68 1783 123.5 c 128,-1,28
 1769 179 1769 179 1769 250 c 0,29,30
 1769 337 1769 337 1790 610 c 1,31,32
 1656 353 1656 353 1516 180 c 1,33,34
 1443 92 1443 92 1337.5 23.5 c 128,-1,35
 1232 -45 1232 -45 1180 -45 c 0,36,37
 1153 -45 1153 -45 1127.5 -35 c 128,-1,38
 1102 -25 1102 -25 1074 5.5 c 128,-1,39
 1046 36 1046 36 1026 84 c 128,-1,40
 1006 132 1006 132 992.5 215 c 128,-1,41
 979 298 979 298 979 406 c 0,42,43
 979 537 979 537 992.5 635 c 128,-1,44
 1006 733 1006 733 1042 828.5 c 128,-1,45
 1078 924 1078 924 1119 999.5 c 128,-1,46
 1160 1075 1160 1075 1237 1200 c 0,47,48
 1264 1243 1264 1243 1323.5 1314 c 128,-1,49
 1383 1385 1383 1385 1455 1458.5 c 128,-1,50
 1527 1532 1527 1532 1602.5 1585 c 128,-1,51
 1678 1638 1678 1638 1724 1638 c 0,52,53
 1765 1638 1765 1638 1801.5 1612.5 c 128,-1,54
 1838 1587 1838 1587 1861 1550.5 c 128,-1,55
 1884 1514 1884 1514 1901 1477 c 128,-1,56
 1918 1440 1918 1440 1926 1414 c 2,57,-1
 1933 1389 l 1,58,-1
 1974 1618 l 2,59,60
 1986 1688 1986 1688 2068 1688 c 2,61,-1
 2109 1688 l 2,62,63
 2156 1688 2156 1688 2169.5 1679.5 c 128,-1,64
 2183 1671 2183 1671 2183 1638 c 0,65,66
 2183 1629 2183 1629 2147.5 1400 c 128,-1,67
 2112 1171 2112 1171 2076 895 c 128,-1,68
 2040 619 2040 619 2040 496 c 0,69,70
 2040 349 2040 349 2083 295.5 c 128,-1,71
 2126 242 2126 242 2241 242 c 0,72,73
 2300 242 2300 242 2363.5 264.5 c 128,-1,74
 2427 287 2427 287 2493 331.5 c 128,-1,75
 2559 376 2559 376 2617.5 451 c 128,-1,76
 2676 526 2676 526 2722 622.5 c 128,-1,77
 2768 719 2768 719 2795 854.5 c 128,-1,78
 2822 990 2822 990 2822 1147 c 0,79,80
 2822 1221 2822 1221 2814 1293 c 128,-1,81
 2806 1365 2806 1365 2778 1461.5 c 128,-1,82
 2750 1558 2750 1558 2705 1641 c 128,-1,83
 2660 1724 2660 1724 2578 1808 c 128,-1,84
 2496 1892 2496 1892 2387.5 1951.5 c 128,-1,85
 2279 2011 2279 2011 2117 2048 c 128,-1,86
 1955 2085 1955 2085 1757 2085 c 0,87,88
 1567 2085 1567 2085 1400 2040.5 c 128,-1,89
 1233 1996 1233 1996 1107 1919 c 128,-1,90
 981 1842 981 1842 877.5 1736.5 c 128,-1,91
 774 1631 774 1631 704.5 1512 c 128,-1,92
 635 1393 635 1393 587 1261.5 c 128,-1,93
 539 1130 539 1130 517.5 1003.5 c 128,-1,94
 496 877 496 877 496 754 c 0,95,96
 496 551 496 551 537.5 372 c 128,-1,97
 579 193 579 193 669.5 39 c 128,-1,98
 760 -115 760 -115 892.5 -226 c 128,-1,99
 1025 -337 1025 -337 1218 -400 c 128,-1,100
 1411 -463 1411 -463 1647 -463 c 0,101,102
 1995 -463 1995 -463 2296 -336.5 c 128,-1,103
 2597 -210 2597 -210 2798 16 c 1,104,-1
 2847 -29 l 1,105,106
 2676 -296 2676 -296 2332 -457 c 128,-1,107
 1988 -618 1988 -618 1569 -618 c 0,108,109
 1298 -618 1298 -618 1074.5 -547 c 128,-1,110
 851 -476 851 -476 695 -351.5 c 128,-1,111
 539 -227 539 -227 432 -56 c 128,-1,112
 325 115 325 115 275 312 c 128,-1,113
 225 509 225 509 225 729 c 0,0,1
1188 537 m 0,114,115
 1188 409 1188 409 1237.5 325.5 c 128,-1,116
 1287 242 1287 242 1339 242 c 0,117,118
 1396 242 1396 242 1490.5 356 c 128,-1,119
 1585 470 1585 470 1670 622.5 c 128,-1,120
 1755 775 1755 775 1817.5 937 c 128,-1,121
 1880 1099 1880 1099 1880 1188 c 0,122,123
 1880 1248 1880 1248 1834.5 1312 c 128,-1,124
 1789 1376 1789 1376 1730.5 1415 c 128,-1,125
 1672 1454 1672 1454 1630 1454 c 128,-1,126
 1588 1454 1588 1454 1529.5 1400.5 c 128,-1,127
 1471 1347 1471 1347 1412.5 1253 c 128,-1,128
 1354 1159 1354 1159 1303 1045 c 128,-1,129
 1252 931 1252 931 1220 795 c 128,-1,130
 1188 659 1188 659 1188 537 c 0,114,115
EndSplineSet
EndChar

StartChar: A
Encoding: 65 65 36
Width: 2682
GlyphClass: 2
Flags: W
LayerCount: 2
Fore
SplineSet
82 0 m 1,0,-1
 82 131 l 1,1,-1
 147 131 l 2,2,3
 195 131 195 131 221 136 c 128,-1,4
 247 141 247 141 277.5 162.5 c 128,-1,5
 308 184 308 184 335 227.5 c 128,-1,6
 362 271 362 271 397 348 c 1,7,-1
 1548 2798 l 1,8,-1
 1622 2798 l 1,9,-1
 2200 471 l 2,10,11
 2223 379 2223 379 2236 329.5 c 128,-1,12
 2249 280 2249 280 2267 236 c 128,-1,13
 2285 192 2285 192 2296 175.5 c 128,-1,14
 2307 159 2307 159 2332 146 c 128,-1,15
 2357 133 2357 133 2377.5 132 c 128,-1,16
 2398 131 2398 131 2441 131 c 2,17,-1
 2560 131 l 1,18,-1
 2560 0 l 1,19,-1
 1606 0 l 1,20,-1
 1606 131 l 1,21,-1
 1724 131 l 2,22,23
 1849 131 1849 131 1891 144 c 128,-1,24
 1933 157 1933 157 1933 209 c 0,25,26
 1933 238 1933 238 1921 287 c 2,27,-1
 1741 1053 l 1,28,-1
 926 1053 l 1,29,-1
 606 360 l 1,30,31
 549 232 549 232 549 201 c 0,32,33
 549 157 549 157 600 144 c 128,-1,34
 651 131 651 131 807 131 c 2,35,-1
 885 131 l 1,36,-1
 877 0 l 1,37,-1
 82 0 l 1,0,-1
991 1212 m 1,38,-1
 1704 1212 l 1,39,-1
 1446 2245 l 1,40,-1
 991 1212 l 1,38,-1
EndSplineSet
Substitution2: "'swsh' Swash in Latin lookup 13 subtable" A.001
AlternateSubs2: "'aalt' Access All Alternates in Latin lookup 1 subtable" A.001
AlternateSubs2: "'aalt' Access All Alternates lookup 0 subtable" A.001
Position2: "'cpsp' Capital Spacing in Latin lookup 0 subtable" dx=33 dy=0 dh=66 dv=0
EndChar

StartChar: B
Encoding: 66 66 37
Width: 2277
GlyphClass: 2
Flags: W
LayerCount: 2
Fore
SplineSet
61 0 m 1,0,-1
 66 131 l 1,1,-1
 197 131 l 2,2,3
 304 131 304 131 331.5 150 c 128,-1,4
 359 169 359 169 365 254 c 0,5,6
 447 1426 447 1426 506 2265 c 0,7,8
 524 2523 524 2523 524 2531 c 0,9,10
 524 2580 524 2580 488 2590.5 c 128,-1,11
 452 2601 452 2601 324 2601 c 2,12,-1
 143 2601 l 1,13,-1
 143 2732 l 1,14,-1
 1196 2732 l 2,15,16
 1331 2732 1331 2732 1445.5 2711 c 128,-1,17
 1560 2690 1560 2690 1642.5 2654.5 c 128,-1,18
 1725 2619 1725 2619 1790 2569.5 c 128,-1,19
 1855 2520 1855 2520 1895.5 2466.5 c 128,-1,20
 1936 2413 1936 2413 1963 2352 c 128,-1,21
 1990 2291 1990 2291 2000.5 2236 c 128,-1,22
 2011 2181 2011 2181 2011 2126 c 0,23,24
 2011 2037 2011 2037 1991 1960.5 c 128,-1,25
 1971 1884 1971 1884 1936.5 1829 c 128,-1,26
 1902 1774 1902 1774 1858 1728.5 c 128,-1,27
 1814 1683 1814 1683 1765 1654 c 128,-1,28
 1716 1625 1716 1625 1667 1602.5 c 128,-1,29
 1618 1580 1618 1580 1574 1568.5 c 128,-1,30
 1530 1557 1530 1557 1495.5 1550 c 128,-1,31
 1461 1543 1461 1543 1441 1542 c 2,32,-1
 1421 1540 l 1,33,34
 1430 1539 1430 1539 1444.5 1536.5 c 128,-1,35
 1459 1534 1459 1534 1505 1522.5 c 128,-1,36
 1551 1511 1551 1511 1595.5 1495.5 c 128,-1,37
 1640 1480 1640 1480 1700.5 1451.5 c 128,-1,38
 1761 1423 1761 1423 1813 1388 c 128,-1,39
 1865 1353 1865 1353 1918 1300.5 c 128,-1,40
 1971 1248 1971 1248 2008.5 1187.5 c 128,-1,41
 2046 1127 2046 1127 2069.5 1044 c 128,-1,42
 2093 961 2093 961 2093 868 c 0,43,44
 2093 723 2093 723 2037.5 580.5 c 128,-1,45
 1982 438 1982 438 1888 328 c 0,46,47
 1833 263 1833 263 1768.5 213 c 128,-1,48
 1704 163 1704 163 1640.5 128.5 c 128,-1,49
 1577 94 1577 94 1497 70 c 128,-1,50
 1417 46 1417 46 1346.5 32.5 c 128,-1,51
 1276 19 1276 19 1180.5 11.5 c 128,-1,52
 1085 4 1085 4 1008.5 2 c 128,-1,53
 932 0 932 0 823 0 c 2,54,-1
 61 0 l 1,0,-1
655 258 m 2,55,56
 655 194 655 194 689 162.5 c 128,-1,57
 723 131 723 131 815 131 c 0,58,59
 954 131 954 131 1073.5 151.5 c 128,-1,60
 1193 172 1193 172 1279.5 205.5 c 128,-1,61
 1366 239 1366 239 1437 287.5 c 128,-1,62
 1508 336 1508 336 1554 386.5 c 128,-1,63
 1600 437 1600 437 1634.5 496.5 c 128,-1,64
 1669 556 1669 556 1687 606 c 128,-1,65
 1705 656 1705 656 1716 710.5 c 128,-1,66
 1727 765 1727 765 1730 798.5 c 128,-1,67
 1733 832 1733 832 1733 864 c 0,68,69
 1733 1029 1733 1029 1665.5 1147.5 c 128,-1,70
 1598 1266 1598 1266 1475 1335 c 1,71,72
 1329 1420 1329 1420 1133.5 1461.5 c 128,-1,73
 938 1503 938 1503 737 1503 c 1,74,-1
 655 283 l 1,75,-1
 655 258 l 2,55,56
745 1606 m 1,76,77
 851 1606 851 1606 1049 1593 c 1,78,-1
 1098 1593 l 2,79,80
 1140 1593 1140 1593 1188 1599 c 128,-1,81
 1236 1605 1236 1605 1293.5 1621 c 128,-1,82
 1351 1637 1351 1637 1404 1660.5 c 128,-1,83
 1457 1684 1457 1684 1508 1722.5 c 128,-1,84
 1559 1761 1559 1761 1596.5 1809 c 128,-1,85
 1634 1857 1634 1857 1656.5 1925 c 128,-1,86
 1679 1993 1679 1993 1679 2073 c 0,87,88
 1679 2169 1679 2169 1655.5 2249 c 128,-1,89
 1632 2329 1632 2329 1592 2386 c 128,-1,90
 1552 2443 1552 2443 1494.5 2486.5 c 128,-1,91
 1437 2530 1437 2530 1374 2556.5 c 128,-1,92
 1311 2583 1311 2583 1236 2600 c 128,-1,93
 1161 2617 1161 2617 1091.5 2623.5 c 128,-1,94
 1022 2630 1022 2630 946 2630 c 0,95,96
 883 2630 883 2630 848.5 2607.5 c 128,-1,97
 814 2585 814 2585 811 2544 c 2,98,-1
 745 1606 l 1,76,77
EndSplineSet
Substitution2: "'swsh' Swash in Latin lookup 13 subtable" B.001
AlternateSubs2: "'aalt' Access All Alternates in Latin lookup 1 subtable" B.001
AlternateSubs2: "'aalt' Access All Alternates lookup 0 subtable" B.001
Position2: "'cpsp' Capital Spacing in Latin lookup 0 subtable" dx=33 dy=0 dh=66 dv=0
EndChar

StartChar: C
Encoding: 67 67 38
Width: 2805
GlyphClass: 2
Flags: W
LayerCount: 2
Fore
SplineSet
184 1176 m 0,0,1
 184 1319 184 1319 206.5 1463 c 128,-1,2
 229 1607 229 1607 273.5 1748.5 c 128,-1,3
 318 1890 318 1890 387 2021 c 128,-1,4
 456 2152 456 2152 545 2268.5 c 128,-1,5
 634 2385 634 2385 750.5 2481 c 128,-1,6
 867 2577 867 2577 1001.5 2646.5 c 128,-1,7
 1136 2716 1136 2716 1301 2754.5 c 128,-1,8
 1466 2793 1466 2793 1647 2793 c 0,9,10
 1878 2793 1878 2793 2080 2733.5 c 128,-1,11
 2282 2674 2282 2674 2400.5 2575 c 128,-1,12
 2519 2476 2519 2476 2519 2363 c 0,13,14
 2519 2345 2519 2345 2509.5 2304.5 c 128,-1,15
 2500 2264 2500 2264 2483 2215 c 128,-1,16
 2466 2166 2466 2166 2435 2129.5 c 128,-1,17
 2404 2093 2404 2093 2367 2093 c 0,18,19
 2346 2093 2346 2093 2330.5 2103 c 128,-1,20
 2315 2113 2315 2113 2305 2128.5 c 128,-1,21
 2295 2144 2295 2144 2286 2172 c 128,-1,22
 2277 2200 2277 2200 2271 2226 c 128,-1,23
 2265 2252 2265 2252 2255 2293.5 c 128,-1,24
 2245 2335 2245 2335 2236 2367 c 0,25,26
 2223 2412 2223 2412 2179.5 2460.5 c 128,-1,27
 2136 2509 2136 2509 2065 2555.5 c 128,-1,28
 1994 2602 1994 2602 1882.5 2632 c 128,-1,29
 1771 2662 1771 2662 1642 2662 c 0,30,31
 1505 2662 1505 2662 1368 2620 c 128,-1,32
 1231 2578 1231 2578 1105 2500.5 c 128,-1,33
 979 2423 979 2423 871 2303.5 c 128,-1,34
 763 2184 763 2184 683 2037.5 c 128,-1,35
 603 1891 603 1891 557.5 1702.5 c 128,-1,36
 512 1514 512 1514 512 1307 c 0,37,38
 512 1038 512 1038 587.5 809.5 c 128,-1,39
 663 581 663 581 792.5 426.5 c 128,-1,40
 922 272 922 272 1096 185 c 128,-1,41
 1270 98 1270 98 1466 98 c 0,42,43
 1593 98 1593 98 1735 137 c 128,-1,44
 1877 176 1877 176 2007 258 c 0,45,46
 2145 346 2145 346 2184.5 395 c 128,-1,47
 2224 444 2224 444 2298 610 c 0,48,49
 2303 621 2303 621 2306 627 c 1,50,-1
 2396 627 l 1,51,52
 2372 495 2372 495 2322 262 c 0,53,54
 2313 224 2313 224 2286.5 199.5 c 128,-1,55
 2260 175 2260 175 2171 127 c 1,56,57
 2043 55 2043 55 1859 5 c 128,-1,58
 1675 -45 1675 -45 1442 -45 c 0,59,60
 1180 -45 1180 -45 967.5 21 c 128,-1,61
 755 87 755 87 611 200.5 c 128,-1,62
 467 314 467 314 369.5 470.5 c 128,-1,63
 272 627 272 627 228 803 c 128,-1,64
 184 979 184 979 184 1176 c 0,0,1
EndSplineSet
Substitution2: "'swsh' Swash in Latin lookup 13 subtable" C.001
AlternateSubs2: "'aalt' Access All Alternates in Latin lookup 1 subtable" C.001
AlternateSubs2: "'aalt' Access All Alternates lookup 0 subtable" C.001
Position2: "'cpsp' Capital Spacing in Latin lookup 0 subtable" dx=33 dy=0 dh=66 dv=0
EndChar

StartChar: D
Encoding: 68 68 39
Width: 2985
GlyphClass: 2
Flags: W
LayerCount: 2
Fore
SplineSet
90 0 m 1,0,-1
 98 131 l 1,1,-1
 172 131 l 2,2,3
 277 131 277 131 301.5 149.5 c 128,-1,4
 326 168 326 168 332 254 c 0,5,6
 439 1616 439 1616 500 2377 c 0,7,8
 509 2484 509 2484 510.5 2505 c 128,-1,9
 512 2526 512 2526 512 2531 c 0,10,11
 512 2581 512 2581 482 2591 c 128,-1,12
 452 2601 452 2601 328 2601 c 2,13,-1
 156 2601 l 1,14,-1
 164 2732 l 1,15,-1
 1253 2732 l 2,16,17
 1546 2732 1546 2732 1749 2707.5 c 128,-1,18
 1952 2683 1952 2683 2105 2623.5 c 128,-1,19
 2258 2564 2258 2564 2362.5 2477 c 128,-1,20
 2467 2390 2467 2390 2564 2253 c 0,21,22
 2781 1944 2781 1944 2781 1528 c 0,23,24
 2781 1238 2781 1238 2668.5 954 c 128,-1,25
 2556 670 2556 670 2343 451 c 0,26,27
 2238 342 2238 342 2121.5 261 c 128,-1,28
 2005 180 2005 180 1892.5 130.5 c 128,-1,29
 1780 81 1780 81 1651.5 51.5 c 128,-1,30
 1523 22 1523 22 1406 11 c 128,-1,31
 1289 0 1289 0 1151 0 c 2,32,-1
 90 0 l 1,0,-1
635 270 m 0,33,34
 635 244 635 244 637 225.5 c 128,-1,35
 639 207 639 207 647 191.5 c 128,-1,36
 655 176 655 176 663 166.5 c 128,-1,37
 671 157 671 157 691 150 c 128,-1,38
 711 143 711 143 728 139.5 c 128,-1,39
 745 136 745 136 780.5 134 c 128,-1,40
 816 132 816 132 846 131.5 c 128,-1,41
 876 131 876 131 930 131 c 2,42,-1
 1196 131 l 2,43,44
 1405 131 1405 131 1582.5 179.5 c 128,-1,45
 1760 228 1760 228 1886.5 308.5 c 128,-1,46
 2013 389 2013 389 2113.5 501 c 128,-1,47
 2214 613 2214 613 2276.5 733 c 128,-1,48
 2339 853 2339 853 2380 986.5 c 128,-1,49
 2421 1120 2421 1120 2437.5 1238 c 128,-1,50
 2454 1356 2454 1356 2454 1470 c 0,51,52
 2454 1577 2454 1577 2439.5 1682.5 c 128,-1,53
 2425 1788 2425 1788 2388 1901.5 c 128,-1,54
 2351 2015 2351 2015 2295 2114.5 c 128,-1,55
 2239 2214 2239 2214 2149.5 2305 c 128,-1,56
 2060 2396 2060 2396 1946.5 2460.5 c 128,-1,57
 1833 2525 1833 2525 1675 2563 c 128,-1,58
 1517 2601 1517 2601 1331 2601 c 2,59,-1
 922 2601 l 2,60,61
 854 2601 854 2601 834 2591.5 c 128,-1,62
 814 2582 814 2582 811 2544 c 0,63,64
 801 2422 801 2422 770.5 2052.5 c 128,-1,65
 740 1683 740 1683 721.5 1458.5 c 128,-1,66
 703 1234 703 1234 680.5 945.5 c 128,-1,67
 658 657 658 657 646.5 488.5 c 128,-1,68
 635 320 635 320 635 270 c 0,33,34
EndSplineSet
Substitution2: "'swsh' Swash in Latin lookup 13 subtable" D.001
AlternateSubs2: "'aalt' Access All Alternates in Latin lookup 1 subtable" D.001
AlternateSubs2: "'aalt' Access All Alternates lookup 0 subtable" D.001
Position2: "'cpsp' Capital Spacing in Latin lookup 0 subtable" dx=33 dy=0 dh=66 dv=0
EndChar

StartChar: E
Encoding: 69 69 40
Width: 2240
GlyphClass: 2
Flags: W
LayerCount: 2
Fore
SplineSet
66 0 m 1,0,-1
 74 131 l 1,1,-1
 168 131 l 2,2,3
 226 131 226 131 253.5 133.5 c 128,-1,4
 281 136 281 136 303 149.5 c 128,-1,5
 325 163 325 163 332 186 c 128,-1,6
 339 209 339 209 344 254 c 0,7,8
 489 1871 489 1871 547 2466 c 0,9,10
 553 2527 553 2527 553 2535 c 0,11,12
 553 2581 553 2581 528 2591 c 128,-1,13
 503 2601 503 2601 426 2601 c 2,14,-1
 201 2601 l 1,15,-1
 201 2732 l 1,16,-1
 2036 2732 l 1,17,-1
 2036 2236 l 1,18,-1
 1946 2232 l 1,19,-1
 1942 2445 l 2,20,21
 1941 2484 1941 2484 1934 2504.5 c 128,-1,22
 1927 2525 1927 2525 1897 2543.5 c 128,-1,23
 1867 2562 1867 2562 1814.5 2569.5 c 128,-1,24
 1762 2577 1762 2577 1663 2583.5 c 128,-1,25
 1564 2590 1564 2590 1425.5 2593 c 128,-1,26
 1287 2596 1287 2596 1079 2599 c 0,27,28
 990 2600 990 2600 942 2601 c 1,29,30
 874 2601 874 2601 854 2591.5 c 128,-1,31
 834 2582 834 2582 831 2544 c 2,32,-1
 750 1630 l 1,33,-1
 1487 1630 l 2,34,35
 1573 1630 1573 1630 1595 1647 c 128,-1,36
 1617 1664 1617 1664 1626 1737 c 1,37,-1
 1647 1937 l 1,38,-1
 1737 1933 l 1,39,-1
 1671 1094 l 1,40,-1
 1573 1098 l 1,41,42
 1593 1374 1593 1374 1593 1376 c 0,43,44
 1593 1431 1593 1431 1565.5 1450.5 c 128,-1,45
 1538 1470 1538 1470 1466 1470 c 2,46,-1
 733 1470 l 1,47,-1
 639 381 l 1,48,49
 631 275 631 275 631 254 c 0,50,51
 631 210 631 210 649.5 199 c 128,-1,52
 668 188 668 188 729 188 c 2,53,-1
 791 188 l 2,54,55
 947 188 947 188 1061.5 188.5 c 128,-1,56
 1176 189 1176 189 1278.5 191 c 128,-1,57
 1381 193 1381 193 1450.5 194.5 c 128,-1,58
 1520 196 1520 196 1580.5 201 c 128,-1,59
 1641 206 1641 206 1676.5 209.5 c 128,-1,60
 1712 213 1712 213 1743 222 c 128,-1,61
 1774 231 1774 231 1788 237.5 c 128,-1,62
 1802 244 1802 244 1814.5 258 c 128,-1,63
 1827 272 1827 272 1831.5 282 c 128,-1,64
 1836 292 1836 292 1843 311 c 0,65,66
 1856 344 1856 344 1869 390 c 128,-1,67
 1882 436 1882 436 1889.5 467.5 c 128,-1,68
 1897 499 1897 499 1909.5 553.5 c 128,-1,69
 1922 608 1922 608 1925 623 c 1,70,-1
 2028 602 l 1,71,-1
 1888 0 l 1,72,-1
 66 0 l 1,0,-1
EndSplineSet
Substitution2: "'swsh' Swash in Latin lookup 13 subtable" E.001
AlternateSubs2: "'aalt' Access All Alternates in Latin lookup 1 subtable" E.001
AlternateSubs2: "'aalt' Access All Alternates lookup 0 subtable" E.001
Position2: "'cpsp' Capital Spacing in Latin lookup 0 subtable" dx=33 dy=0 dh=66 dv=0
EndChar

StartChar: F
Encoding: 70 70 41
Width: 2224
GlyphClass: 2
Flags: W
LayerCount: 2
Fore
SplineSet
78 0 m 1,0,-1
 86 131 l 1,1,-1
 201 131 l 2,2,3
 308 131 308 131 335.5 150 c 128,-1,4
 363 169 363 169 369 254 c 1,5,6
 433 1025 433 1025 504 1860 c 0,7,8
 540 2285 540 2285 548.5 2392.5 c 128,-1,9
 557 2500 557 2500 557 2535 c 0,10,11
 557 2581 557 2581 532 2591 c 128,-1,12
 507 2601 507 2601 430 2601 c 2,13,-1
 205 2601 l 1,14,-1
 205 2732 l 1,15,-1
 2101 2732 l 1,16,-1
 2101 2212 l 1,17,-1
 1978 2208 l 1,18,-1
 1978 2445 l 2,19,20
 1978 2508 1978 2508 1947 2533 c 0,21,22
 1901 2570 1901 2570 1717 2582 c 0,23,24
 1590 2590 1590 2590 954 2601 c 1,25,26
 884 2601 884 2601 863.5 2592.5 c 128,-1,27
 843 2584 843 2584 840 2544 c 2,28,-1
 766 1630 l 1,29,-1
 1520 1630 l 2,30,31
 1551 1630 1551 1630 1568.5 1630.5 c 128,-1,32
 1586 1631 1586 1631 1601 1636.5 c 128,-1,33
 1616 1642 1616 1642 1622 1646 c 128,-1,34
 1628 1650 1628 1650 1634 1666.5 c 128,-1,35
 1640 1683 1640 1683 1641.5 1694.5 c 128,-1,36
 1643 1706 1643 1706 1647 1737 c 2,37,-1
 1667 1937 l 1,38,-1
 1769 1933 l 1,39,-1
 1704 1069 l 1,40,-1
 1597 1069 l 1,41,42
 1618 1359 1618 1359 1618 1376 c 0,43,44
 1618 1432 1618 1432 1593.5 1451 c 128,-1,45
 1569 1470 1569 1470 1499 1470 c 2,46,-1
 754 1470 l 1,47,-1
 672 381 l 2,48,49
 664 275 664 275 664 229 c 0,50,51
 664 180 664 180 685.5 155.5 c 128,-1,52
 707 131 707 131 762 131 c 2,53,-1
 1032 131 l 1,54,-1
 1024 0 l 1,55,-1
 78 0 l 1,0,-1
EndSplineSet
Position2: "'cpsp' Capital Spacing in Latin lookup 0 subtable" dx=33 dy=0 dh=66 dv=0
EndChar

StartChar: G
Encoding: 71 71 42
Width: 2936
GlyphClass: 2
Flags: W
LayerCount: 2
Fore
SplineSet
184 1245 m 0,0,1
 184 1435 184 1435 228.5 1622 c 128,-1,2
 273 1809 273 1809 358 1982.5 c 128,-1,3
 443 2156 443 2156 574.5 2304.5 c 128,-1,4
 706 2453 706 2453 870.5 2563 c 128,-1,5
 1035 2673 1035 2673 1249.5 2735.5 c 128,-1,6
 1464 2798 1464 2798 1704 2798 c 0,7,8
 1817 2798 1817 2798 2014.5 2755.5 c 128,-1,9
 2212 2713 2212 2713 2347 2638 c 1,10,11
 2406 2604 2406 2604 2436.5 2583.5 c 128,-1,12
 2467 2563 2467 2563 2484 2536.5 c 128,-1,13
 2501 2510 2501 2510 2504 2487 c 128,-1,14
 2507 2464 2507 2464 2507 2417 c 2,15,-1
 2507 2376 l 2,16,17
 2507 2303 2507 2303 2501.5 2201.5 c 128,-1,18
 2496 2100 2496 2100 2491 2035 c 2,19,-1
 2486 1970 l 1,20,-1
 2404 1966 l 1,21,-1
 2402 1992 l 2,22,23
 2401 2018 2401 2018 2393 2062.5 c 128,-1,24
 2385 2107 2385 2107 2370 2162.5 c 128,-1,25
 2355 2218 2355 2218 2322 2280 c 128,-1,26
 2289 2342 2289 2342 2243.5 2400 c 128,-1,27
 2198 2458 2198 2458 2123 2511 c 128,-1,28
 2048 2564 2048 2564 1954 2597 c 1,29,30
 1761 2662 1761 2662 1618 2662 c 0,31,32
 1447 2662 1447 2662 1292 2607.5 c 128,-1,33
 1137 2553 1137 2553 1017.5 2458.5 c 128,-1,34
 898 2364 898 2364 801 2238 c 128,-1,35
 704 2112 704 2112 641.5 1967.5 c 128,-1,36
 579 1823 579 1823 545.5 1670 c 128,-1,37
 512 1517 512 1517 512 1368 c 0,38,39
 512 1161 512 1161 546.5 983.5 c 128,-1,40
 581 806 581 806 639.5 677.5 c 128,-1,41
 698 549 698 549 779 446 c 128,-1,42
 860 343 860 343 948.5 278 c 128,-1,43
 1037 213 1037 213 1136.5 169.5 c 128,-1,44
 1236 126 1236 126 1327 108 c 128,-1,45
 1418 90 1418 90 1507 90 c 0,46,47
 1772 90 1772 90 1941.5 214.5 c 128,-1,48
 2111 339 2111 339 2130 557 c 1,49,-1
 2175 1143 l 1,50,-1
 1667 1143 l 1,51,-1
 1675 1274 l 1,52,-1
 2691 1274 l 1,53,-1
 2683 1143 l 1,54,-1
 2454 1143 l 1,55,-1
 2363 -4 l 1,56,-1
 2290 0 l 1,57,58
 2274 94 2274 94 2245 139 c 0,59,60
 2232 161 2232 161 2207 165 c 128,-1,61
 2182 169 2182 169 2175 160 c 1,62,63
 2105 116 2105 116 2067 93.5 c 128,-1,64
 2029 71 2029 71 1957 37 c 128,-1,65
 1885 3 1885 3 1823.5 -14 c 128,-1,66
 1762 -31 1762 -31 1671.5 -44 c 128,-1,67
 1581 -57 1581 -57 1479 -57 c 0,68,69
 1209 -57 1209 -57 989.5 14 c 128,-1,70
 770 85 770 85 622 206.5 c 128,-1,71
 474 328 474 328 374 495 c 128,-1,72
 274 662 274 662 229 849.5 c 128,-1,73
 184 1037 184 1037 184 1245 c 0,0,1
EndSplineSet
Substitution2: "'swsh' Swash in Latin lookup 13 subtable" G.001
AlternateSubs2: "'aalt' Access All Alternates in Latin lookup 1 subtable" G.001
AlternateSubs2: "'aalt' Access All Alternates lookup 0 subtable" G.001
Position2: "'cpsp' Capital Spacing in Latin lookup 0 subtable" dx=33 dy=0 dh=66 dv=0
EndChar

StartChar: H
Encoding: 72 72 43
Width: 2887
GlyphClass: 2
Flags: W
LayerCount: 2
Fore
SplineSet
82 0 m 1,0,-1
 90 131 l 1,1,-1
 225 131 l 2,2,3
 261 131 261 131 280.5 132 c 128,-1,4
 300 133 300 133 318.5 141.5 c 128,-1,5
 337 150 337 150 344 158.5 c 128,-1,6
 351 167 351 167 358 193 c 128,-1,7
 365 219 365 219 367.5 243.5 c 128,-1,8
 370 268 370 268 373 319 c 2,9,-1
 528 2441 l 2,10,11
 528 2452 528 2452 530 2469 c 128,-1,12
 532 2486 532 2486 532 2494 c 0,13,14
 532 2535 532 2535 529.5 2553 c 128,-1,15
 527 2571 527 2571 510 2584 c 128,-1,16
 493 2597 493 2597 467.5 2599 c 128,-1,17
 442 2601 442 2601 385 2601 c 2,18,-1
 197 2601 l 1,19,-1
 201 2732 l 1,20,-1
 1135 2732 l 1,21,-1
 1130 2601 l 1,22,-1
 1040 2601 l 2,23,24
 1000 2601 1000 2601 982.5 2601 c 128,-1,25
 965 2601 965 2601 938 2599.5 c 128,-1,26
 911 2598 911 2598 901.5 2597 c 128,-1,27
 892 2596 892 2596 874.5 2591 c 128,-1,28
 857 2586 857 2586 853 2582.5 c 128,-1,29
 849 2579 849 2579 839.5 2568 c 128,-1,30
 830 2557 830 2557 829 2549 c 128,-1,31
 828 2541 828 2541 823.5 2523 c 128,-1,32
 819 2505 819 2505 818 2490.5 c 128,-1,33
 817 2476 817 2476 815 2449 c 2,34,-1
 754 1606 l 1,35,-1
 2154 1606 l 1,36,-1
 2216 2441 l 2,37,38
 2216 2452 2216 2452 2218 2469 c 128,-1,39
 2220 2486 2220 2486 2220 2494 c 0,40,41
 2220 2535 2220 2535 2217.5 2553 c 128,-1,42
 2215 2571 2215 2571 2198 2584 c 128,-1,43
 2181 2597 2181 2597 2155.5 2599 c 128,-1,44
 2130 2601 2130 2601 2073 2601 c 2,45,-1
 1901 2601 l 1,46,-1
 1901 2732 l 1,47,-1
 2806 2732 l 1,48,-1
 2802 2601 l 1,49,-1
 2736 2601 l 2,50,51
 2696 2601 2696 2601 2678.5 2601 c 128,-1,52
 2661 2601 2661 2601 2633 2599.5 c 128,-1,53
 2605 2598 2605 2598 2595 2597 c 128,-1,54
 2585 2596 2585 2596 2567.5 2591 c 128,-1,55
 2550 2586 2550 2586 2545 2582 c 128,-1,56
 2540 2578 2540 2578 2530.5 2568 c 128,-1,57
 2521 2558 2521 2558 2519 2549 c 128,-1,58
 2517 2540 2517 2540 2512.5 2523 c 128,-1,59
 2508 2506 2508 2506 2506.5 2490 c 128,-1,60
 2505 2474 2505 2474 2503 2449 c 2,61,-1
 2351 336 l 2,62,63
 2347 291 2347 291 2347 229 c 0,64,65
 2347 214 2347 214 2347.5 202.5 c 128,-1,66
 2348 191 2348 191 2352 181 c 128,-1,67
 2356 171 2356 171 2358 164.5 c 128,-1,68
 2360 158 2360 158 2369 152.5 c 128,-1,69
 2378 147 2378 147 2383 143.5 c 128,-1,70
 2388 140 2388 140 2403 137.5 c 128,-1,71
 2418 135 2418 135 2427 133.5 c 128,-1,72
 2436 132 2436 132 2458.5 131.5 c 128,-1,73
 2481 131 2481 131 2495 131 c 128,-1,74
 2509 131 2509 131 2540 131 c 2,75,-1
 2687 131 l 1,76,-1
 2687 0 l 1,77,-1
 1704 0 l 1,78,-1
 1712 131 l 1,79,-1
 1880 131 l 2,80,81
 1925 131 1925 131 1948.5 132 c 128,-1,82
 1972 133 1972 133 1994.5 141 c 128,-1,83
 2017 149 2017 149 2026 158 c 128,-1,84
 2035 167 2035 167 2043 192.5 c 128,-1,85
 2051 218 2051 218 2054 243.5 c 128,-1,86
 2057 269 2057 269 2060 319 c 2,87,-1
 2142 1446 l 1,88,-1
 741 1446 l 1,89,-1
 668 373 l 2,90,91
 666 337 666 337 662.5 301 c 128,-1,92
 659 265 659 265 659 246 c 0,93,94
 659 222 659 222 662 204.5 c 128,-1,95
 665 187 665 187 670 174.5 c 128,-1,96
 675 162 675 162 687.5 154 c 128,-1,97
 700 146 700 146 711.5 141 c 128,-1,98
 723 136 723 136 746.5 134 c 128,-1,99
 770 132 770 132 790.5 131.5 c 128,-1,100
 811 131 811 131 848 131 c 2,101,-1
 1024 131 l 1,102,-1
 1024 0 l 1,103,-1
 82 0 l 1,0,-1
EndSplineSet
Position2: "'cpsp' Capital Spacing in Latin lookup 0 subtable" dx=33 dy=0 dh=66 dv=0
EndChar

StartChar: I
Encoding: 73 73 44
Width: 1249
GlyphClass: 2
Flags: W
LayerCount: 2
Fore
SplineSet
86 0 m 1,0,-1
 90 131 l 1,1,-1
 180 131 l 2,2,3
 226 131 226 131 251 132.5 c 128,-1,4
 276 134 276 134 300 141 c 128,-1,5
 324 148 324 148 334.5 158.5 c 128,-1,6
 345 169 345 169 355 192.5 c 128,-1,7
 365 216 365 216 369 243.5 c 128,-1,8
 373 271 373 271 377 319 c 2,9,-1
 586 2441 l 2,10,11
 590 2474 590 2474 590 2523 c 0,12,13
 590 2576 590 2576 563 2588.5 c 128,-1,14
 536 2601 536 2601 442 2601 c 2,15,-1
 250 2601 l 1,16,-1
 254 2732 l 1,17,-1
 1171 2732 l 1,18,-1
 1163 2601 l 1,19,-1
 1114 2601 l 2,20,21
 1073 2601 1073 2601 1055 2601 c 128,-1,22
 1037 2601 1037 2601 1009 2599.5 c 128,-1,23
 981 2598 981 2598 970.5 2597 c 128,-1,24
 960 2596 960 2596 942 2591.5 c 128,-1,25
 924 2587 924 2587 919 2582.5 c 128,-1,26
 914 2578 914 2578 903.5 2568 c 128,-1,27
 893 2558 893 2558 890.5 2549 c 128,-1,28
 888 2540 888 2540 883 2523 c 128,-1,29
 878 2506 878 2506 876.5 2490 c 128,-1,30
 875 2474 875 2474 872 2449 c 2,31,-1
 664 336 l 2,32,33
 655 235 655 235 655 229 c 0,34,35
 655 204 655 204 657 189 c 128,-1,36
 659 174 659 174 669 162 c 128,-1,37
 679 150 679 150 690.5 144.5 c 128,-1,38
 702 139 702 139 731 135.5 c 128,-1,39
 760 132 760 132 788.5 131.5 c 128,-1,40
 817 131 817 131 872 131 c 2,41,-1
 1044 131 l 1,42,-1
 1040 0 l 1,43,-1
 86 0 l 1,0,-1
EndSplineSet
Position2: "'cpsp' Capital Spacing in Latin lookup 0 subtable" dx=33 dy=0 dh=66 dv=0
EndChar

StartChar: J
Encoding: 74 74 45
Width: 1331
GlyphClass: 2
Flags: W
LayerCount: 2
Fore
SplineSet
-426 -782 m 0,0,1
 -426 -685 -426 -685 -366.5 -617 c 128,-1,2
 -307 -549 -307 -549 -238 -549 c 0,3,4
 -225 -549 -225 -549 -214 -551.5 c 128,-1,5
 -203 -554 -203 -554 -194 -557 c 128,-1,6
 -185 -560 -185 -560 -176 -567.5 c 128,-1,7
 -167 -575 -167 -575 -161.5 -579 c 128,-1,8
 -156 -583 -156 -583 -148.5 -595 c 128,-1,9
 -141 -607 -141 -607 -137.5 -612 c 128,-1,10
 -134 -617 -134 -617 -127.5 -632 c 128,-1,11
 -121 -647 -121 -647 -119 -651.5 c 128,-1,12
 -117 -656 -117 -656 -110.5 -674 c 128,-1,13
 -104 -692 -104 -692 -102 -696 c 0,14,15
 -59 -795 -59 -795 -18 -838 c 128,-1,16
 23 -881 23 -881 90 -881 c 0,17,18
 142 -881 142 -881 192.5 -855.5 c 128,-1,19
 243 -830 243 -830 279 -782 c 0,20,21
 308 -744 308 -744 321.5 -692 c 128,-1,22
 335 -640 335 -640 365 -446 c 1,23,24
 429 -14 429 -14 459 336 c 1,25,-1
 659 2441 l 1,26,27
 664 2482 664 2482 664 2523 c 0,28,29
 664 2576 664 2576 637 2588.5 c 128,-1,30
 610 2601 610 2601 516 2601 c 2,31,-1
 213 2601 l 1,32,-1
 213 2732 l 1,33,-1
 1245 2732 l 1,34,-1
 1245 2601 l 1,35,-1
 1106 2601 l 2,36,37
 1069 2601 1069 2601 1049 2600 c 128,-1,38
 1029 2599 1029 2599 1009.5 2593 c 128,-1,39
 990 2587 990 2587 981 2578.5 c 128,-1,40
 972 2570 972 2570 964 2551.5 c 128,-1,41
 956 2533 956 2533 952.5 2510 c 128,-1,42
 949 2487 949 2487 946 2449 c 2,43,-1
 680 -332 l 2,44,45
 666 -481 666 -481 652.5 -537 c 128,-1,46
 639 -593 639 -593 614 -639 c 1,47,48
 579 -699 579 -699 535.5 -755.5 c 128,-1,49
 492 -812 492 -812 428 -872 c 128,-1,50
 364 -932 364 -932 293 -976 c 128,-1,51
 222 -1020 222 -1020 129.5 -1048.5 c 128,-1,52
 37 -1077 37 -1077 -61 -1077 c 0,53,54
 -231 -1077 -231 -1077 -328.5 -999.5 c 128,-1,55
 -426 -922 -426 -922 -426 -782 c 0,0,1
EndSplineSet
Position2: "'cpsp' Capital Spacing in Latin lookup 0 subtable" dx=33 dy=0 dh=66 dv=0
EndChar

StartChar: K
Encoding: 75 75 46
Width: 2998
GlyphClass: 2
Flags: W
LayerCount: 2
Fore
SplineSet
90 0 m 1,0,-1
 90 131 l 1,1,-1
 180 131 l 2,2,3
 226 131 226 131 251 132.5 c 128,-1,4
 276 134 276 134 300 141 c 128,-1,5
 324 148 324 148 334 158.5 c 128,-1,6
 344 169 344 169 353.5 192.5 c 128,-1,7
 363 216 363 216 366.5 243.5 c 128,-1,8
 370 271 370 271 373 319 c 2,9,-1
 545 2441 l 1,10,11
 549 2474 549 2474 549 2523 c 0,12,13
 549 2576 549 2576 522 2588.5 c 128,-1,14
 495 2601 495 2601 401 2601 c 2,15,-1
 250 2601 l 1,16,-1
 250 2732 l 1,17,-1
 1135 2732 l 1,18,-1
 1130 2601 l 1,19,-1
 1073 2601 l 2,20,21
 1032 2601 1032 2601 1014 2601 c 128,-1,22
 996 2601 996 2601 967.5 2599.5 c 128,-1,23
 939 2598 939 2598 928.5 2597 c 128,-1,24
 918 2596 918 2596 899.5 2591.5 c 128,-1,25
 881 2587 881 2587 876 2582.5 c 128,-1,26
 871 2578 871 2578 860.5 2568.5 c 128,-1,27
 850 2559 850 2559 848 2549 c 128,-1,28
 846 2539 846 2539 841 2523 c 128,-1,29
 836 2507 836 2507 834.5 2490.5 c 128,-1,30
 833 2474 833 2474 831 2449 c 2,31,-1
 737 1286 l 1,32,-1
 2175 2433 l 2,33,34
 2192 2447 2192 2447 2214 2464 c 128,-1,35
 2236 2481 2236 2481 2248.5 2490.5 c 128,-1,36
 2261 2500 2261 2500 2276 2512 c 128,-1,37
 2291 2524 2291 2524 2298.5 2531.5 c 128,-1,38
 2306 2539 2306 2539 2313.5 2547 c 128,-1,39
 2321 2555 2321 2555 2324 2561 c 128,-1,40
 2327 2567 2327 2567 2327 2572 c 0,41,42
 2327 2601 2327 2601 2212 2601 c 2,43,-1
 2085 2601 l 1,44,-1
 2085 2732 l 1,45,-1
 2978 2732 l 1,46,-1
 2970 2601 l 1,47,-1
 2798 2601 l 2,48,49
 2761 2601 2761 2601 2735.5 2598.5 c 128,-1,50
 2710 2596 2710 2596 2678 2584.5 c 128,-1,51
 2646 2573 2646 2573 2624 2562.5 c 128,-1,52
 2602 2552 2602 2552 2557 2521 c 128,-1,53
 2512 2490 2512 2490 2476.5 2463.5 c 128,-1,54
 2441 2437 2441 2437 2368 2382 c 0,55,56
 2328 2352 2328 2352 2306 2335 c 2,57,-1
 1278 1540 l 1,58,59
 2301 131 2301 131 2576 131 c 2,60,-1
 2802 131 l 1,61,-1
 2793 0 l 1,62,-1
 2089 0 l 1,63,64
 1639 531 1639 531 1053 1372 c 1,65,-1
 725 1122 l 1,66,-1
 659 336 l 2,67,68
 655 291 655 291 655 229 c 0,69,70
 655 204 655 204 657 189 c 128,-1,71
 659 174 659 174 669 162 c 128,-1,72
 679 150 679 150 690.5 144.5 c 128,-1,73
 702 139 702 139 731 135.5 c 128,-1,74
 760 132 760 132 788.5 131.5 c 128,-1,75
 817 131 817 131 872 131 c 2,76,-1
 1044 131 l 1,77,-1
 1044 0 l 1,78,-1
 90 0 l 1,0,-1
EndSplineSet
Position2: "'cpsp' Capital Spacing in Latin lookup 0 subtable" dx=33 dy=0 dh=66 dv=0
EndChar

StartChar: L
Encoding: 76 76 47
Width: 2183
GlyphClass: 2
Flags: W
LayerCount: 2
Fore
SplineSet
82 0 m 1,0,-1
 86 131 l 1,1,-1
 205 131 l 2,2,3
 312 131 312 131 339.5 150 c 128,-1,4
 367 169 367 169 373 254 c 0,5,6
 532 2504 532 2504 532 2523 c 0,7,8
 532 2570 532 2570 495.5 2585.5 c 128,-1,9
 459 2601 459 2601 373 2601 c 2,10,-1
 172 2601 l 1,11,-1
 180 2732 l 1,12,-1
 1143 2732 l 1,13,-1
 1143 2601 l 1,14,-1
 954 2601 l 2,15,16
 904 2601 904 2601 876.5 2595 c 128,-1,17
 849 2589 849 2589 835 2565.5 c 128,-1,18
 821 2542 821 2542 818.5 2523.5 c 128,-1,19
 816 2505 816 2505 813 2454 c 0,20,21
 812 2433 812 2433 811 2421 c 0,22,23
 664 270 664 270 664 258 c 0,24,25
 664 199 664 199 695 179.5 c 128,-1,26
 726 160 726 160 823 160 c 0,27,28
 1032 160 1032 160 1385 189.5 c 128,-1,29
 1738 219 1738 219 1786 233 c 1,30,31
 1833 251 1833 251 1853 294 c 128,-1,32
 1873 337 1873 337 1924 510 c 0,33,34
 1943 573 1943 573 1954 610 c 1,35,-1
 2060 582 l 1,36,37
 2035 500 2035 500 2003.5 388.5 c 128,-1,38
 1972 277 1972 277 1939.5 157.5 c 128,-1,39
 1907 38 1907 38 1896 0 c 1,40,-1
 82 0 l 1,0,-1
EndSplineSet
Substitution2: "'locl' Localized Forms in Latin lookup 2 subtable" L.CAT
AlternateSubs2: "'aalt' Access All Alternates in Latin lookup 1 subtable" L.CAT
Position2: "'cpsp' Capital Spacing in Latin lookup 0 subtable" dx=33 dy=0 dh=66 dv=0
EndChar

StartChar: M
Encoding: 77 77 48
Width: 3379
GlyphClass: 2
Flags: W
LayerCount: 2
Fore
SplineSet
123 0 m 1,0,-1
 131 131 l 1,1,-1
 221 131 l 2,2,3
 266 131 266 131 291 132 c 128,-1,4
 316 133 316 133 339 140.5 c 128,-1,5
 362 148 362 148 371.5 157 c 128,-1,6
 381 166 381 166 390 189.5 c 128,-1,7
 399 213 399 213 402 236.5 c 128,-1,8
 405 260 405 260 410 307 c 2,9,-1
 606 2449 l 1,10,-1
 569 2548 l 2,11,12
 557 2580 557 2580 534 2590.5 c 128,-1,13
 511 2601 511 2601 459 2601 c 2,14,-1
 131 2601 l 1,15,-1
 139 2732 l 1,16,-1
 836 2732 l 1,17,-1
 1647 410 l 1,18,-1
 2806 2732 l 1,19,-1
 3338 2732 l 1,20,-1
 3338 2601 l 1,21,-1
 3170 2601 l 2,22,23
 3115 2601 3115 2601 3094.5 2598 c 128,-1,24
 3074 2595 3074 2595 3051 2583 c 128,-1,25
 3028 2571 3028 2571 3022.5 2538.5 c 128,-1,26
 3017 2506 3017 2506 3011 2454 c 128,-1,27
 3005 2402 3005 2402 2999 2313 c 0,28,29
 2999 2308 2999 2308 2999 2305 c 128,-1,30
 2999 2302 2999 2302 2998.5 2298 c 128,-1,31
 2998 2294 2998 2294 2998 2290 c 0,32,33
 2879 308 2879 308 2879 270 c 0,34,35
 2879 230 2879 230 2886.5 202.5 c 128,-1,36
 2894 175 2894 175 2903 161 c 128,-1,37
 2912 147 2912 147 2932 140 c 128,-1,38
 2952 133 2952 133 2965.5 132 c 128,-1,39
 2979 131 2979 131 3006 131 c 2,40,-1
 3199 131 l 1,41,-1
 3199 0 l 1,42,-1
 2245 0 l 1,43,-1
 2253 131 l 1,44,-1
 2421 131 l 2,45,46
 2528 131 2528 131 2555.5 150 c 128,-1,47
 2583 169 2583 169 2589 254 c 2,48,-1
 2707 2236 l 1,49,-1
 1626 49 l 2,50,51
 1620 37 1620 37 1611.5 19.5 c 128,-1,52
 1603 2 1603 2 1598.5 -7 c 128,-1,53
 1594 -16 1594 -16 1587.5 -28.5 c 128,-1,54
 1581 -41 1581 -41 1576.5 -47 c 128,-1,55
 1572 -53 1572 -53 1566.5 -59 c 128,-1,56
 1561 -65 1561 -65 1555.5 -67.5 c 128,-1,57
 1550 -70 1550 -70 1544 -70 c 0,58,59
 1523 -70 1523 -70 1511.5 -51.5 c 128,-1,60
 1500 -33 1500 -33 1477 30 c 0,61,62
 1472 42 1472 42 1470 49 c 2,63,-1
 709 2208 l 1,64,65
 557 238 557 238 557 209 c 0,66,67
 557 165 557 165 581.5 148 c 128,-1,68
 606 131 606 131 680 131 c 2,69,-1
 897 131 l 1,70,-1
 897 0 l 1,71,-1
 123 0 l 1,0,-1
EndSplineSet
Substitution2: "'ss01' Style Set 1 in Latin lookup 15 subtable" M.001
AlternateSubs2: "'swsh' Swash in Latin lookup 14 subtable" M.002 M.001
AlternateSubs2: "'aalt' Access All Alternates in Latin lookup 1 subtable" M.001 M.002
AlternateSubs2: "'aalt' Access All Alternates lookup 0 subtable" M.001 M.002
Position2: "'cpsp' Capital Spacing in Latin lookup 0 subtable" dx=33 dy=0 dh=66 dv=0
EndChar

StartChar: N
Encoding: 78 78 49
Width: 3063
GlyphClass: 2
Flags: W
LayerCount: 2
Fore
SplineSet
123 2601 m 1,0,-1
 131 2732 l 1,1,-1
 762 2732 l 1,2,-1
 2396 426 l 1,3,-1
 2540 1901 l 2,4,5
 2549 1986 2549 1986 2567 2146 c 128,-1,6
 2585 2306 2585 2306 2593 2386 c 128,-1,7
 2601 2466 2601 2466 2601 2503 c 0,8,9
 2601 2566 2601 2566 2574.5 2583.5 c 128,-1,10
 2548 2601 2548 2601 2462 2601 c 2,11,-1
 2261 2601 l 1,12,-1
 2265 2732 l 1,13,-1
 3023 2732 l 1,14,-1
 3015 2601 l 1,15,-1
 2912 2601 l 2,16,17
 2882 2601 2882 2601 2860 2600 c 128,-1,18
 2838 2599 2838 2599 2820.5 2594 c 128,-1,19
 2803 2589 2803 2589 2791.5 2585 c 128,-1,20
 2780 2581 2780 2581 2771.5 2569.5 c 128,-1,21
 2763 2558 2763 2558 2758 2549 c 128,-1,22
 2753 2540 2753 2540 2749 2520 c 128,-1,23
 2745 2500 2745 2500 2743 2484.5 c 128,-1,24
 2741 2469 2741 2469 2738 2440 c 0,25,26
 2738 2436 2738 2436 2737.5 2433.5 c 128,-1,27
 2737 2431 2737 2431 2736.5 2427.5 c 128,-1,28
 2736 2424 2736 2424 2736 2421 c 0,29,30
 2699 2089 2699 2089 2691 1999 c 1,31,-1
 2560 717 l 1,32,-1
 2490 29 l 2,33,34
 2486 -16 2486 -16 2477.5 -39.5 c 128,-1,35
 2469 -63 2469 -63 2462.5 -66.5 c 128,-1,36
 2456 -70 2456 -70 2445 -70 c 0,37,38
 2418 -70 2418 -70 2403.5 -59 c 128,-1,39
 2389 -48 2389 -48 2351 4 c 2,40,-1
 717 2277 l 1,41,42
 643 1395 643 1395 602 831 c 0,43,44
 597 761 597 761 586 619 c 128,-1,45
 575 477 575 477 570 385.5 c 128,-1,46
 565 294 565 294 565 209 c 0,47,48
 565 186 565 186 572.5 171 c 128,-1,49
 580 156 580 156 590 148 c 128,-1,50
 600 140 600 140 619.5 136 c 128,-1,51
 639 132 639 132 651.5 131.5 c 128,-1,52
 664 131 664 131 688 131 c 2,53,-1
 913 131 l 1,54,-1
 909 0 l 1,55,-1
 131 0 l 1,56,-1
 139 131 l 1,57,-1
 229 131 l 2,58,59
 274 131 274 131 299 132 c 128,-1,60
 324 133 324 133 347 140.5 c 128,-1,61
 370 148 370 148 379 157 c 128,-1,62
 388 166 388 166 396.5 189 c 128,-1,63
 405 212 405 212 408 236 c 128,-1,64
 411 260 411 260 414 307 c 1,65,-1
 594 2413 l 1,66,67
 572 2439 572 2439 539 2480 c 0,68,69
 509 2516 509 2516 497 2530.5 c 128,-1,70
 485 2545 485 2545 462.5 2563 c 128,-1,71
 440 2581 440 2581 429 2585.5 c 128,-1,72
 418 2590 418 2590 386.5 2595.5 c 128,-1,73
 355 2601 355 2601 329 2601 c 128,-1,74
 303 2601 303 2601 246 2601 c 2,75,-1
 123 2601 l 1,0,-1
EndSplineSet
Substitution2: "'ss01' Style Set 1 in Latin lookup 15 subtable" N.001
Substitution2: "'swsh' Swash in Latin lookup 13 subtable" N.001
AlternateSubs2: "'aalt' Access All Alternates in Latin lookup 1 subtable" N.001
AlternateSubs2: "'aalt' Access All Alternates lookup 0 subtable" N.001
Position2: "'cpsp' Capital Spacing in Latin lookup 0 subtable" dx=33 dy=0 dh=66 dv=0
EndChar

StartChar: O
Encoding: 79 79 50
Width: 2981
GlyphClass: 2
Flags: W
LayerCount: 2
Fore
SplineSet
184 1217 m 0,0,1
 184 1437 184 1437 230.5 1642.5 c 128,-1,2
 277 1848 277 1848 363 2023.5 c 128,-1,3
 449 2199 449 2199 576 2345 c 128,-1,4
 703 2491 703 2491 858.5 2594 c 128,-1,5
 1014 2697 1014 2697 1205 2753.5 c 128,-1,6
 1396 2810 1396 2810 1606 2810 c 0,7,8
 1774 2810 1774 2810 1922.5 2774 c 128,-1,9
 2071 2738 2071 2738 2188 2673.5 c 128,-1,10
 2305 2609 2305 2609 2402 2518 c 128,-1,11
 2499 2427 2499 2427 2568 2317 c 128,-1,12
 2637 2207 2637 2207 2684.5 2080 c 128,-1,13
 2732 1953 2732 1953 2754.5 1818 c 128,-1,14
 2777 1683 2777 1683 2777 1540 c 0,15,16
 2777 1374 2777 1374 2746.5 1208.5 c 128,-1,17
 2716 1043 2716 1043 2653 885 c 128,-1,18
 2590 727 2590 727 2501 585 c 128,-1,19
 2412 443 2412 443 2289 323.5 c 128,-1,20
 2166 204 2166 204 2021 117.5 c 128,-1,21
 1876 31 1876 31 1695 -17.5 c 128,-1,22
 1514 -66 1514 -66 1315 -66 c 0,23,24
 1166 -66 1166 -66 1026.5 -32 c 128,-1,25
 887 2 887 2 760 69.5 c 128,-1,26
 633 137 633 137 528 244.5 c 128,-1,27
 423 352 423 352 346 490.5 c 128,-1,28
 269 629 269 629 226.5 815 c 128,-1,29
 184 1001 184 1001 184 1217 c 0,0,1
520 1303 m 0,30,31
 520 1062 520 1062 568.5 859.5 c 128,-1,32
 617 657 617 657 700.5 515 c 128,-1,33
 784 373 784 373 897 274 c 128,-1,34
 1010 175 1010 175 1138 128.5 c 128,-1,35
 1266 82 1266 82 1405 82 c 0,36,37
 1532 82 1532 82 1657 123.5 c 128,-1,38
 1782 165 1782 165 1897.5 243.5 c 128,-1,39
 2013 322 2013 322 2112 445 c 128,-1,40
 2211 568 2211 568 2284.5 722 c 128,-1,41
 2358 876 2358 876 2399.5 1078 c 128,-1,42
 2441 1280 2441 1280 2441 1507 c 0,43,44
 2441 1738 2441 1738 2392.5 1932 c 128,-1,45
 2344 2126 2344 2126 2261 2262 c 128,-1,46
 2178 2398 2178 2398 2065.5 2493.5 c 128,-1,47
 1953 2589 1953 2589 1825.5 2634 c 128,-1,48
 1698 2679 1698 2679 1561 2679 c 0,49,50
 1433 2679 1433 2679 1307.5 2639 c 128,-1,51
 1182 2599 1182 2599 1065.5 2523 c 128,-1,52
 949 2447 949 2447 850 2328.5 c 128,-1,53
 751 2210 751 2210 677 2061 c 128,-1,54
 603 1912 603 1912 561.5 1717 c 128,-1,55
 520 1522 520 1522 520 1303 c 0,30,31
EndSplineSet
Position2: "'cpsp' Capital Spacing in Latin lookup 0 subtable" dx=33 dy=0 dh=66 dv=0
EndChar

StartChar: P
Encoding: 80 80 51
Width: 2318
GlyphClass: 2
Flags: W
LayerCount: 2
Fore
SplineSet
82 0 m 1,0,-1
 82 131 l 1,1,-1
 172 131 l 2,2,3
 279 131 279 131 306.5 150 c 128,-1,4
 334 169 334 169 340 254 c 1,5,6
 447 1472 447 1472 521 2295 c 0,7,8
 541 2524 541 2524 541 2535 c 0,9,10
 541 2581 541 2581 504.5 2591 c 128,-1,11
 468 2601 468 2601 340 2601 c 2,12,-1
 221 2601 l 1,13,-1
 225 2732 l 1,14,-1
 1217 2732 l 2,15,16
 1698 2732 1698 2732 1946.5 2553 c 128,-1,17
 2195 2374 2195 2374 2195 2032 c 0,18,19
 2195 1872 2195 1872 2137 1729 c 128,-1,20
 2079 1586 2079 1586 1976.5 1477 c 128,-1,21
 1874 1368 1874 1368 1738 1288.5 c 128,-1,22
 1602 1209 1602 1209 1441 1167.5 c 128,-1,23
 1280 1126 1280 1126 1110 1126 c 0,24,25
 1015 1126 1015 1126 914 1136 c 128,-1,26
 813 1146 813 1146 759 1156 c 2,27,-1
 705 1167 l 1,28,-1
 635 365 l 2,29,30
 635 357 635 357 631 304 c 128,-1,31
 627 251 627 251 627 233 c 0,32,33
 627 179 627 179 646 155 c 128,-1,34
 665 131 665 131 713 131 c 2,35,-1
 1036 131 l 1,36,-1
 1028 0 l 1,37,-1
 82 0 l 1,0,-1
721 1278 m 1,38,39
 811 1257 811 1257 987 1257 c 0,40,41
 1136 1257 1136 1257 1261 1286.5 c 128,-1,42
 1386 1316 1386 1316 1472.5 1364.5 c 128,-1,43
 1559 1413 1559 1413 1626.5 1478.5 c 128,-1,44
 1694 1544 1694 1544 1733.5 1610.5 c 128,-1,45
 1773 1677 1773 1677 1799 1749 c 128,-1,46
 1825 1821 1825 1821 1834 1877 c 128,-1,47
 1843 1933 1843 1933 1843 1982 c 0,48,49
 1843 2075 1843 2075 1823 2154 c 128,-1,50
 1803 2233 1803 2233 1770 2291.5 c 128,-1,51
 1737 2350 1737 2350 1687 2397 c 128,-1,52
 1637 2444 1637 2444 1584.5 2476 c 128,-1,53
 1532 2508 1532 2508 1464.5 2531.5 c 128,-1,54
 1397 2555 1397 2555 1337 2568 c 128,-1,55
 1277 2581 1277 2581 1205.5 2589 c 128,-1,56
 1134 2597 1134 2597 1080 2599 c 128,-1,57
 1026 2601 1026 2601 963 2601 c 0,58,59
 879 2601 879 2601 854 2586.5 c 128,-1,60
 829 2572 829 2572 823 2507 c 2,61,-1
 721 1278 l 1,38,39
EndSplineSet
Substitution2: "'swsh' Swash in Latin lookup 13 subtable" P.001
AlternateSubs2: "'aalt' Access All Alternates in Latin lookup 1 subtable" P.001
AlternateSubs2: "'aalt' Access All Alternates lookup 0 subtable" P.001
Position2: "'cpsp' Capital Spacing in Latin lookup 0 subtable" dx=33 dy=0 dh=66 dv=0
EndChar

StartChar: Q
Encoding: 81 81 52
Width: 2916
GlyphClass: 2
Flags: W
LayerCount: 2
Fore
SplineSet
82 115 m 0,0,1
 82 144 82 144 102.5 168.5 c 128,-1,2
 123 193 123 193 152 193 c 0,3,4
 167 193 167 193 194.5 179.5 c 128,-1,5
 222 166 222 166 264 146.5 c 128,-1,6
 306 127 306 127 362.5 107.5 c 128,-1,7
 419 88 419 88 511 74.5 c 128,-1,8
 603 61 603 61 713 61 c 0,9,10
 949 61 949 61 1160.5 109 c 128,-1,11
 1372 157 1372 157 1538 242.5 c 128,-1,12
 1704 328 1704 328 1843 445 c 128,-1,13
 1982 562 1982 562 2080 700 c 128,-1,14
 2178 838 2178 838 2246.5 991 c 128,-1,15
 2315 1144 2315 1144 2347.5 1301 c 128,-1,16
 2380 1458 2380 1458 2380 1614 c 0,17,18
 2380 1788 2380 1788 2344.5 1936.5 c 128,-1,19
 2309 2085 2309 2085 2250 2190 c 128,-1,20
 2191 2295 2191 2295 2111 2379 c 128,-1,21
 2031 2463 2031 2463 1946.5 2514.5 c 128,-1,22
 1862 2566 1862 2566 1771 2600.5 c 128,-1,23
 1680 2635 1680 2635 1603.5 2648.5 c 128,-1,24
 1527 2662 1527 2662 1458 2662 c 0,25,26
 1301 2662 1301 2662 1154 2599 c 128,-1,27
 1007 2536 1007 2536 896 2426.5 c 128,-1,28
 785 2317 785 2317 718 2157 c 128,-1,29
 651 1997 651 1997 651 1815 c 0,30,31
 651 1716 651 1716 670 1623.5 c 128,-1,32
 689 1531 689 1531 733.5 1444 c 128,-1,33
 778 1357 778 1357 843 1292.5 c 128,-1,34
 908 1228 908 1228 1007.5 1189.5 c 128,-1,35
 1107 1151 1107 1151 1229 1151 c 0,36,37
 1302 1151 1302 1151 1357.5 1169 c 128,-1,38
 1413 1187 1413 1187 1442.5 1213 c 128,-1,39
 1472 1239 1472 1239 1493 1265 c 128,-1,40
 1514 1291 1514 1291 1531 1309 c 128,-1,41
 1548 1327 1548 1327 1565 1327 c 0,42,43
 1572 1327 1572 1327 1580.5 1324.5 c 128,-1,44
 1589 1322 1589 1322 1599.5 1310 c 128,-1,45
 1610 1298 1610 1298 1610 1278 c 0,46,47
 1610 1234 1610 1234 1570.5 1180 c 128,-1,48
 1531 1126 1531 1126 1465 1077.5 c 128,-1,49
 1399 1029 1399 1029 1297.5 996 c 128,-1,50
 1196 963 1196 963 1085 963 c 0,51,52
 949 963 949 963 818.5 1011 c 128,-1,53
 688 1059 688 1059 581.5 1147 c 128,-1,54
 475 1235 475 1235 409.5 1375 c 128,-1,55
 344 1515 344 1515 344 1683 c 0,56,57
 344 1792 344 1792 367.5 1904 c 128,-1,58
 391 2016 391 2016 440.5 2127 c 128,-1,59
 490 2238 490 2238 560.5 2338.5 c 128,-1,60
 631 2439 631 2439 730 2525 c 128,-1,61
 829 2611 829 2611 946 2674.5 c 128,-1,62
 1063 2738 1063 2738 1211.5 2774 c 128,-1,63
 1360 2810 1360 2810 1524 2810 c 0,64,65
 1651 2810 1651 2810 1774.5 2787.5 c 128,-1,66
 1898 2765 1898 2765 2016 2718 c 128,-1,67
 2134 2671 2134 2671 2238 2602.5 c 128,-1,68
 2342 2534 2342 2534 2429 2437 c 128,-1,69
 2516 2340 2516 2340 2579 2223.5 c 128,-1,70
 2642 2107 2642 2107 2677 1958 c 128,-1,71
 2712 1809 2712 1809 2712 1642 c 0,72,73
 2712 1437 2712 1437 2668 1250 c 128,-1,74
 2624 1063 2624 1063 2550 920 c 128,-1,75
 2476 777 2476 777 2380 651 c 128,-1,76
 2284 525 2284 525 2177.5 434.5 c 128,-1,77
 2071 344 2071 344 1964.5 269 c 128,-1,78
 1858 194 1858 194 1762 147 c 128,-1,79
 1666 100 1666 100 1592 67.5 c 128,-1,80
 1518 35 1518 35 1474 22 c 2,81,-1
 1430 8 l 1,82,83
 1450 -5 1450 -5 1485 -27 c 128,-1,84
 1520 -49 1520 -49 1627 -112 c 128,-1,85
 1734 -175 1734 -175 1838.5 -233 c 128,-1,86
 1943 -291 1943 -291 2084.5 -361 c 128,-1,87
 2226 -431 2226 -431 2348 -482 c 128,-1,88
 2470 -533 2470 -533 2594.5 -567.5 c 128,-1,89
 2719 -602 2719 -602 2806 -602 c 0,90,91
 2873 -602 2873 -602 2923 -588.5 c 128,-1,92
 2973 -575 2973 -575 2995 -559 c 128,-1,93
 3017 -543 3017 -543 3041.5 -529.5 c 128,-1,94
 3066 -516 3066 -516 3088 -516 c 128,-1,95
 3110 -516 3110 -516 3119.5 -533.5 c 128,-1,96
 3129 -551 3129 -551 3129 -569 c 0,97,98
 3129 -610 3129 -610 3088 -668 c 1,99,100
 3030 -745 3030 -745 2907.5 -802.5 c 128,-1,101
 2785 -860 2785 -860 2658 -860 c 0,102,103
 2476 -860 2476 -860 2254 -785 c 128,-1,104
 2032 -710 2032 -710 1827 -582 c 0,105,106
 1638 -464 1638 -464 1439 -332.5 c 128,-1,107
 1240 -201 1240 -201 1136 -129 c 2,108,-1
 1032 -57 l 1,109,110
 877 -86 877 -86 713 -86 c 0,111,112
 610 -86 610 -86 503 -73.5 c 128,-1,113
 396 -61 396 -61 300 -38 c 128,-1,114
 204 -15 204 -15 143 25 c 128,-1,115
 82 65 82 65 82 115 c 0,0,1
EndSplineSet
Position2: "'cpsp' Capital Spacing in Latin lookup 0 subtable" dx=33 dy=0 dh=66 dv=0
EndChar

StartChar: R
Encoding: 82 82 53
Width: 2613
GlyphClass: 2
Flags: W
LayerCount: 2
Fore
SplineSet
78 0 m 1,0,-1
 82 131 l 1,1,-1
 201 131 l 2,2,3
 308 131 308 131 335.5 150 c 128,-1,4
 363 169 363 169 369 254 c 0,5,6
 451 1426 451 1426 510 2265 c 0,7,8
 528 2523 528 2523 528 2531 c 0,9,10
 528 2548 528 2548 525.5 2559 c 128,-1,11
 523 2570 523 2570 513 2578.5 c 128,-1,12
 503 2587 503 2587 491 2591 c 128,-1,13
 479 2595 479 2595 451.5 2597.5 c 128,-1,14
 424 2600 424 2600 395.5 2600.5 c 128,-1,15
 367 2601 367 2601 315 2601 c 2,16,-1
 193 2601 l 1,17,-1
 193 2732 l 1,18,-1
 1200 2732 l 2,19,20
 1349 2732 1349 2732 1477 2708.5 c 128,-1,21
 1605 2685 1605 2685 1699.5 2644 c 128,-1,22
 1794 2603 1794 2603 1869.5 2546 c 128,-1,23
 1945 2489 1945 2489 1994.5 2424.5 c 128,-1,24
 2044 2360 2044 2360 2077 2286 c 128,-1,25
 2110 2212 2110 2212 2124 2140.5 c 128,-1,26
 2138 2069 2138 2069 2138 1995 c 0,27,28
 2138 1942 2138 1942 2131.5 1891.5 c 128,-1,29
 2125 1841 2125 1841 2104.5 1778.5 c 128,-1,30
 2084 1716 2084 1716 2051.5 1660.5 c 128,-1,31
 2019 1605 2019 1605 1962.5 1547.5 c 128,-1,32
 1906 1490 1906 1490 1831.5 1444.5 c 128,-1,33
 1757 1399 1757 1399 1649 1361 c 128,-1,34
 1541 1323 1541 1323 1409 1303 c 1,35,-1
 2130 303 l 2,36,37
 2159 263 2159 263 2179 238.5 c 128,-1,38
 2199 214 2199 214 2231.5 186 c 128,-1,39
 2264 158 2264 158 2302.5 144.5 c 128,-1,40
 2341 131 2341 131 2388 131 c 2,41,-1
 2572 131 l 1,42,-1
 2564 0 l 1,43,-1
 1892 0 l 1,44,45
 1794 123 1794 123 1683 295 c 128,-1,46
 1572 467 1572 467 1496.5 598 c 128,-1,47
 1421 729 1421 729 1295.5 952 c 128,-1,48
 1170 1175 1170 1175 1110 1278 c 1,49,-1
 1053 1278 l 2,50,51
 982 1278 982 1278 901 1285 c 128,-1,52
 820 1292 820 1292 774 1300 c 2,53,-1
 729 1307 l 1,54,-1
 659 283 l 2,55,56
 659 270 659 270 657 244 c 128,-1,57
 655 218 655 218 655 205 c 0,58,59
 655 169 655 169 673 150 c 128,-1,60
 691 131 691 131 745 131 c 2,61,-1
 1090 131 l 1,62,-1
 1081 0 l 1,63,-1
 78 0 l 1,0,-1
737 1409 m 1,64,65
 848 1393 848 1393 995 1393 c 0,66,67
 1203 1393 1203 1393 1343 1420.5 c 128,-1,68
 1483 1448 1483 1448 1585 1528 c 0,69,70
 1682 1604 1682 1604 1738 1725 c 128,-1,71
 1794 1846 1794 1846 1794 1974 c 0,72,73
 1794 2104 1794 2104 1738.5 2217 c 128,-1,74
 1683 2330 1683 2330 1579 2416 c 128,-1,75
 1475 2502 1475 2502 1312.5 2551.5 c 128,-1,76
 1150 2601 1150 2601 950 2601 c 0,77,78
 877 2601 877 2601 847.5 2591 c 128,-1,79
 818 2581 818 2581 815 2544 c 2,80,-1
 737 1409 l 1,64,65
EndSplineSet
Substitution2: "'swsh' Swash in Latin lookup 13 subtable" R.001
AlternateSubs2: "'aalt' Access All Alternates in Latin lookup 1 subtable" R.001
AlternateSubs2: "'aalt' Access All Alternates lookup 0 subtable" R.001
Position2: "'cpsp' Capital Spacing in Latin lookup 0 subtable" dx=33 dy=0 dh=66 dv=0
EndChar

StartChar: S
Encoding: 83 83 54
Width: 1916
GlyphClass: 2
Flags: W
LayerCount: 2
Fore
SplineSet
41 717 m 1,0,-1
 156 737 l 1,1,-1
 197 459 l 2,2,3
 212 357 212 357 264.5 293 c 128,-1,4
 317 229 317 229 426 184 c 1,5,6
 622 98 622 98 803 98 c 0,7,8
 928 98 928 98 1031.5 142 c 128,-1,9
 1135 186 1135 186 1202.5 261 c 128,-1,10
 1270 336 1270 336 1306.5 433.5 c 128,-1,11
 1343 531 1343 531 1343 639 c 0,12,13
 1343 698 1343 698 1331 753 c 128,-1,14
 1319 808 1319 808 1300.5 851.5 c 128,-1,15
 1282 895 1282 895 1249.5 940.5 c 128,-1,16
 1217 986 1217 986 1186.5 1020 c 128,-1,17
 1156 1054 1156 1054 1109.5 1096 c 128,-1,18
 1063 1138 1063 1138 1026.5 1167.5 c 128,-1,19
 990 1197 990 1197 935.5 1242 c 128,-1,20
 881 1287 881 1287 844 1319 c 2,21,-1
 643 1491 l 2,22,23
 577 1547 577 1547 517.5 1615.5 c 128,-1,24
 458 1684 458 1684 404.5 1768.5 c 128,-1,25
 351 1853 351 1853 319 1953.5 c 128,-1,26
 287 2054 287 2054 287 2154 c 0,27,28
 287 2277 287 2277 343.5 2393 c 128,-1,29
 400 2509 400 2509 498 2596.5 c 128,-1,30
 596 2684 596 2684 736.5 2736.5 c 128,-1,31
 877 2789 877 2789 1036 2789 c 0,32,33
 1130 2789 1130 2789 1237.5 2767.5 c 128,-1,34
 1345 2746 1345 2746 1416.5 2724.5 c 128,-1,35
 1488 2703 1488 2703 1495 2703 c 0,36,37
 1530 2703 1530 2703 1543 2721.5 c 128,-1,38
 1556 2740 1556 2740 1556 2785 c 2,39,-1
 1556 2814 l 1,40,-1
 1667 2814 l 1,41,-1
 1712 2175 l 1,42,-1
 1597 2167 l 1,43,-1
 1581 2388 l 1,44,45
 1572 2398 1572 2398 1555 2414.5 c 128,-1,46
 1538 2431 1538 2431 1482 2473.5 c 128,-1,47
 1426 2516 1426 2516 1365 2548.5 c 128,-1,48
 1304 2581 1304 2581 1211 2607.5 c 128,-1,49
 1118 2634 1118 2634 1024 2634 c 0,50,51
 895 2634 895 2634 794.5 2591.5 c 128,-1,52
 694 2549 694 2549 633.5 2459.5 c 128,-1,53
 573 2370 573 2370 573 2245 c 0,54,55
 573 2201 573 2201 580.5 2158.5 c 128,-1,56
 588 2116 588 2116 598.5 2080.5 c 128,-1,57
 609 2045 609 2045 631.5 2005.5 c 128,-1,58
 654 1966 654 1966 671.5 1937.5 c 128,-1,59
 689 1909 689 1909 723 1870.5 c 128,-1,60
 757 1832 757 1832 778.5 1809 c 128,-1,61
 800 1786 800 1786 843.5 1747 c 128,-1,62
 887 1708 887 1708 909.5 1688 c 128,-1,63
 932 1668 932 1668 981.5 1626 c 128,-1,64
 1031 1584 1031 1584 1053 1565 c 2,65,-1
 1196 1442 l 2,66,67
 1199 1440 1199 1440 1254 1393.5 c 128,-1,68
 1309 1347 1309 1347 1346 1313.5 c 128,-1,69
 1383 1280 1383 1280 1442.5 1210.5 c 128,-1,70
 1502 1141 1502 1141 1539.5 1076.5 c 128,-1,71
 1577 1012 1577 1012 1605.5 920.5 c 128,-1,72
 1634 829 1634 829 1634 737 c 0,73,74
 1634 663 1634 663 1617 586.5 c 128,-1,75
 1600 510 1600 510 1564.5 433.5 c 128,-1,76
 1529 357 1529 357 1477.5 286.5 c 128,-1,77
 1426 216 1426 216 1354 155.5 c 128,-1,78
 1282 95 1282 95 1196 50.5 c 128,-1,79
 1110 6 1110 6 1000.5 -19.5 c 128,-1,80
 891 -45 891 -45 770 -45 c 0,81,82
 680 -45 680 -45 602 -35.5 c 128,-1,83
 524 -26 524 -26 482 -14.5 c 128,-1,84
 440 -3 440 -3 398 6.5 c 128,-1,85
 356 16 356 16 328 16 c 0,86,87
 284 16 284 16 273 6.5 c 128,-1,88
 262 -3 262 -3 262 -33 c 1,89,-1
 270 -160 l 1,90,-1
 156 -164 l 1,91,92
 125 155 125 155 106 305 c 128,-1,93
 87 455 87 455 41 717 c 1,0,-1
EndSplineSet
Position2: "'cpsp' Capital Spacing in Latin lookup 0 subtable" dx=33 dy=0 dh=66 dv=0
EndChar

StartChar: T
Encoding: 84 84 55
Width: 2527
GlyphClass: 2
Flags: W
LayerCount: 2
Fore
SplineSet
41 2081 m 1,0,1
 111 2499 111 2499 143 2732 c 1,2,-1
 2507 2732 l 1,3,4
 2497 2663 2497 2663 2476.5 2531.5 c 128,-1,5
 2456 2400 2456 2400 2441 2290.5 c 128,-1,6
 2426 2181 2426 2181 2417 2085 c 1,7,-1
 2269 2089 l 1,8,9
 2310 2371 2310 2371 2310 2437 c 0,10,11
 2310 2465 2310 2465 2306.5 2484 c 128,-1,12
 2303 2503 2303 2503 2292.5 2516 c 128,-1,13
 2282 2529 2282 2529 2271 2536 c 128,-1,14
 2260 2543 2260 2543 2235 2546.5 c 128,-1,15
 2210 2550 2210 2550 2188.5 2551 c 128,-1,16
 2167 2552 2167 2552 2126 2552 c 2,17,-1
 1655 2552 l 2,18,19
 1494 2552 1494 2552 1465 2537.5 c 128,-1,20
 1436 2523 1436 2523 1430 2437 c 2,21,-1
 1286 324 l 2,22,23
 1286 316 1286 316 1284 286 c 128,-1,24
 1282 256 1282 256 1282 246 c 0,25,26
 1282 218 1282 218 1282.5 206 c 128,-1,27
 1283 194 1283 194 1286.5 177 c 128,-1,28
 1290 160 1290 160 1296.5 154 c 128,-1,29
 1303 148 1303 148 1316 141 c 128,-1,30
 1329 134 1329 134 1348.5 132.5 c 128,-1,31
 1368 131 1368 131 1397 131 c 2,32,-1
 1667 131 l 1,33,-1
 1659 0 l 1,34,-1
 606 0 l 1,35,-1
 606 131 l 1,36,-1
 823 131 l 2,37,38
 930 131 930 131 957.5 150 c 128,-1,39
 985 169 985 169 991 254 c 2,40,-1
 1143 2417 l 2,41,42
 1143 2422 1143 2422 1145 2448.5 c 128,-1,43
 1147 2475 1147 2475 1147 2486 c 0,44,45
 1147 2525 1147 2525 1109 2538.5 c 128,-1,46
 1071 2552 1071 2552 971 2552 c 2,47,-1
 459 2552 l 2,48,49
 405 2552 405 2552 372.5 2547 c 128,-1,50
 340 2542 340 2542 312.5 2522.5 c 128,-1,51
 285 2503 285 2503 270.5 2476 c 128,-1,52
 256 2449 256 2449 241.5 2392.5 c 128,-1,53
 227 2336 227 2336 216.5 2269 c 128,-1,54
 206 2202 206 2202 190 2093 c 0,55,56
 189 2082 189 2082 188 2077 c 1,57,-1
 41 2081 l 1,0,1
EndSplineSet
Substitution2: "'ss01' Style Set 1 in Latin lookup 15 subtable" T.001
AlternateSubs2: "'swsh' Swash in Latin lookup 14 subtable" T.002 T.001
AlternateSubs2: "'aalt' Access All Alternates in Latin lookup 1 subtable" T.001 T.002
AlternateSubs2: "'aalt' Access All Alternates lookup 0 subtable" T.001 T.002
Position2: "'cpsp' Capital Spacing in Latin lookup 0 subtable" dx=33 dy=0 dh=66 dv=0
EndChar

StartChar: U
Encoding: 85 85 56
Width: 2863
GlyphClass: 2
Flags: W
LayerCount: 2
Fore
SplineSet
123 2601 m 1,0,-1
 127 2732 l 1,1,-1
 1114 2732 l 1,2,-1
 1106 2601 l 1,3,-1
 913 2601 l 2,4,5
 870 2601 870 2601 850 2598.5 c 128,-1,6
 830 2596 830 2596 810.5 2583.5 c 128,-1,7
 791 2571 791 2571 783 2545.5 c 128,-1,8
 775 2520 775 2520 770 2474 c 1,9,10
 639 831 639 831 639 643 c 0,11,12
 639 559 639 559 652 485.5 c 128,-1,13
 665 412 665 412 701.5 337.5 c 128,-1,14
 738 263 738 263 795.5 210 c 128,-1,15
 853 157 853 157 949.5 123.5 c 128,-1,16
 1046 90 1046 90 1171 90 c 0,17,18
 1642 90 1642 90 1872 459 c 0,19,20
 1915 528 1915 528 1945.5 606.5 c 128,-1,21
 1976 685 1976 685 1991 764 c 128,-1,22
 2006 843 2006 843 2013 894.5 c 128,-1,23
 2020 946 2020 946 2024 1012 c 128,-1,24
 2028 1078 2028 1078 2028 1081 c 2,25,-1
 2130 2400 l 1,26,27
 2134 2433 2134 2433 2134 2511 c 0,28,29
 2134 2567 2134 2567 2104.5 2584 c 128,-1,30
 2075 2601 2075 2601 1974 2601 c 2,31,-1
 1765 2601 l 1,32,-1
 1769 2732 l 1,33,-1
 2740 2732 l 1,34,-1
 2740 2601 l 1,35,-1
 2560 2601 l 2,36,37
 2528 2601 2528 2601 2511.5 2598.5 c 128,-1,38
 2495 2596 2495 2596 2476.5 2584.5 c 128,-1,39
 2458 2573 2458 2573 2449 2547 c 128,-1,40
 2440 2521 2440 2521 2437 2478 c 0,41,42
 2395 1878 2395 1878 2360 1418 c 128,-1,43
 2325 958 2325 958 2310.5 792.5 c 128,-1,44
 2296 627 2296 627 2288.5 518.5 c 128,-1,45
 2281 410 2281 410 2281 332 c 0,46,47
 2281 245 2281 245 2297.5 219 c 128,-1,48
 2314 193 2314 193 2347 193 c 0,49,50
 2370 193 2370 193 2419 215 c 128,-1,51
 2468 237 2468 237 2569 290 c 0,52,53
 2590 301 2590 301 2601 307 c 1,54,-1
 2646 205 l 1,55,56
 2590 173 2590 173 2503 126 c 128,-1,57
 2416 79 2416 79 2249.5 0.5 c 128,-1,58
 2083 -78 2083 -78 2036 -78 c 0,59,60
 2002 -78 2002 -78 1988 -57.5 c 128,-1,61
 1974 -37 1974 -37 1974 12 c 0,62,63
 1974 28 1974 28 1975.5 60.5 c 128,-1,64
 1977 93 1977 93 1981.5 195.5 c 128,-1,65
 1986 298 1986 298 1991 438 c 1,66,67
 1964 360 1964 360 1888 251.5 c 128,-1,68
 1812 143 1812 143 1716 74 c 0,69,70
 1485 -90 1485 -90 1139 -90 c 0,71,72
 1012 -90 1012 -90 910 -79.5 c 128,-1,73
 808 -69 808 -69 728 -45.5 c 128,-1,74
 648 -22 648 -22 588 10 c 128,-1,75
 528 42 528 42 484 89.5 c 128,-1,76
 440 137 440 137 411.5 191 c 128,-1,77
 383 245 383 245 366.5 318 c 128,-1,78
 350 391 350 391 343 468 c 128,-1,79
 336 545 336 545 336 643 c 0,80,81
 336 751 336 751 401.5 1584.5 c 128,-1,82
 467 2418 467 2418 467 2470 c 0,83,84
 467 2533 467 2533 457.5 2559.5 c 128,-1,85
 448 2586 448 2586 426 2593.5 c 128,-1,86
 404 2601 404 2601 348 2601 c 2,87,-1
 123 2601 l 1,0,-1
EndSplineSet
Position2: "'cpsp' Capital Spacing in Latin lookup 0 subtable" dx=33 dy=0 dh=66 dv=0
EndChar

StartChar: V
Encoding: 86 86 57
Width: 2592
GlyphClass: 2
Flags: W
LayerCount: 2
Fore
SplineSet
41 2601 m 1,0,-1
 45 2732 l 1,1,-1
 999 2732 l 1,2,-1
 999 2601 l 1,3,-1
 811 2601 l 2,4,5
 744 2601 744 2601 720 2591 c 128,-1,6
 696 2581 696 2581 696 2548 c 0,7,8
 696 2528 696 2528 725 2408 c 1,9,-1
 1217 467 l 1,10,-1
 2056 2458 l 1,11,12
 2068 2483 2068 2483 2068 2531 c 0,13,14
 2068 2574 2068 2574 2025 2587.5 c 128,-1,15
 1982 2601 1982 2601 1876 2601 c 2,16,-1
 1741 2601 l 1,17,-1
 1741 2732 l 1,18,-1
 2552 2732 l 1,19,-1
 2544 2601 l 1,20,-1
 2454 2601 l 2,21,22
 2428 2601 2428 2601 2407.5 2598.5 c 128,-1,23
 2387 2596 2387 2596 2368 2586 c 128,-1,24
 2349 2576 2349 2576 2336 2568 c 128,-1,25
 2323 2560 2323 2560 2307 2538 c 128,-1,26
 2291 2516 2291 2516 2281 2500 c 128,-1,27
 2271 2484 2271 2484 2253.5 2447 c 128,-1,28
 2236 2410 2236 2410 2225 2384 c 128,-1,29
 2214 2358 2214 2358 2190.5 2304.5 c 128,-1,30
 2167 2251 2167 2251 2150 2212 c 2,31,-1
 1139 -61 l 1,32,-1
 1049 -61 l 1,33,-1
 406 2335 l 2,34,35
 390 2393 390 2393 382.5 2422.5 c 128,-1,36
 375 2452 375 2452 363 2486.5 c 128,-1,37
 351 2521 351 2521 345.5 2535 c 128,-1,38
 340 2549 340 2549 326.5 2566 c 128,-1,39
 313 2583 313 2583 305.5 2586.5 c 128,-1,40
 298 2590 298 2590 278.5 2595.5 c 128,-1,41
 259 2601 259 2601 244.5 2601 c 128,-1,42
 230 2601 230 2601 201 2601 c 2,43,-1
 41 2601 l 1,0,-1
EndSplineSet
Position2: "'cpsp' Capital Spacing in Latin lookup 0 subtable" dx=33 dy=0 dh=66 dv=0
EndChar

StartChar: W
Encoding: 87 87 58
Width: 4087
GlyphClass: 2
Flags: W
LayerCount: 2
Fore
SplineSet
41 2601 m 1,0,-1
 45 2732 l 1,1,-1
 1008 2732 l 1,2,-1
 999 2601 l 1,3,-1
 791 2601 l 2,4,5
 724 2601 724 2601 700 2591 c 128,-1,6
 676 2581 676 2581 676 2548 c 0,7,8
 676 2528 676 2528 705 2408 c 1,9,-1
 1208 467 l 1,10,-1
 1946 2212 l 1,11,-1
 1917 2339 l 2,12,13
 1906 2388 1906 2388 1896.5 2425.5 c 128,-1,14
 1887 2463 1887 2463 1875 2490.5 c 128,-1,15
 1863 2518 1863 2518 1854 2537 c 128,-1,16
 1845 2556 1845 2556 1830 2568.5 c 128,-1,17
 1815 2581 1815 2581 1805.5 2587.5 c 128,-1,18
 1796 2594 1796 2594 1775.5 2597 c 128,-1,19
 1755 2600 1755 2600 1743 2600.5 c 128,-1,20
 1731 2601 1731 2601 1704 2601 c 2,21,-1
 1544 2601 l 1,22,-1
 1548 2732 l 1,23,-1
 2523 2732 l 1,24,-1
 2515 2601 l 1,25,-1
 2302 2601 l 2,26,27
 2235 2601 2235 2601 2211 2591 c 128,-1,28
 2187 2581 2187 2581 2187 2548 c 0,29,30
 2187 2528 2187 2528 2216 2408 c 1,31,-1
 2707 467 l 1,32,-1
 3523 2425 l 2,33,34
 3530 2443 3530 2443 3542.5 2486 c 128,-1,35
 3555 2529 3555 2529 3555 2540 c 0,36,37
 3555 2576 3555 2576 3526.5 2588.5 c 128,-1,38
 3498 2601 3498 2601 3445 2601 c 2,39,-1
 3203 2601 l 1,40,-1
 3203 2732 l 1,41,-1
 4047 2732 l 1,42,-1
 4039 2601 l 1,43,-1
 3928 2601 l 2,44,45
 3828 2601 3828 2601 3796 2566.5 c 128,-1,46
 3764 2532 3764 2532 3682 2342 c 0,47,48
 3647 2262 3647 2262 3625 2212 c 2,49,-1
 2630 -61 l 1,50,-1
 2540 -61 l 1,51,-1
 2015 1954 l 1,52,-1
 1130 -61 l 1,53,-1
 1040 -61 l 1,54,-1
 397 2335 l 2,55,56
 381 2394 381 2394 373.5 2422.5 c 128,-1,57
 366 2451 366 2451 354 2486.5 c 128,-1,58
 342 2522 342 2522 336.5 2535 c 128,-1,59
 331 2548 331 2548 317.5 2565.5 c 128,-1,60
 304 2583 304 2583 296.5 2586.5 c 128,-1,61
 289 2590 289 2590 270 2595.5 c 128,-1,62
 251 2601 251 2601 236.5 2601 c 128,-1,63
 222 2601 222 2601 193 2601 c 2,64,-1
 41 2601 l 1,0,-1
EndSplineSet
Position2: "'cpsp' Capital Spacing in Latin lookup 0 subtable" dx=33 dy=0 dh=66 dv=0
EndChar

StartChar: X
Encoding: 88 88 59
Width: 2928
GlyphClass: 2
Flags: W
LayerCount: 2
Fore
SplineSet
61 160 m 0,0,1
 61 234 61 234 103 289 c 128,-1,2
 145 344 145 344 213 344 c 0,3,4
 233 344 233 344 239.5 330.5 c 128,-1,5
 246 317 246 317 246.5 297.5 c 128,-1,6
 247 278 247 278 250.5 259 c 128,-1,7
 254 240 254 240 276 226.5 c 128,-1,8
 298 213 298 213 340 213 c 0,9,10
 422 213 422 213 523.5 275.5 c 128,-1,11
 625 338 625 338 722 437.5 c 128,-1,12
 819 537 819 537 917 657.5 c 128,-1,13
 1015 778 1015 778 1097 898.5 c 128,-1,14
 1179 1019 1179 1019 1243.5 1118.5 c 128,-1,15
 1308 1218 1308 1218 1344 1280 c 2,16,-1
 1380 1343 l 1,17,18
 1356 1395 1356 1395 1312.5 1491.5 c 128,-1,19
 1269 1588 1269 1588 1236 1659.5 c 128,-1,20
 1203 1731 1203 1731 1156 1830.5 c 128,-1,21
 1109 1930 1109 1930 1069.5 2005 c 128,-1,22
 1030 2080 1030 2080 982 2164 c 128,-1,23
 934 2248 934 2248 890.5 2307.5 c 128,-1,24
 847 2367 847 2367 801 2417.5 c 128,-1,25
 755 2468 755 2468 710 2493.5 c 128,-1,26
 665 2519 665 2519 623 2519 c 0,27,28
 548 2519 548 2519 483 2440 c 128,-1,29
 418 2361 418 2361 418 2232 c 0,30,31
 418 2094 418 2094 483 1966 c 0,32,33
 499 1935 499 1935 492.5 1909.5 c 128,-1,34
 486 1884 486 1884 459 1884 c 0,35,36
 426 1884 426 1884 406 1921 c 1,37,38
 307 2089 307 2089 307 2281 c 0,39,40
 307 2415 307 2415 357.5 2527.5 c 128,-1,41
 408 2640 408 2640 499.5 2706.5 c 128,-1,42
 591 2773 591 2773 705 2773 c 0,43,44
 836 2773 836 2773 970.5 2671 c 128,-1,45
 1105 2569 1105 2569 1225 2355 c 0,46,47
 1376 2087 1376 2087 1581 1642 c 1,48,49
 1598 1670 1598 1670 1636 1733 c 0,50,51
 1848 2081 1848 2081 1983 2261 c 0,52,53
 2369 2777 2369 2777 2683 2777 c 0,54,55
 2773 2777 2773 2777 2820 2734 c 128,-1,56
 2867 2691 2867 2691 2867 2630 c 0,57,58
 2867 2577 2867 2577 2829 2538 c 128,-1,59
 2791 2499 2791 2499 2724 2499 c 0,60,61
 2707 2499 2707 2499 2696.5 2512.5 c 128,-1,62
 2686 2526 2686 2526 2680.5 2542 c 128,-1,63
 2675 2558 2675 2558 2657 2571.5 c 128,-1,64
 2639 2585 2639 2585 2609 2585 c 0,65,66
 2547 2585 2547 2585 2461 2524 c 128,-1,67
 2375 2463 2375 2463 2287 2365.5 c 128,-1,68
 2199 2268 2199 2268 2107 2150 c 128,-1,69
 2015 2032 2015 2032 1935 1914 c 128,-1,70
 1855 1796 1855 1796 1791.5 1698.5 c 128,-1,71
 1728 1601 1728 1601 1692 1540 c 2,72,-1
 1655 1479 l 1,73,74
 2047 653 2047 653 2187 385 c 1,75,76
 2281 209 2281 209 2380 209 c 0,77,78
 2446 209 2446 209 2507.5 289.5 c 128,-1,79
 2569 370 2569 370 2593 463 c 1,80,-1
 2596 476 l 2,81,82
 2598 488 2598 488 2599 490.5 c 128,-1,83
 2600 493 2600 493 2603 504.5 c 128,-1,84
 2606 516 2606 516 2608 519.5 c 128,-1,85
 2610 523 2610 523 2614.5 532 c 128,-1,86
 2619 541 2619 541 2623.5 544.5 c 128,-1,87
 2628 548 2628 548 2634.5 552.5 c 128,-1,88
 2641 557 2641 557 2649 559 c 128,-1,89
 2657 561 2657 561 2666 561 c 0,90,91
 2720 561 2720 561 2720 463 c 1,92,93
 2715 347 2715 347 2675.5 254.5 c 128,-1,94
 2636 162 2636 162 2583 110.5 c 128,-1,95
 2530 59 2530 59 2466 24.5 c 128,-1,96
 2402 -10 2402 -10 2354.5 -21.5 c 128,-1,97
 2307 -33 2307 -33 2273 -33 c 0,98,99
 2139 -33 2139 -33 2041 61 c 0,100,101
 1945 154 1945 154 1817 407 c 0,102,103
 1756 528 1756 528 1604 857 c 0,104,105
 1511 1057 1511 1057 1458 1171 c 1,106,107
 1338 946 1338 946 1219.5 761.5 c 128,-1,108
 1101 577 1101 577 1002 453.5 c 128,-1,109
 903 330 903 330 805 237 c 128,-1,110
 707 144 707 144 631.5 92.5 c 128,-1,111
 556 41 556 41 482 9.5 c 128,-1,112
 408 -22 408 -22 359 -31.5 c 128,-1,113
 310 -41 310 -41 262 -41 c 0,114,115
 165 -41 165 -41 113 19 c 128,-1,116
 61 79 61 79 61 160 c 0,0,1
EndSplineSet
Position2: "'cpsp' Capital Spacing in Latin lookup 0 subtable" dx=33 dy=0 dh=66 dv=0
EndChar

StartChar: Y
Encoding: 89 89 60
Width: 2383
GlyphClass: 2
Flags: W
LayerCount: 2
Fore
SplineSet
41 2601 m 1,0,-1
 45 2732 l 1,1,-1
 946 2732 l 1,2,-1
 934 2601 l 1,3,-1
 815 2601 l 2,4,5
 739 2601 739 2601 707.5 2589.5 c 128,-1,6
 676 2578 676 2578 676 2540 c 0,7,8
 676 2490 676 2490 785 2262 c 0,9,10
 788 2255 788 2255 789.5 2251.5 c 128,-1,11
 791 2248 791 2248 794 2242.5 c 128,-1,12
 797 2237 797 2237 799 2232 c 2,13,-1
 1163 1487 l 1,14,-1
 1737 2421 l 2,15,16
 1790 2506 1790 2506 1790 2548 c 0,17,18
 1790 2582 1790 2582 1757 2591.5 c 128,-1,19
 1724 2601 1724 2601 1647 2601 c 2,20,-1
 1544 2601 l 1,21,-1
 1544 2732 l 1,22,-1
 2343 2732 l 1,23,-1
 2339 2601 l 1,24,-1
 2212 2601 l 2,25,26
 2168 2601 2168 2601 2142 2594 c 128,-1,27
 2116 2587 2116 2587 2077 2556.5 c 128,-1,28
 2038 2526 2038 2526 1991.5 2464.5 c 128,-1,29
 1945 2403 1945 2403 1872 2294 c 1,30,-1
 1233 1319 l 1,31,-1
 1167 319 l 1,32,33
 1167 301 1167 301 1165 263 c 128,-1,34
 1163 225 1163 225 1163 217 c 0,35,36
 1163 189 1163 189 1172.5 171 c 128,-1,37
 1182 153 1182 153 1203 144.5 c 128,-1,38
 1224 136 1224 136 1246 133.5 c 128,-1,39
 1268 131 1268 131 1303 131 c 2,40,-1
 1511 131 l 1,41,-1
 1507 0 l 1,42,-1
 442 0 l 1,43,-1
 451 131 l 1,44,-1
 635 131 l 2,45,46
 761 131 761 131 798 162.5 c 128,-1,47
 835 194 835 194 844 311 c 2,48,-1
 913 1303 l 1,49,-1
 340 2462 l 2,50,51
 295 2553 295 2553 261 2577 c 128,-1,52
 227 2601 227 2601 147 2601 c 2,53,-1
 41 2601 l 1,0,-1
EndSplineSet
Position2: "'cpsp' Capital Spacing in Latin lookup 0 subtable" dx=33 dy=0 dh=66 dv=0
EndChar

StartChar: Z
Encoding: 90 90 61
Width: 2629
GlyphClass: 2
Flags: W
LayerCount: 2
Fore
SplineSet
0 -29 m 0,0,1
 0 15 0 15 188 233 c 1,2,-1
 1286 1475 l 1,3,-1
 950 1475 l 1,4,-1
 963 1606 l 1,5,-1
 1401 1606 l 1,6,-1
 2154 2458 l 1,7,8
 1970 2437 1970 2437 1765 2437 c 0,9,10
 1620 2437 1620 2437 1462.5 2456 c 128,-1,11
 1305 2475 1305 2475 1192 2498.5 c 128,-1,12
 1079 2522 1079 2522 948.5 2541 c 128,-1,13
 818 2560 818 2560 721 2560 c 0,14,15
 621 2560 621 2560 539.5 2526 c 128,-1,16
 458 2492 458 2492 409 2438 c 128,-1,17
 360 2384 360 2384 333.5 2322.5 c 128,-1,18
 307 2261 307 2261 307 2200 c 0,19,20
 307 2128 307 2128 356 2070 c 128,-1,21
 405 2012 405 2012 474.5 1983 c 128,-1,22
 544 1954 544 1954 614 1954 c 0,23,24
 660 1954 660 1954 691 1968 c 128,-1,25
 722 1982 722 1982 737 2002 c 128,-1,26
 752 2022 752 2022 762 2041.5 c 128,-1,27
 772 2061 772 2061 783.5 2075 c 128,-1,28
 795 2089 795 2089 811 2089 c 0,29,30
 830 2089 830 2089 845 2066.5 c 128,-1,31
 860 2044 860 2044 860 2011 c 0,32,33
 860 1879 860 1879 772.5 1804 c 128,-1,34
 685 1729 685 1729 561 1729 c 0,35,36
 514 1729 514 1729 465.5 1741.5 c 128,-1,37
 417 1754 417 1754 366.5 1785.5 c 128,-1,38
 316 1817 316 1817 277 1863.5 c 128,-1,39
 238 1910 238 1910 213 1984 c 128,-1,40
 188 2058 188 2058 188 2150 c 0,41,42
 188 2241 188 2241 211.5 2332 c 128,-1,43
 235 2423 235 2423 287 2509.5 c 128,-1,44
 339 2596 339 2596 412.5 2662.5 c 128,-1,45
 486 2729 486 2729 596 2769.5 c 128,-1,46
 706 2810 706 2810 836 2810 c 0,47,48
 949 2810 949 2810 1086.5 2789.5 c 128,-1,49
 1224 2769 1224 2769 1343 2744.5 c 128,-1,50
 1462 2720 1462 2720 1663 2699.5 c 128,-1,51
 1864 2679 1864 2679 2089 2679 c 0,52,53
 2295 2679 2295 2679 2367 2724 c 0,54,55
 2414 2754 2414 2754 2449.5 2788 c 128,-1,56
 2485 2822 2485 2822 2502 2836.5 c 128,-1,57
 2519 2851 2519 2851 2540 2851 c 0,58,59
 2557 2851 2557 2851 2573 2840 c 128,-1,60
 2589 2829 2589 2829 2589 2802 c 0,61,62
 2589 2786 2589 2786 2581.5 2769.5 c 128,-1,63
 2574 2753 2574 2753 2566.5 2742 c 128,-1,64
 2559 2731 2559 2731 2540 2707 c 1,65,-1
 1585 1606 l 1,66,-1
 1925 1606 l 1,67,-1
 1917 1475 l 1,68,-1
 1470 1475 l 1,69,-1
 483 332 l 1,70,71
 668 356 668 356 758 356 c 0,72,73
 904 356 904 356 1353 307 c 128,-1,74
 1802 258 1802 258 1954 258 c 0,75,76
 2062 258 2062 258 2149.5 290 c 128,-1,77
 2237 322 2237 322 2291.5 371.5 c 128,-1,78
 2346 421 2346 421 2383 484 c 128,-1,79
 2420 547 2420 547 2434.5 606.5 c 128,-1,80
 2449 666 2449 666 2449 721 c 0,81,82
 2449 755 2449 755 2441 795 c 1,83,-1
 2511 815 l 1,84,85
 2548 725 2548 725 2548 639 c 0,86,87
 2548 577 2548 577 2541.5 517 c 128,-1,88
 2535 457 2535 457 2517 385 c 128,-1,89
 2499 313 2499 313 2470.5 251 c 128,-1,90
 2442 189 2442 189 2393 129.5 c 128,-1,91
 2344 70 2344 70 2280.5 27.5 c 128,-1,92
 2217 -15 2217 -15 2124.5 -40.5 c 128,-1,93
 2032 -66 2032 -66 1921 -66 c 0,94,95
 1778 -66 1778 -66 1515.5 -28 c 128,-1,96
 1253 10 1253 10 1000 48 c 128,-1,97
 747 86 747 86 627 86 c 0,98,99
 518 86 518 86 460.5 84 c 128,-1,100
 403 82 403 82 348 75.5 c 128,-1,101
 293 69 293 69 262 53 c 128,-1,102
 231 37 231 37 203 14 c 128,-1,103
 175 -9 175 -9 143 -49 c 0,104,105
 96 -106 96 -106 53 -106 c 0,106,107
 0 -106 0 -106 0 -29 c 0,0,1
EndSplineSet
Position2: "'cpsp' Capital Spacing in Latin lookup 0 subtable" dx=33 dy=0 dh=66 dv=0
EndChar

StartChar: bracketleft
Encoding: 91 91 62
Width: 1335
GlyphClass: 2
Flags: W
LayerCount: 2
Fore
SplineSet
360 -946 m 1,0,-1
 360 2892 l 1,1,-1
 1266 2892 l 1,2,-1
 1266 2769 l 1,3,-1
 614 2769 l 1,4,-1
 614 -827 l 1,5,-1
 1266 -827 l 1,6,-1
 1266 -946 l 1,7,-1
 360 -946 l 1,0,-1
EndSplineSet
EndChar

StartChar: backslash
Encoding: 92 92 63
Width: 1810
GlyphClass: 2
Flags: W
LayerCount: 2
Fore
SplineSet
152 2892 m 1,0,-1
 344 2892 l 1,1,-1
 1741 -946 l 1,2,-1
 1548 -946 l 1,3,-1
 152 2892 l 1,0,-1
EndSplineSet
EndChar

StartChar: bracketright
Encoding: 93 93 64
Width: 1335
GlyphClass: 2
Flags: W
LayerCount: 2
Fore
SplineSet
70 -827 m 1,0,-1
 721 -827 l 1,1,-1
 721 2769 l 1,2,-1
 70 2769 l 1,3,-1
 70 2892 l 1,4,-1
 975 2892 l 1,5,-1
 975 -946 l 1,6,-1
 70 -946 l 1,7,-1
 70 -827 l 1,0,-1
EndSplineSet
EndChar

StartChar: asciicircum
Encoding: 94 94 65
Width: 1662
GlyphClass: 2
Flags: W
LayerCount: 2
Fore
SplineSet
164 1356 m 1,0,-1
 807 2666 l 1,1,-1
 856 2666 l 1,2,-1
 1499 1356 l 1,3,-1
 1241 1356 l 1,4,-1
 831 2224 l 1,5,-1
 422 1356 l 1,6,-1
 164 1356 l 1,0,-1
EndSplineSet
EndChar

StartChar: underscore
Encoding: 95 95 66
Width: 925
GlyphClass: 2
Flags: W
LayerCount: 2
Fore
SplineSet
82 -242 m 1,0,-1
 844 -242 l 1,1,-1
 844 -418 l 1,2,-1
 82 -418 l 1,3,-1
 82 -242 l 1,0,-1
EndSplineSet
EndChar

StartChar: a
Encoding: 97 97 68
Width: 1519
GlyphClass: 2
Flags: W
LayerCount: 2
Fore
SplineSet
102 406 m 0,0,1
 102 537 102 537 115.5 635 c 128,-1,2
 129 733 129 733 165 828.5 c 128,-1,3
 201 924 201 924 242 999.5 c 128,-1,4
 283 1075 283 1075 360 1200 c 0,5,6
 398 1261 398 1261 485 1360 c 128,-1,7
 572 1459 572 1459 680 1548.5 c 128,-1,8
 788 1638 788 1638 848 1638 c 0,9,10
 889 1638 889 1638 925.5 1612.5 c 128,-1,11
 962 1587 962 1587 985 1550.5 c 128,-1,12
 1008 1514 1008 1514 1025 1477 c 128,-1,13
 1042 1440 1042 1440 1050 1414 c 2,14,-1
 1057 1389 l 1,15,-1
 1098 1618 l 2,16,17
 1110 1688 1110 1688 1192 1688 c 2,18,-1
 1233 1688 l 2,19,20
 1280 1688 1280 1688 1293.5 1679.5 c 128,-1,21
 1307 1671 1307 1671 1307 1638 c 0,22,23
 1307 1629 1307 1629 1271 1400 c 128,-1,24
 1235 1171 1235 1171 1199 895 c 128,-1,25
 1163 619 1163 619 1163 496 c 0,26,27
 1163 295 1163 295 1212 295 c 0,28,29
 1220 295 1220 295 1227.5 297.5 c 128,-1,30
 1235 300 1235 300 1244 307 c 128,-1,31
 1253 314 1253 314 1261 321 c 128,-1,32
 1269 328 1269 328 1281.5 342.5 c 128,-1,33
 1294 357 1294 357 1304 368.5 c 128,-1,34
 1314 380 1314 380 1332 401 c 128,-1,35
 1350 422 1350 422 1364 438 c 1,36,-1
 1438 381 l 1,37,38
 1426 364 1426 364 1405.5 335 c 128,-1,39
 1385 306 1385 306 1326 232.5 c 128,-1,40
 1267 159 1267 159 1213 103 c 128,-1,41
 1159 47 1159 47 1094 1 c 128,-1,42
 1029 -45 1029 -45 983 -45 c 0,43,44
 964 -45 964 -45 949.5 -33.5 c 128,-1,45
 935 -22 935 -22 921.5 8 c 128,-1,46
 908 38 908 38 900.5 99 c 128,-1,47
 893 160 893 160 893 250 c 0,48,49
 893 350 893 350 913 610 c 1,50,51
 779 353 779 353 639 180 c 1,52,53
 566 92 566 92 460.5 23.5 c 128,-1,54
 355 -45 355 -45 303 -45 c 0,55,56
 276 -45 276 -45 250.5 -35 c 128,-1,57
 225 -25 225 -25 197 5.5 c 128,-1,58
 169 36 169 36 149 84 c 128,-1,59
 129 132 129 132 115.5 215 c 128,-1,60
 102 298 102 298 102 406 c 0,0,1
311 537 m 0,61,62
 311 409 311 409 361 325.5 c 128,-1,63
 411 242 411 242 463 242 c 0,64,65
 520 242 520 242 614.5 356 c 128,-1,66
 709 470 709 470 794 622.5 c 128,-1,67
 879 775 879 775 941.5 937 c 128,-1,68
 1004 1099 1004 1099 1004 1188 c 0,69,70
 1004 1248 1004 1248 958.5 1312 c 128,-1,71
 913 1376 913 1376 854.5 1415 c 128,-1,72
 796 1454 796 1454 754 1454 c 128,-1,73
 712 1454 712 1454 653.5 1400.5 c 128,-1,74
 595 1347 595 1347 536 1253 c 128,-1,75
 477 1159 477 1159 426 1045 c 128,-1,76
 375 931 375 931 343 795 c 128,-1,77
 311 659 311 659 311 537 c 0,61,62
EndSplineSet
EndChar

StartChar: b
Encoding: 98 98 69
Width: 1388
GlyphClass: 2
Flags: W
LayerCount: 2
Fore
SplineSet
20 2761 m 1,0,1
 112 2785 112 2785 223.5 2816 c 128,-1,2
 335 2847 335 2847 389.5 2862 c 128,-1,3
 444 2877 444 2877 495.5 2888.5 c 128,-1,4
 547 2900 547 2900 573 2900 c 0,5,6
 604 2900 604 2900 615.5 2885.5 c 128,-1,7
 627 2871 627 2871 627 2834 c 0,8,9
 627 2831 627 2831 451 1106 c 1,10,11
 548 1246 548 1246 646.5 1352.5 c 128,-1,12
 745 1459 745 1459 827.5 1516.5 c 128,-1,13
 910 1574 910 1574 976.5 1602 c 128,-1,14
 1043 1630 1043 1630 1094 1630 c 0,15,16
 1115 1630 1115 1630 1138.5 1621.5 c 128,-1,17
 1162 1613 1162 1613 1193.5 1585.5 c 128,-1,18
 1225 1558 1225 1558 1249 1514 c 128,-1,19
 1273 1470 1273 1470 1290 1389.5 c 128,-1,20
 1307 1309 1307 1309 1307 1204 c 0,21,22
 1307 1184 1307 1184 1301 1125.5 c 128,-1,23
 1295 1067 1295 1067 1276 962 c 128,-1,24
 1257 857 1257 857 1228.5 750 c 128,-1,25
 1200 643 1200 643 1148 523.5 c 128,-1,26
 1096 404 1096 404 1032 319 c 0,27,28
 961 226 961 226 828.5 105 c 128,-1,29
 696 -16 696 -16 643 -16 c 0,30,31
 626 -16 626 -16 608 -13 c 128,-1,32
 590 -10 590 -10 569 -2.5 c 128,-1,33
 548 5 548 5 532 11.5 c 128,-1,34
 516 18 516 18 491.5 32 c 128,-1,35
 467 46 467 46 452.5 54.5 c 128,-1,36
 438 63 438 63 409 82 c 128,-1,37
 380 101 380 101 367.5 110 c 128,-1,38
 355 119 355 119 322.5 141.5 c 128,-1,39
 290 164 290 164 279 172 c 0,40,41
 237 203 237 203 223 224 c 128,-1,42
 209 245 209 245 209 279 c 0,43,44
 209 294 209 294 222 467 c 128,-1,45
 235 640 235 640 256 940 c 128,-1,46
 277 1240 277 1240 291 1507 c 0,47,48
 328 2212 328 2212 328 2597 c 0,49,50
 328 2672 328 2672 314.5 2702 c 128,-1,51
 301 2732 301 2732 270 2732 c 0,52,53
 248 2732 248 2732 180 2712 c 1,54,-1
 45 2675 l 1,55,-1
 20 2761 l 1,0,1
430 553 m 0,56,57
 430 481 430 481 457 415.5 c 128,-1,58
 484 350 484 350 523.5 306 c 128,-1,59
 563 262 563 262 606 228.5 c 128,-1,60
 649 195 649 195 682 179.5 c 128,-1,61
 715 164 715 164 729 164 c 0,62,63
 776 164 776 164 842.5 241 c 128,-1,64
 909 318 909 318 969 433.5 c 128,-1,65
 1029 549 1029 549 1071.5 699 c 128,-1,66
 1114 849 1114 849 1114 979 c 0,67,68
 1114 1161 1114 1161 1044.5 1291 c 128,-1,69
 975 1421 975 1421 889 1421 c 0,70,71
 824 1421 824 1421 724.5 1328.5 c 128,-1,72
 625 1236 625 1236 549 1094 c 1,73,74
 473 956 473 956 451.5 842 c 128,-1,75
 430 728 430 728 430 553 c 0,56,57
EndSplineSet
EndChar

StartChar: c
Encoding: 99 99 70
Width: 1134
GlyphClass: 2
Flags: W
LayerCount: 2
Fore
SplineSet
82 451 m 0,0,1
 82 625 82 625 113 780.5 c 128,-1,2
 144 936 144 936 209 1114 c 0,3,4
 249 1224 249 1224 306.5 1314.5 c 128,-1,5
 364 1405 364 1405 443 1479.5 c 128,-1,6
 522 1554 522 1554 630 1596 c 128,-1,7
 738 1638 738 1638 864 1638 c 0,8,9
 972 1638 972 1638 1022.5 1597 c 128,-1,10
 1073 1556 1073 1556 1073 1507 c 0,11,12
 1073 1432 1073 1432 1048 1392 c 128,-1,13
 1023 1352 1023 1352 979 1352 c 0,14,15
 951 1352 951 1352 909.5 1370 c 128,-1,16
 868 1388 868 1388 828.5 1409 c 128,-1,17
 789 1430 789 1430 728 1448 c 128,-1,18
 667 1466 667 1466 606 1466 c 0,19,20
 535 1466 535 1466 461.5 1345 c 128,-1,21
 388 1224 388 1224 341.5 1043.5 c 128,-1,22
 295 863 295 863 295 696 c 0,23,24
 295 605 295 605 310.5 527.5 c 128,-1,25
 326 450 326 450 351 398 c 128,-1,26
 376 346 376 346 408 309 c 128,-1,27
 440 272 440 272 471.5 255 c 128,-1,28
 503 238 503 238 532 238 c 128,-1,29
 561 238 561 238 592 245 c 128,-1,30
 623 252 623 252 651 262.5 c 128,-1,31
 679 273 679 273 710 290.5 c 128,-1,32
 741 308 741 308 765.5 324 c 128,-1,33
 790 340 790 340 818.5 362.5 c 128,-1,34
 847 385 847 385 866.5 401 c 128,-1,35
 886 417 886 417 909.5 439.5 c 128,-1,36
 933 462 933 462 944.5 473 c 128,-1,37
 956 484 956 484 973 501.5 c 128,-1,38
 990 519 990 519 991 520 c 1,39,-1
 1049 471 l 1,40,41
 1041 460 1041 460 1027.5 442 c 128,-1,42
 1014 424 1014 424 970 371.5 c 128,-1,43
 926 319 926 319 881.5 271.5 c 128,-1,44
 837 224 837 224 773 166 c 128,-1,45
 709 108 709 108 648.5 66 c 128,-1,46
 588 24 588 24 518.5 -4.5 c 128,-1,47
 449 -33 449 -33 389 -33 c 0,48,49
 371 -33 371 -33 354.5 -30 c 128,-1,50
 338 -27 338 -27 327 -23.5 c 128,-1,51
 316 -20 316 -20 303.5 -13 c 128,-1,52
 291 -6 291 -6 286 -2.5 c 128,-1,53
 281 1 281 1 272 8 c 2,54,-1
 262 16 l 2,55,56
 176 85 176 85 129 185 c 128,-1,57
 82 285 82 285 82 451 c 0,0,1
EndSplineSet
EndChar

StartChar: d
Encoding: 100 100 71
Width: 1531
GlyphClass: 2
Flags: W
LayerCount: 2
Fore
SplineSet
82 475 m 0,0,1
 82 700 82 700 158 915 c 128,-1,2
 234 1130 234 1130 344 1274 c 0,3,4
 462 1427 462 1427 578 1526.5 c 128,-1,5
 694 1626 694 1626 782 1626 c 0,6,7
 836 1626 836 1626 879 1587.5 c 128,-1,8
 922 1549 922 1549 942.5 1504.5 c 128,-1,9
 963 1460 963 1460 982.5 1406.5 c 128,-1,10
 1002 1353 1002 1353 1008 1343 c 1,11,-1
 1065 2556 l 1,12,-1
 1065 2634 l 2,13,14
 1065 2699 1065 2699 1056 2721.5 c 128,-1,15
 1047 2744 1047 2744 1024 2744 c 0,16,17
 988 2744 988 2744 741 2699 c 1,18,-1
 725 2793 l 1,19,20
 824 2814 824 2814 1041.5 2853 c 128,-1,21
 1259 2892 1259 2892 1282 2892 c 0,22,23
 1328 2892 1328 2892 1344 2876 c 128,-1,24
 1360 2860 1360 2860 1360 2826 c 0,25,26
 1360 2817 1360 2817 1358 2793 c 128,-1,27
 1356 2769 1356 2769 1356 2753 c 1,28,-1
 1229 1212 l 2,29,30
 1217 1074 1217 1074 1198.5 887 c 128,-1,31
 1180 700 1180 700 1171.5 595.5 c 128,-1,32
 1163 491 1163 491 1163 410 c 0,33,34
 1163 347 1163 347 1172 325 c 128,-1,35
 1181 303 1181 303 1204 303 c 0,36,37
 1237 303 1237 303 1291 368.5 c 128,-1,38
 1345 434 1345 434 1383 500 c 2,39,-1
 1421 565 l 1,40,-1
 1491 528 l 1,41,42
 1491 525 1491 525 1481.5 502 c 128,-1,43
 1472 479 1472 479 1447 433.5 c 128,-1,44
 1422 388 1422 388 1386.5 335 c 128,-1,45
 1351 282 1351 282 1290.5 212 c 128,-1,46
 1230 142 1230 142 1159 78 c 0,47,48
 1026 -41 1026 -41 967 -41 c 0,49,50
 922 -41 922 -41 922 29 c 0,51,52
 922 147 922 147 937 322 c 128,-1,53
 952 497 952 497 968 613 c 2,54,-1
 983 729 l 1,55,56
 967 682 967 682 928 608 c 128,-1,57
 889 534 889 534 835 448.5 c 128,-1,58
 781 363 781 363 713.5 277 c 128,-1,59
 646 191 646 191 578 121 c 128,-1,60
 510 51 510 51 439 7 c 128,-1,61
 368 -37 368 -37 311 -37 c 0,62,63
 282 -37 282 -37 252.5 -23 c 128,-1,64
 223 -9 223 -9 191.5 28 c 128,-1,65
 160 65 160 65 136.5 121 c 128,-1,66
 113 177 113 177 97.5 268.5 c 128,-1,67
 82 360 82 360 82 475 c 0,0,1
287 721 m 0,68,69
 287 638 287 638 296 565 c 128,-1,70
 305 492 305 492 326 421 c 128,-1,71
 347 350 347 350 389.5 308 c 128,-1,72
 432 266 432 266 492 266 c 0,73,74
 547 266 547 266 627 342 c 128,-1,75
 707 418 707 418 780.5 531.5 c 128,-1,76
 854 645 854 645 906 794 c 128,-1,77
 958 943 958 943 958 1073 c 2,78,-1
 958 1139 l 2,79,80
 958 1218 958 1218 931 1287.5 c 128,-1,81
 904 1357 904 1357 865 1398.5 c 128,-1,82
 826 1440 826 1440 786 1463.5 c 128,-1,83
 746 1487 746 1487 717 1487 c 0,84,85
 673 1487 673 1487 622.5 1450 c 128,-1,86
 572 1413 572 1413 530.5 1357 c 128,-1,87
 489 1301 489 1301 460 1254.5 c 128,-1,88
 431 1208 431 1208 414 1171 c 0,89,90
 355 1047 355 1047 321 917.5 c 128,-1,91
 287 788 287 788 287 721 c 0,68,69
EndSplineSet
EndChar

StartChar: e
Encoding: 101 101 72
Width: 1146
GlyphClass: 2
Flags: W
LayerCount: 2
Fore
SplineSet
82 414 m 0,0,1
 82 624 82 624 129 839.5 c 128,-1,2
 176 1055 176 1055 254 1225 c 0,3,4
 274 1270 274 1270 295 1307 c 128,-1,5
 316 1344 316 1344 340.5 1373.5 c 128,-1,6
 365 1403 365 1403 382 1422.5 c 128,-1,7
 399 1442 399 1442 429.5 1464 c 128,-1,8
 460 1486 460 1486 474 1495.5 c 128,-1,9
 488 1505 488 1505 524.5 1526.5 c 128,-1,10
 561 1548 561 1548 573 1556 c 0,11,12
 632 1592 632 1592 693.5 1611 c 128,-1,13
 755 1630 755 1630 791 1630 c 0,14,15
 826 1630 826 1630 890.5 1598.5 c 128,-1,16
 955 1567 955 1567 1008 1522 c 128,-1,17
 1061 1477 1061 1477 1061 1446 c 0,18,19
 1061 1429 1061 1429 991 1344.5 c 128,-1,20
 921 1260 921 1260 816.5 1150 c 128,-1,21
 712 1040 712 1040 572 911.5 c 128,-1,22
 432 783 432 783 311 692 c 1,23,24
 311 673 311 673 312 650 c 128,-1,25
 313 627 313 627 318.5 581.5 c 128,-1,26
 324 536 324 536 333.5 495 c 128,-1,27
 343 454 343 454 362.5 407.5 c 128,-1,28
 382 361 382 361 408.5 327.5 c 128,-1,29
 435 294 435 294 476.5 272 c 128,-1,30
 518 250 518 250 569 250 c 0,31,32
 754 250 754 250 1016 496 c 0,33,34
 1021 502 1021 502 1024 504 c 1,35,-1
 1085 410 l 1,36,37
 1067 393 1067 393 1035.5 364 c 128,-1,38
 1004 335 1004 335 914 261.5 c 128,-1,39
 824 188 824 188 741 132 c 128,-1,40
 658 76 658 76 556 30 c 128,-1,41
 454 -16 454 -16 381 -16 c 0,42,43
 352 -16 352 -16 316.5 -4 c 128,-1,44
 281 8 281 8 238.5 39.5 c 128,-1,45
 196 71 196 71 162 117 c 128,-1,46
 128 163 128 163 105 240.5 c 128,-1,47
 82 318 82 318 82 414 c 0,0,1
307 782 m 1,48,49
 308 783 308 783 364.5 836.5 c 128,-1,50
 421 890 421 890 486 953.5 c 128,-1,51
 551 1017 551 1017 620.5 1087.5 c 128,-1,52
 690 1158 690 1158 736 1212 c 128,-1,53
 782 1266 782 1266 782 1282 c 0,54,55
 782 1369 782 1369 728 1411.5 c 128,-1,56
 674 1454 674 1454 618 1454 c 0,57,58
 570 1454 570 1454 517 1410 c 128,-1,59
 464 1366 464 1366 416.5 1288 c 128,-1,60
 369 1210 369 1210 338 1085 c 128,-1,61
 307 960 307 960 307 815 c 2,62,-1
 307 782 l 1,48,49
EndSplineSet
EndChar

StartChar: f
Encoding: 102 102 73
Width: 1069
GlyphClass: 2
Flags: W
LayerCount: 2
Fore
SplineSet
-311 -840 m 0,0,1
 -311 -770 -311 -770 -276.5 -714.5 c 128,-1,2
 -242 -659 -242 -659 -184 -659 c 0,3,4
 -162 -659 -162 -659 -144 -666.5 c 128,-1,5
 -126 -674 -126 -674 -111 -692 c 128,-1,6
 -96 -710 -96 -710 -88 -722.5 c 128,-1,7
 -80 -735 -80 -735 -65.5 -764 c 128,-1,8
 -51 -793 -51 -793 -45 -803 c 0,9,10
 22 -913 22 -913 111 -913 c 0,11,12
 211 -913 211 -913 247.5 -707.5 c 128,-1,13
 284 -502 284 -502 327 125 c 0,14,15
 335 246 335 246 340 311 c 0,16,17
 374 852 374 852 430 1475 c 1,18,-1
 143 1475 l 1,19,-1
 143 1606 l 1,20,-1
 434 1606 l 1,21,22
 440 1664 440 1664 447.5 1754.5 c 128,-1,23
 455 1845 455 1845 460 1904 c 128,-1,24
 465 1963 465 1963 475 2045 c 128,-1,25
 485 2127 485 2127 496.5 2185 c 128,-1,26
 508 2243 508 2243 527.5 2313.5 c 128,-1,27
 547 2384 547 2384 571.5 2437.5 c 128,-1,28
 596 2491 596 2491 632 2546 c 128,-1,29
 668 2601 668 2601 713 2646 c 0,30,31
 826 2759 826 2759 931.5 2817 c 128,-1,32
 1037 2875 1037 2875 1176 2875 c 0,33,34
 1300 2875 1300 2875 1362.5 2810.5 c 128,-1,35
 1425 2746 1425 2746 1425 2662 c 0,36,37
 1425 2598 1425 2598 1396 2554.5 c 128,-1,38
 1367 2511 1367 2511 1319 2511 c 0,39,40
 1288 2511 1288 2511 1257.5 2531 c 128,-1,41
 1227 2551 1227 2551 1202 2580 c 128,-1,42
 1177 2609 1177 2609 1152 2638 c 128,-1,43
 1127 2667 1127 2667 1099 2687 c 128,-1,44
 1071 2707 1071 2707 1044 2707 c 0,45,46
 887 2707 887 2707 807 2480 c 0,47,48
 748 2314 748 2314 710 1929 c 0,49,50
 705 1874 705 1874 695 1762 c 0,51,52
 685 1658 685 1658 680 1606 c 1,53,-1
 987 1606 l 1,54,-1
 979 1475 l 1,55,-1
 672 1475 l 1,56,57
 664 1364 664 1364 598 311 c 1,58,59
 584 107 584 107 572 -35 c 128,-1,60
 560 -177 560 -177 541 -321.5 c 128,-1,61
 522 -466 522 -466 499 -560.5 c 128,-1,62
 476 -655 476 -655 442.5 -745 c 128,-1,63
 409 -835 409 -835 366 -887.5 c 128,-1,64
 323 -940 323 -940 265 -982 c 128,-1,65
 207 -1024 207 -1024 135 -1040.5 c 128,-1,66
 63 -1057 63 -1057 -29 -1057 c 0,67,68
 -145 -1057 -145 -1057 -228 -1000.5 c 128,-1,69
 -311 -944 -311 -944 -311 -840 c 0,0,1
EndSplineSet
EndChar

StartChar: g
Encoding: 103 103 74
Width: 1589
GlyphClass: 2
Flags: W
LayerCount: 2
Fore
SplineSet
-135 -635 m 0,0,1
 -135 -568 -135 -568 -115.5 -513 c 128,-1,2
 -96 -458 -96 -458 -65 -423 c 128,-1,3
 -34 -388 -34 -388 3.5 -362 c 128,-1,4
 41 -336 41 -336 78.5 -323 c 128,-1,5
 116 -310 116 -310 147 -302 c 128,-1,6
 178 -294 178 -294 198 -292 c 2,7,-1
 217 -291 l 1,8,-1
 242 -377 l 1,9,10
 236 -378 236 -378 225.5 -381.5 c 128,-1,11
 215 -385 215 -385 189 -398.5 c 128,-1,12
 163 -412 163 -412 143 -430 c 128,-1,13
 123 -448 123 -448 106.5 -482 c 128,-1,14
 90 -516 90 -516 90 -557 c 0,15,16
 90 -620 90 -620 124.5 -685.5 c 128,-1,17
 159 -751 159 -751 221.5 -807 c 128,-1,18
 284 -863 284 -863 383 -898.5 c 128,-1,19
 482 -934 482 -934 598 -934 c 0,20,21
 746 -934 746 -934 880.5 -880 c 128,-1,22
 1015 -826 1015 -826 1095.5 -738 c 128,-1,23
 1176 -650 1176 -650 1176 -553 c 0,24,25
 1176 -478 1176 -478 1103.5 -430 c 128,-1,26
 1031 -382 1031 -382 897 -348 c 0,27,28
 876 -343 876 -343 832 -331 c 0,29,30
 742 -308 742 -308 693 -294.5 c 128,-1,31
 644 -281 644 -281 555.5 -253.5 c 128,-1,32
 467 -226 467 -226 415 -204 c 128,-1,33
 363 -182 363 -182 296.5 -147 c 128,-1,34
 230 -112 230 -112 194 -78 c 128,-1,35
 158 -44 158 -44 132 2 c 128,-1,36
 106 48 106 48 106 98 c 0,37,38
 106 139 106 139 125.5 181 c 128,-1,39
 145 223 145 223 172.5 255 c 128,-1,40
 200 287 200 287 236 318 c 128,-1,41
 272 349 272 349 299.5 367.5 c 128,-1,42
 327 386 327 386 352 402 c 2,43,-1
 377 418 l 1,44,45
 275 465 275 465 219.5 574 c 128,-1,46
 164 683 164 683 164 807 c 0,47,48
 164 918 164 918 196.5 1039 c 128,-1,49
 229 1160 229 1160 291 1271 c 128,-1,50
 353 1382 353 1382 434 1471 c 128,-1,51
 515 1560 515 1560 620.5 1613.5 c 128,-1,52
 726 1667 726 1667 836 1667 c 0,53,54
 899 1667 899 1667 957.5 1652.5 c 128,-1,55
 1016 1638 1016 1638 1062 1617.5 c 128,-1,56
 1108 1597 1108 1597 1152.5 1577 c 128,-1,57
 1197 1557 1197 1557 1252 1542.5 c 128,-1,58
 1307 1528 1307 1528 1364 1528 c 0,59,60
 1407 1528 1407 1528 1446 1577 c 1,61,-1
 1475 1610 l 1,62,-1
 1556 1569 l 1,63,64
 1537 1524 1537 1524 1508 1454 c 0,65,66
 1454 1325 1454 1325 1434.5 1299.5 c 128,-1,67
 1415 1274 1415 1274 1364 1274 c 0,68,69
 1349 1274 1349 1274 1309 1280 c 128,-1,70
 1269 1286 1269 1286 1236 1292 c 2,71,-1
 1204 1298 l 1,72,73
 1212 1224 1212 1224 1212 1184 c 0,74,75
 1212 1090 1212 1090 1188 983 c 128,-1,76
 1164 876 1164 876 1113 767.5 c 128,-1,77
 1062 659 1062 659 991 571.5 c 128,-1,78
 920 484 920 484 816.5 428.5 c 128,-1,79
 713 373 713 373 594 373 c 0,80,81
 540 373 540 373 479 385 c 1,82,83
 472 381 472 381 460 373.5 c 128,-1,84
 448 366 448 366 417.5 343.5 c 128,-1,85
 387 321 387 321 364 298 c 128,-1,86
 341 275 341 275 322 242.5 c 128,-1,87
 303 210 303 210 303 180 c 0,88,89
 303 165 303 165 311.5 150.5 c 128,-1,90
 320 136 320 136 339.5 123 c 128,-1,91
 359 110 359 110 379.5 98.5 c 128,-1,92
 400 87 400 87 435 75 c 128,-1,93
 470 63 470 63 498.5 53.5 c 128,-1,94
 527 44 527 44 573 33 c 128,-1,95
 619 22 619 22 651 14.5 c 128,-1,96
 683 7 683 7 736 -4 c 128,-1,97
 789 -15 789 -15 819.5 -21 c 128,-1,98
 850 -27 850 -27 905 -37 c 0,99,100
 1067 -66 1067 -66 1151 -98 c 0,101,102
 1438 -207 1438 -207 1438 -463 c 0,103,104
 1438 -642 1438 -642 1311 -784 c 128,-1,105
 1184 -926 1184 -926 975.5 -1001.5 c 128,-1,106
 767 -1077 767 -1077 520 -1077 c 0,107,108
 379 -1077 379 -1077 264 -1047.5 c 128,-1,109
 149 -1018 149 -1018 76.5 -972 c 128,-1,110
 4 -926 4 -926 -45.5 -866.5 c 128,-1,111
 -95 -807 -95 -807 -115 -749 c 128,-1,112
 -135 -691 -135 -691 -135 -635 c 0,0,1
430 934 m 0,113,114
 430 839 430 839 457 755 c 128,-1,115
 484 671 484 671 524 618 c 128,-1,116
 564 565 564 565 608 534.5 c 128,-1,117
 652 504 652 504 688 504 c 0,118,119
 763 504 763 504 829.5 603.5 c 128,-1,120
 896 703 896 703 933.5 850 c 128,-1,121
 971 997 971 997 971 1143 c 0,122,123
 971 1293 971 1293 902 1408.5 c 128,-1,124
 833 1524 833 1524 754 1524 c 0,125,126
 682 1524 682 1524 606 1435.5 c 128,-1,127
 530 1347 530 1347 480 1208 c 128,-1,128
 430 1069 430 1069 430 934 c 0,113,114
EndSplineSet
Substitution2: "'swsh' Swash in Latin lookup 13 subtable" g.001
AlternateSubs2: "'aalt' Access All Alternates in Latin lookup 1 subtable" g.001
AlternateSubs2: "'aalt' Access All Alternates lookup 0 subtable" g.001
EndChar

StartChar: h
Encoding: 104 104 75
Width: 1753
GlyphClass: 2
Flags: W
LayerCount: 2
Fore
SplineSet
102 2773 m 1,0,1
 228 2808 228 2808 414.5 2850 c 128,-1,2
 601 2892 601 2892 639 2892 c 0,3,4
 692 2892 692 2892 692 2851 c 0,5,6
 692 2820 692 2820 656 2439 c 128,-1,7
 620 2058 620 2058 573.5 1550 c 128,-1,8
 527 1042 527 1042 508 778 c 1,9,10
 604 942 604 942 703.5 1087.5 c 128,-1,11
 803 1233 803 1233 902.5 1353 c 128,-1,12
 1002 1473 1002 1473 1093 1543.5 c 128,-1,13
 1184 1614 1184 1614 1249 1614 c 0,14,15
 1401 1614 1401 1614 1401 1188 c 0,16,17
 1401 1025 1401 1025 1358 748.5 c 128,-1,18
 1315 472 1315 472 1315 389 c 0,19,20
 1315 368 1315 368 1315.5 359.5 c 128,-1,21
 1316 351 1316 351 1317.5 335.5 c 128,-1,22
 1319 320 1319 320 1324.5 313.5 c 128,-1,23
 1330 307 1330 307 1339 307 c 0,24,25
 1370 307 1370 307 1434.5 376.5 c 128,-1,26
 1499 446 1499 446 1565 537 c 1,27,-1
 1630 631 l 1,28,-1
 1692 586 l 1,29,30
 1650 511 1650 511 1602.5 443.5 c 128,-1,31
 1555 376 1555 376 1499.5 313.5 c 128,-1,32
 1444 251 1444 251 1419 224.5 c 128,-1,33
 1394 198 1394 198 1343 147 c 0,34,35
 1223 30 1223 30 1182.5 0.5 c 128,-1,36
 1142 -29 1142 -29 1102 -29 c 0,37,38
 1049 -29 1049 -29 1049 78 c 0,39,40
 1049 128 1049 128 1098 589 c 128,-1,41
 1147 1050 1147 1050 1147 1192 c 0,42,43
 1147 1339 1147 1339 1085 1339 c 0,44,45
 1030 1339 1030 1339 906.5 1208 c 128,-1,46
 783 1077 783 1077 665 888.5 c 128,-1,47
 547 700 547 700 516 561 c 0,48,49
 481 402 481 402 475 238 c 2,50,-1
 471 119 l 1,51,52
 471 53 471 53 446 26.5 c 128,-1,53
 421 0 421 0 352 0 c 0,54,55
 250 0 250 0 250 61 c 0,56,57
 250 104 250 104 259.5 239 c 128,-1,58
 269 374 269 374 283 559.5 c 128,-1,59
 297 745 297 745 303 844 c 0,60,61
 328 1257 328 1257 349.5 1586 c 128,-1,62
 371 1915 371 1915 381.5 2072 c 128,-1,63
 392 2229 392 2229 400 2339 c 128,-1,64
 408 2449 408 2449 410 2491.5 c 128,-1,65
 412 2534 412 2534 413 2563 c 128,-1,66
 414 2592 414 2592 414 2654 c 0,67,68
 414 2658 414 2658 414 2666 c 0,69,70
 414 2692 414 2692 413 2704.5 c 128,-1,71
 412 2717 412 2717 404.5 2728.5 c 128,-1,72
 397 2740 397 2740 381 2740 c 0,73,74
 339 2740 339 2740 119 2679 c 1,75,-1
 102 2773 l 1,0,1
EndSplineSet
EndChar

StartChar: k
Encoding: 107 107 78
Width: 1662
GlyphClass: 2
Flags: W
LayerCount: 2
Fore
SplineSet
102 2777 m 1,0,1
 217 2809 217 2809 419.5 2848.5 c 128,-1,2
 622 2888 622 2888 664 2888 c 0,3,4
 721 2888 721 2888 721 2847 c 0,5,6
 721 2803 721 2803 669.5 2273.5 c 128,-1,7
 618 1744 618 1744 567 1236 c 2,8,-1
 516 729 l 1,9,10
 530 738 530 738 555 754.5 c 128,-1,11
 580 771 580 771 651.5 822 c 128,-1,12
 723 873 723 873 788 923 c 128,-1,13
 853 973 853 973 932.5 1043 c 128,-1,14
 1012 1113 1012 1113 1069 1175 c 128,-1,15
 1126 1237 1126 1237 1165 1303.5 c 128,-1,16
 1204 1370 1204 1370 1204 1421 c 0,17,18
 1204 1491 1204 1491 1102 1491 c 2,19,-1
 1020 1491 l 2,20,21
 1005 1491 1005 1491 967 1489 c 128,-1,22
 929 1487 929 1487 905 1487 c 1,23,-1
 913 1577 l 1,24,25
 1093 1593 1093 1593 1356 1593 c 0,26,27
 1431 1593 1431 1593 1471 1587.5 c 128,-1,28
 1511 1582 1511 1582 1521.5 1574 c 128,-1,29
 1532 1566 1532 1566 1532 1552 c 0,30,31
 1532 1504 1532 1504 1462.5 1409 c 128,-1,32
 1393 1314 1393 1314 1294 1212 c 0,33,34
 1216 1132 1216 1132 1117.5 1050.5 c 128,-1,35
 1019 969 1019 969 960 927 c 2,36,-1
 901 885 l 1,37,38
 906 872 906 872 916 848.5 c 128,-1,39
 926 825 926 825 955.5 758.5 c 128,-1,40
 985 692 985 692 1014 631 c 128,-1,41
 1043 570 1043 570 1083 496 c 128,-1,42
 1123 422 1123 422 1158.5 368.5 c 128,-1,43
 1194 315 1194 315 1232 278.5 c 128,-1,44
 1270 242 1270 242 1298 242 c 0,45,46
 1334 242 1334 242 1391.5 320.5 c 128,-1,47
 1449 399 1449 399 1488 478 c 2,48,-1
 1528 557 l 1,49,-1
 1622 504 l 1,50,51
 1577 409 1577 409 1511 303 c 0,52,53
 1458 217 1458 217 1406.5 147 c 128,-1,54
 1355 77 1355 77 1296.5 22 c 128,-1,55
 1238 -33 1238 -33 1200 -33 c 0,56,57
 1153 -33 1153 -33 1084.5 48 c 128,-1,58
 1016 129 1016 129 952.5 244.5 c 128,-1,59
 889 360 889 360 831.5 476 c 128,-1,60
 774 592 774 592 740 673 c 2,61,-1
 705 754 l 1,62,-1
 508 618 l 1,63,64
 483 327 483 327 479 225 c 2,65,-1
 475 106 l 1,66,67
 475 41 475 41 450.5 16.5 c 128,-1,68
 426 -8 426 -8 356 -8 c 0,69,70
 225 -8 225 -8 225 49 c 0,71,72
 225 60 225 60 256.5 391 c 128,-1,73
 288 722 288 722 340.5 1371 c 128,-1,74
 393 2020 393 2020 434 2691 c 1,75,-1
 434 2695 l 2,76,77
 434 2718 434 2718 425.5 2731 c 128,-1,78
 417 2744 417 2744 389 2744 c 0,79,80
 375 2744 375 2744 254.5 2714.5 c 128,-1,81
 134 2685 134 2685 123 2683 c 1,82,-1
 102 2777 l 1,0,1
EndSplineSet
Substitution2: "'swsh' Swash in Latin lookup 13 subtable" k.001
AlternateSubs2: "'aalt' Access All Alternates in Latin lookup 1 subtable" k.001
AlternateSubs2: "'aalt' Access All Alternates lookup 0 subtable" k.001
EndChar

StartChar: l
Encoding: 108 108 79
Width: 937
GlyphClass: 2
Flags: W
LayerCount: 2
Fore
SplineSet
61 2781 m 1,0,1
 525 2916 525 2916 623 2916 c 0,2,3
 670 2916 670 2916 689.5 2896 c 128,-1,4
 709 2876 709 2876 709 2851 c 0,5,6
 709 2840 709 2840 699 2741.5 c 128,-1,7
 689 2643 689 2643 672.5 2465 c 128,-1,8
 656 2287 656 2287 643 2126 c 0,9,10
 617 1802 617 1802 587 1387 c 128,-1,11
 557 972 557 972 538.5 702 c 128,-1,12
 520 432 520 432 520 414 c 0,13,14
 520 324 520 324 553 324 c 0,15,16
 575 324 575 324 611.5 360.5 c 128,-1,17
 648 397 648 397 685 449.5 c 128,-1,18
 722 502 722 502 755.5 554.5 c 128,-1,19
 789 607 789 607 810 644 c 2,20,-1
 831 680 l 1,21,-1
 922 614 l 1,22,23
 913 597 913 597 897 567.5 c 128,-1,24
 881 538 881 538 829.5 455.5 c 128,-1,25
 778 373 778 373 723.5 299.5 c 128,-1,26
 669 226 669 226 588.5 140.5 c 128,-1,27
 508 55 508 55 430 0 c 1,28,29
 374 -41 374 -41 319 -41 c 0,30,31
 282 -41 282 -41 268 -9 c 128,-1,32
 254 23 254 23 254 82 c 0,33,34
 254 112 254 112 259 178 c 128,-1,35
 264 244 264 244 266 274 c 0,36,37
 298 894 298 894 333.5 1484 c 128,-1,38
 369 2074 369 2074 385 2337 c 128,-1,39
 401 2600 401 2600 401 2679 c 0,40,41
 401 2709 401 2709 391.5 2722.5 c 128,-1,42
 382 2736 382 2736 356 2736 c 0,43,44
 337 2736 337 2736 240.5 2713 c 128,-1,45
 144 2690 144 2690 86 2671 c 1,46,-1
 61 2781 l 1,0,1
EndSplineSet
EndChar

StartChar: m
Encoding: 109 109 80
Width: 2490
GlyphClass: 2
Flags: W
LayerCount: 2
Fore
SplineSet
41 1450 m 1,0,1
 187 1517 187 1517 381 1586 c 128,-1,2
 575 1655 575 1655 623 1655 c 0,3,4
 692 1655 692 1655 692 1606 c 0,5,6
 692 1538 692 1538 671.5 1406.5 c 128,-1,7
 651 1275 651 1275 629.5 1110 c 128,-1,8
 608 945 608 945 606 799 c 1,9,10
 616 816 616 816 633 845.5 c 128,-1,11
 650 875 650 875 703 960.5 c 128,-1,12
 756 1046 756 1046 808.5 1124 c 128,-1,13
 861 1202 861 1202 933 1297 c 128,-1,14
 1005 1392 1005 1392 1069 1460 c 128,-1,15
 1133 1528 1133 1528 1200.5 1575 c 128,-1,16
 1268 1622 1268 1622 1319 1622 c 0,17,18
 1405 1622 1405 1622 1405 1343 c 0,19,20
 1405 1250 1405 1250 1398.5 1119 c 128,-1,21
 1392 988 1392 988 1386 904 c 2,22,-1
 1380 819 l 1,23,24
 1403 856 1403 856 1441.5 918 c 128,-1,25
 1480 980 1480 980 1586.5 1131.5 c 128,-1,26
 1693 1283 1693 1283 1782 1389 c 0,27,28
 1872 1495 1872 1495 1957 1562.5 c 128,-1,29
 2042 1630 2042 1630 2093 1630 c 0,30,31
 2116 1630 2116 1630 2132.5 1618 c 128,-1,32
 2149 1606 2149 1606 2159 1581 c 128,-1,33
 2169 1556 2169 1556 2175 1533 c 128,-1,34
 2181 1510 2181 1510 2183.5 1472.5 c 128,-1,35
 2186 1435 2186 1435 2186.5 1415 c 128,-1,36
 2187 1395 2187 1395 2187 1360 c 0,37,38
 2187 1214 2187 1214 2152.5 872 c 128,-1,39
 2118 530 2118 530 2118 451 c 0,40,41
 2118 395 2118 395 2133 363.5 c 128,-1,42
 2148 332 2148 332 2175 332 c 0,43,44
 2195 332 2195 332 2233.5 376 c 128,-1,45
 2272 420 2272 420 2310 479 c 1,46,47
 2330 508 2330 508 2346.5 538 c 128,-1,48
 2363 568 2363 568 2370 583 c 2,49,-1
 2376 598 l 1,50,-1
 2449 561 l 1,51,52
 2384 419 2384 419 2277.5 280.5 c 128,-1,53
 2171 142 2171 142 2068.5 58.5 c 128,-1,54
 1966 -25 1966 -25 1905 -25 c 0,55,56
 1827 -25 1827 -25 1827 147 c 0,57,58
 1827 236 1827 236 1880 629.5 c 128,-1,59
 1933 1023 1933 1023 1933 1143 c 0,60,61
 1933 1172 1933 1172 1933 1185.5 c 128,-1,62
 1933 1199 1933 1199 1931.5 1219.5 c 128,-1,63
 1930 1240 1930 1240 1927 1249 c 128,-1,64
 1924 1258 1924 1258 1918.5 1268.5 c 128,-1,65
 1913 1279 1913 1279 1904.5 1282.5 c 128,-1,66
 1896 1286 1896 1286 1884 1286 c 0,67,68
 1851 1286 1851 1286 1782 1216.5 c 128,-1,69
 1713 1147 1713 1147 1634.5 1038.5 c 128,-1,70
 1556 930 1556 930 1478 776.5 c 128,-1,71
 1400 623 1400 623 1356 475 c 0,72,73
 1356 474 1356 474 1352.5 458.5 c 128,-1,74
 1349 443 1349 443 1346 422 c 128,-1,75
 1343 401 1343 401 1339.5 361 c 128,-1,76
 1336 321 1336 321 1332.5 249.5 c 128,-1,77
 1329 178 1329 178 1327 82 c 0,78,79
 1327 38 1327 38 1305.5 17 c 128,-1,80
 1284 -4 1284 -4 1221 -4 c 2,81,-1
 1155 -4 l 2,82,83
 1061 -4 1061 -4 1061 53 c 0,84,85
 1061 68 1061 68 1110 540 c 128,-1,86
 1159 1012 1159 1012 1159 1159 c 0,87,88
 1159 1214 1159 1214 1140.5 1246 c 128,-1,89
 1122 1278 1122 1278 1098 1278 c 0,90,91
 1042 1278 1042 1278 921.5 1110.5 c 128,-1,92
 801 943 801 943 701.5 747.5 c 128,-1,93
 602 552 602 552 594 471 c 0,94,95
 591 436 591 436 582 368 c 128,-1,96
 573 300 573 300 567 233 c 128,-1,97
 561 166 561 166 557 78 c 1,98,99
 557 42 557 42 528.5 21 c 128,-1,100
 500 0 500 0 459 0 c 2,101,-1
 381 0 l 2,102,103
 283 0 283 0 283 57 c 0,104,105
 283 60 283 60 336 644.5 c 128,-1,106
 389 1229 389 1229 389 1339 c 0,107,108
 389 1395 389 1395 376 1416.5 c 128,-1,109
 363 1438 363 1438 336 1438 c 0,110,111
 319 1438 319 1438 250 1413 c 1,112,-1
 78 1339 l 1,113,-1
 41 1450 l 1,0,1
EndSplineSet
EndChar

StartChar: n
Encoding: 110 110 81
Width: 1683
GlyphClass: 2
Flags: W
LayerCount: 2
Fore
SplineSet
61 1462 m 1,0,1
 79 1468 79 1468 195 1513.5 c 128,-1,2
 311 1559 311 1559 421 1596.5 c 128,-1,3
 531 1634 531 1634 569 1634 c 0,4,5
 623 1634 623 1634 623 1569 c 0,6,7
 623 1544 623 1544 607.5 1427 c 128,-1,8
 592 1310 592 1310 575.5 1130 c 128,-1,9
 559 950 559 950 557 778 c 1,10,11
 695 1023 695 1023 812.5 1195 c 128,-1,12
 930 1367 930 1367 1021 1459 c 128,-1,13
 1112 1551 1112 1551 1181 1590.5 c 128,-1,14
 1250 1630 1250 1630 1311 1630 c 0,15,16
 1341 1630 1341 1630 1362 1603 c 128,-1,17
 1383 1576 1383 1576 1392.5 1530.5 c 128,-1,18
 1402 1485 1402 1485 1405.5 1445 c 128,-1,19
 1409 1405 1409 1405 1409 1360 c 0,20,21
 1409 1185 1409 1185 1368 843 c 128,-1,22
 1327 501 1327 501 1327 455 c 0,23,24
 1327 328 1327 328 1360 328 c 0,25,26
 1369 328 1369 328 1379.5 335.5 c 128,-1,27
 1390 343 1390 343 1403 360 c 128,-1,28
 1416 377 1416 377 1428 394.5 c 128,-1,29
 1440 412 1440 412 1457 441 c 128,-1,30
 1474 470 1474 470 1486.5 491.5 c 128,-1,31
 1499 513 1499 513 1519.5 549 c 128,-1,32
 1540 585 1540 585 1552 606 c 1,33,-1
 1622 569 l 1,34,35
 1556 425 1556 425 1454.5 285 c 128,-1,36
 1353 145 1353 145 1253.5 58 c 128,-1,37
 1154 -29 1154 -29 1094 -29 c 0,38,39
 1040 -29 1040 -29 1040 66 c 0,40,41
 1040 160 1040 160 1093.5 560 c 128,-1,42
 1147 960 1147 960 1147 1143 c 0,43,44
 1147 1220 1147 1220 1131 1273.5 c 128,-1,45
 1115 1327 1115 1327 1081 1327 c 0,46,47
 1037 1327 1037 1327 938.5 1211 c 128,-1,48
 840 1095 840 1095 735 922.5 c 128,-1,49
 630 750 630 750 573 602 c 0,50,51
 548 539 548 539 535.5 481.5 c 128,-1,52
 523 424 523 424 520 383.5 c 128,-1,53
 517 343 517 343 512 249 c 128,-1,54
 507 155 507 155 500 74 c 0,55,56
 497 39 497 39 466 17.5 c 128,-1,57
 435 -4 435 -4 393 -4 c 2,58,-1
 328 -4 l 2,59,60
 290 -4 290 -4 268.5 9.5 c 128,-1,61
 247 23 247 23 250 57 c 0,62,63
 283 406 283 406 307.5 818 c 128,-1,64
 332 1230 332 1230 332 1348 c 0,65,66
 332 1398 332 1398 322 1418 c 128,-1,67
 312 1438 312 1438 287 1438 c 0,68,69
 271 1438 271 1438 223.5 1422.5 c 128,-1,70
 176 1407 176 1407 137 1392 c 2,71,-1
 98 1376 l 1,72,-1
 61 1462 l 1,0,1
EndSplineSet
EndChar

StartChar: o
Encoding: 111 111 82
Width: 1351
GlyphClass: 2
Flags: W
LayerCount: 2
Fore
SplineSet
82 524 m 0,0,1
 82 1011 82 1011 400 1373 c 0,2,3
 407 1381 407 1381 410 1384 c 0,4,5
 501 1490 501 1490 618.5 1566 c 128,-1,6
 736 1642 736 1642 856 1642 c 0,7,8
 937 1642 937 1642 1003 1616 c 128,-1,9
 1069 1590 1069 1590 1113 1544.5 c 128,-1,10
 1157 1499 1157 1499 1189 1443.5 c 128,-1,11
 1221 1388 1221 1388 1238 1322.5 c 128,-1,12
 1255 1257 1255 1257 1262.5 1198.5 c 128,-1,13
 1270 1140 1270 1140 1270 1081 c 0,14,15
 1270 892 1270 892 1202 687.5 c 128,-1,16
 1134 483 1134 483 1027.5 321.5 c 128,-1,17
 921 160 921 160 780.5 55.5 c 128,-1,18
 640 -49 640 -49 504 -49 c 0,19,20
 380 -49 380 -49 282.5 29.5 c 128,-1,21
 185 108 185 108 133.5 238 c 128,-1,22
 82 368 82 368 82 524 c 0,0,1
356 696 m 0,23,24
 356 539 356 539 387.5 405.5 c 128,-1,25
 419 272 419 272 480 189 c 128,-1,26
 541 106 541 106 618 106 c 0,27,28
 711 106 711 106 802 243.5 c 128,-1,29
 893 381 893 381 948.5 583.5 c 128,-1,30
 1004 786 1004 786 1004 975 c 0,31,32
 1004 1059 1004 1059 989.5 1148 c 128,-1,33
 975 1237 975 1237 947 1320.5 c 128,-1,34
 919 1404 919 1404 868.5 1457.5 c 128,-1,35
 818 1511 818 1511 754 1511 c 0,36,37
 694 1511 694 1511 624 1443.5 c 128,-1,38
 554 1376 554 1376 494.5 1267.5 c 128,-1,39
 435 1159 435 1159 395.5 1005.5 c 128,-1,40
 356 852 356 852 356 696 c 0,23,24
EndSplineSet
EndChar

StartChar: p
Encoding: 112 112 83
Width: 1511
GlyphClass: 2
Flags: W
LayerCount: 2
Fore
SplineSet
-86 -991 m 1,0,1
 -41 -987 -41 -987 30 -981 c 0,2,3
 83 -977 83 -977 104 -975 c 128,-1,4
 125 -973 125 -973 151 -966.5 c 128,-1,5
 177 -960 177 -960 183 -956.5 c 128,-1,6
 189 -953 189 -953 197 -938 c 128,-1,7
 205 -923 205 -923 205.5 -911 c 128,-1,8
 206 -899 206 -899 208 -870 c 0,9,10
 209 -858 209 -858 209 -852 c 0,11,12
 324 665 324 665 365 1090 c 1,13,14
 370 1157 370 1157 377 1221.5 c 128,-1,15
 384 1286 384 1286 388.5 1323 c 128,-1,16
 393 1360 393 1360 393 1380 c 0,17,18
 393 1430 393 1430 360 1430 c 0,19,20
 341 1430 341 1430 297.5 1412.5 c 128,-1,21
 254 1395 254 1395 102 1327 c 1,22,-1
 61 1421 l 1,23,24
 113 1447 113 1447 193.5 1485 c 128,-1,25
 274 1523 274 1523 427.5 1587 c 128,-1,26
 581 1651 581 1651 623 1651 c 0,27,28
 680 1651 680 1651 680 1602 c 0,29,30
 680 1595 680 1595 666.5 1511.5 c 128,-1,31
 653 1428 653 1428 632.5 1306.5 c 128,-1,32
 612 1185 612 1185 602 1118 c 1,33,34
 609 1128 609 1128 621 1146 c 128,-1,35
 633 1164 633 1164 671.5 1216 c 128,-1,36
 710 1268 710 1268 749.5 1315.5 c 128,-1,37
 789 1363 789 1363 846.5 1420.5 c 128,-1,38
 904 1478 904 1478 958.5 1519.5 c 128,-1,39
 1013 1561 1013 1561 1076.5 1589.5 c 128,-1,40
 1140 1618 1140 1618 1196 1618 c 0,41,42
 1311 1618 1311 1618 1380.5 1509.5 c 128,-1,43
 1450 1401 1450 1401 1450 1176 c 0,44,45
 1450 1013 1450 1013 1394 825 c 128,-1,46
 1338 637 1338 637 1278 512 c 0,47,48
 1173 296 1173 296 1019.5 135.5 c 128,-1,49
 866 -25 866 -25 762 -25 c 0,50,51
 706 -25 706 -25 647.5 4 c 128,-1,52
 589 33 589 33 558 62 c 2,53,-1
 528 90 l 1,54,55
 519 -106 519 -106 503.5 -320 c 128,-1,56
 488 -534 488 -534 477.5 -665 c 128,-1,57
 467 -796 467 -796 467 -827 c 0,58,59
 467 -860 467 -860 468.5 -874 c 128,-1,60
 470 -888 470 -888 477 -904 c 128,-1,61
 484 -920 484 -920 500 -925 c 128,-1,62
 516 -930 516 -930 545 -930 c 0,63,64
 560 -930 560 -930 619.5 -925.5 c 128,-1,65
 679 -921 679 -921 765.5 -914.5 c 128,-1,66
 852 -908 852 -908 913 -905 c 1,67,-1
 909 -1016 l 1,68,-1
 -86 -1110 l 1,69,-1
 -86 -991 l 1,0,1
553 610 m 0,70,71
 553 383 553 383 613.5 271.5 c 128,-1,72
 674 160 674 160 770 160 c 0,73,74
 829 160 829 160 895.5 201.5 c 128,-1,75
 962 243 962 243 1021.5 318 c 128,-1,76
 1081 393 1081 393 1130 487 c 128,-1,77
 1179 581 1179 581 1208 695.5 c 128,-1,78
 1237 810 1237 810 1237 922 c 0,79,80
 1237 984 1237 984 1226.5 1053.5 c 128,-1,81
 1216 1123 1216 1123 1193 1197.5 c 128,-1,82
 1170 1272 1170 1272 1124 1320 c 128,-1,83
 1078 1368 1078 1368 1016 1368 c 0,84,85
 972 1368 972 1368 911.5 1328.5 c 128,-1,86
 851 1289 851 1289 789 1216 c 128,-1,87
 727 1143 727 1143 674 1051 c 128,-1,88
 621 959 621 959 587 842 c 128,-1,89
 553 725 553 725 553 610 c 0,70,71
EndSplineSet
EndChar

StartChar: q
Encoding: 113 113 84
Width: 1404
GlyphClass: 2
Flags: W
LayerCount: 2
Fore
SplineSet
82 446 m 0,0,1
 82 561 82 561 115.5 740.5 c 128,-1,2
 149 920 149 920 201 1044 c 0,3,4
 262 1189 262 1189 347.5 1305.5 c 128,-1,5
 433 1422 433 1422 516.5 1488 c 128,-1,6
 600 1554 600 1554 673 1588 c 128,-1,7
 746 1622 746 1622 799 1622 c 0,8,9
 848 1622 848 1622 898.5 1599 c 128,-1,10
 949 1576 949 1576 985 1543 c 128,-1,11
 1021 1510 1021 1510 1050.5 1476.5 c 128,-1,12
 1080 1443 1080 1443 1095 1420 c 2,13,-1
 1110 1397 l 1,14,15
 1147 1606 1147 1606 1167 1688 c 1,16,-1
 1270 1671 l 1,17,18
 1229 1436 1229 1436 1212 1306.5 c 128,-1,19
 1195 1177 1195 1177 1159 848 c 0,20,21
 1127 564 1127 564 1094 -72 c 128,-1,22
 1061 -708 1061 -708 1061 -827 c 0,23,24
 1061 -895 1061 -895 1083.5 -912.5 c 128,-1,25
 1106 -930 1106 -930 1180 -930 c 0,26,27
 1198 -930 1198 -930 1254 -928 c 128,-1,28
 1310 -926 1310 -926 1343 -926 c 1,29,-1
 1343 -1024 l 1,30,-1
 348 -1106 l 1,31,-1
 352 -971 l 1,32,33
 405 -967 405 -967 468.5 -963 c 128,-1,34
 532 -959 532 -959 564 -958 c 128,-1,35
 596 -957 596 -957 636 -952.5 c 128,-1,36
 676 -948 676 -948 693 -944 c 128,-1,37
 710 -940 710 -940 732 -930 c 128,-1,38
 754 -920 754 -920 761.5 -908.5 c 128,-1,39
 769 -897 769 -897 778.5 -876 c 128,-1,40
 788 -855 788 -855 791.5 -831 c 128,-1,41
 795 -807 795 -807 799 -770 c 2,42,-1
 930 598 l 1,43,44
 923 585 923 585 911 563 c 128,-1,45
 899 541 899 541 860.5 478 c 128,-1,46
 822 415 822 415 782.5 357 c 128,-1,47
 743 299 743 299 685 229 c 128,-1,48
 627 159 627 159 572.5 108 c 128,-1,49
 518 57 518 57 453.5 22.5 c 128,-1,50
 389 -12 389 -12 332 -12 c 0,51,52
 254 -12 254 -12 195.5 56.5 c 128,-1,53
 137 125 137 125 109.5 227.5 c 128,-1,54
 82 330 82 330 82 446 c 0,0,1
311 700 m 0,55,56
 311 598 311 598 325.5 516 c 128,-1,57
 340 434 340 434 362 384.5 c 128,-1,58
 384 335 384 335 413 301.5 c 128,-1,59
 442 268 442 268 468.5 255 c 128,-1,60
 495 242 495 242 520 242 c 0,61,62
 554 242 554 242 589.5 263.5 c 128,-1,63
 625 285 625 285 661 325 c 128,-1,64
 697 365 697 365 726.5 406.5 c 128,-1,65
 756 448 756 448 791 504 c 0,66,67
 862 616 862 616 904 764 c 128,-1,68
 946 912 946 912 946 1061 c 0,69,70
 946 1160 946 1160 921 1242.5 c 128,-1,71
 896 1325 896 1325 857.5 1373.5 c 128,-1,72
 819 1422 819 1422 776.5 1448.5 c 128,-1,73
 734 1475 734 1475 696 1475 c 0,74,75
 626 1475 626 1475 553.5 1393 c 128,-1,76
 481 1311 481 1311 429 1192 c 128,-1,77
 377 1073 377 1073 344 938.5 c 128,-1,78
 311 804 311 804 311 700 c 0,55,56
EndSplineSet
EndChar

StartChar: r
Encoding: 114 114 85
Width: 1368
GlyphClass: 2
Flags: W
LayerCount: 2
Fore
SplineSet
41 1450 m 1,0,1
 92 1472 92 1472 171.5 1504.5 c 128,-1,2
 251 1537 251 1537 408 1592 c 128,-1,3
 565 1647 565 1647 618 1647 c 0,4,5
 668 1647 668 1647 668 1593 c 0,6,7
 668 1540 668 1540 646.5 1371.5 c 128,-1,8
 625 1203 625 1203 604 1060 c 1,9,-1
 582 918 l 1,10,11
 589 933 589 933 602 958.5 c 128,-1,12
 615 984 615 984 655.5 1058 c 128,-1,13
 696 1132 696 1132 736.5 1199.5 c 128,-1,14
 777 1267 777 1267 833.5 1349 c 128,-1,15
 890 1431 890 1431 940.5 1490 c 128,-1,16
 991 1549 991 1549 1047 1589.5 c 128,-1,17
 1103 1630 1103 1630 1147 1630 c 0,18,19
 1179 1630 1179 1630 1222 1573 c 128,-1,20
 1265 1516 1265 1516 1296 1435.5 c 128,-1,21
 1327 1355 1327 1355 1327 1294 c 0,22,23
 1327 1249 1327 1249 1313.5 1220.5 c 128,-1,24
 1300 1192 1300 1192 1274 1192 c 0,25,26
 1249 1192 1249 1192 1220 1217.5 c 128,-1,27
 1191 1243 1191 1243 1158 1268.5 c 128,-1,28
 1125 1294 1125 1294 1090 1294 c 0,29,30
 1013 1294 1013 1294 940.5 1238.5 c 128,-1,31
 868 1183 868 1183 810.5 1089.5 c 128,-1,32
 753 996 753 996 711.5 903 c 128,-1,33
 670 810 670 810 635 705 c 0,34,35
 611 633 611 633 595.5 571.5 c 128,-1,36
 580 510 580 510 570.5 439 c 128,-1,37
 561 368 561 368 557 330 c 128,-1,38
 553 292 553 292 546.5 197 c 128,-1,39
 540 102 540 102 537 61 c 0,40,41
 534 29 534 29 509.5 12.5 c 128,-1,42
 485 -4 485 -4 451 -4 c 2,43,-1
 356 -4 l 2,44,45
 317 -4 317 -4 295.5 10 c 128,-1,46
 274 24 274 24 274 49 c 1,47,48
 368 1077 368 1077 377 1356 c 1,49,50
 377 1446 377 1446 319 1446 c 0,51,52
 303 1446 303 1446 265.5 1434 c 128,-1,53
 228 1422 228 1422 198 1409.5 c 128,-1,54
 168 1397 168 1397 121 1377.5 c 128,-1,55
 74 1358 74 1358 70 1356 c 1,56,-1
 41 1450 l 1,0,1
EndSplineSet
EndChar

StartChar: s
Encoding: 115 115 86
Width: 1294
GlyphClass: 2
Flags: W
LayerCount: 2
Fore
SplineSet
102 246 m 0,0,1
 102 310 102 310 127.5 362 c 128,-1,2
 153 414 153 414 201 414 c 0,3,4
 228 414 228 414 251.5 392 c 128,-1,5
 275 370 275 370 291 336.5 c 128,-1,6
 307 303 307 303 330.5 264.5 c 128,-1,7
 354 226 354 226 381 192.5 c 128,-1,8
 408 159 408 159 454.5 137 c 128,-1,9
 501 115 501 115 561 115 c 0,10,11
 696 115 696 115 788.5 201.5 c 128,-1,12
 881 288 881 288 881 414 c 0,13,14
 881 477 881 477 851.5 539 c 128,-1,15
 822 601 822 601 774.5 654.5 c 128,-1,16
 727 708 727 708 669.5 762.5 c 128,-1,17
 612 817 612 817 555 874 c 128,-1,18
 498 931 498 931 450.5 990.5 c 128,-1,19
 403 1050 403 1050 373.5 1123.5 c 128,-1,20
 344 1197 344 1197 344 1274 c 0,21,22
 344 1392 344 1392 417.5 1475.5 c 128,-1,23
 491 1559 491 1559 602.5 1596.5 c 128,-1,24
 714 1634 714 1634 848 1634 c 0,25,26
 929 1634 929 1634 1001 1610.5 c 128,-1,27
 1073 1587 1073 1587 1122 1538 c 128,-1,28
 1171 1489 1171 1489 1171 1425 c 0,29,30
 1171 1393 1171 1393 1150 1362 c 128,-1,31
 1129 1331 1129 1331 1098 1331 c 0,32,33
 1053 1331 1053 1331 1012 1350 c 128,-1,34
 971 1369 971 1369 939.5 1396 c 128,-1,35
 908 1423 908 1423 876.5 1450.5 c 128,-1,36
 845 1478 845 1478 805 1497 c 128,-1,37
 765 1516 765 1516 721 1516 c 0,38,39
 649 1516 649 1516 603 1476 c 128,-1,40
 557 1436 557 1436 557 1376 c 0,41,42
 557 1323 557 1323 588.5 1265 c 128,-1,43
 620 1207 620 1207 670 1152 c 128,-1,44
 720 1097 720 1097 781 1038 c 128,-1,45
 842 979 842 979 902.5 915 c 128,-1,46
 963 851 963 851 1013 785 c 128,-1,47
 1063 719 1063 719 1094.5 640.5 c 128,-1,48
 1126 562 1126 562 1126 483 c 0,49,50
 1126 389 1126 389 1077 296 c 128,-1,51
 1028 203 1028 203 946 131.5 c 128,-1,52
 864 60 864 60 747.5 15.5 c 128,-1,53
 631 -29 631 -29 504 -29 c 0,54,55
 362 -29 362 -29 263.5 0.5 c 128,-1,56
 165 30 165 30 135 70 c 1,57,58
 102 108 102 108 102 246 c 0,0,1
EndSplineSet
Substitution2: "'hist' Historical Forms in Latin lookup 12 subtable" longs
AlternateSubs2: "'aalt' Access All Alternates in Latin lookup 1 subtable" longs
AlternateSubs2: "'aalt' Access All Alternates lookup 0 subtable" longs
EndChar

StartChar: t
Encoding: 116 116 87
Width: 1159
GlyphClass: 2
Flags: W
LayerCount: 2
Fore
SplineSet
102 1479 m 1,0,-1
 115 1606 l 1,1,-1
 438 1606 l 1,2,-1
 496 1950 l 1,3,4
 499 1974 499 1974 591.5 2017 c 128,-1,5
 684 2060 684 2060 725 2060 c 0,6,7
 743 2060 743 2060 752.5 2045 c 128,-1,8
 762 2030 762 2030 762 2007 c 0,9,10
 762 1971 762 1971 730.5 1838.5 c 128,-1,11
 699 1706 699 1706 688 1606 c 1,12,-1
 1049 1606 l 1,13,-1
 1032 1479 l 1,14,-1
 668 1479 l 1,15,16
 668 1476 668 1476 661.5 1421.5 c 128,-1,17
 655 1367 655 1367 648 1301 c 128,-1,18
 641 1235 641 1235 631.5 1135.5 c 128,-1,19
 622 1036 622 1036 615 940 c 128,-1,20
 608 844 608 844 603 732.5 c 128,-1,21
 598 621 598 621 598 528 c 0,22,23
 598 463 598 463 601 419 c 128,-1,24
 604 375 604 375 612.5 329.5 c 128,-1,25
 621 284 621 284 640 261 c 128,-1,26
 659 238 659 238 688 238 c 0,27,28
 728 238 728 238 808 302.5 c 128,-1,29
 888 367 888 367 948 432 c 2,30,-1
 1008 496 l 1,31,-1
 1077 430 l 1,32,33
 1008 327 1008 327 922 243.5 c 128,-1,34
 836 160 836 160 763 113 c 128,-1,35
 690 66 690 66 620 34 c 128,-1,36
 550 2 550 2 509.5 -9 c 128,-1,37
 469 -20 469 -20 451 -20 c 0,38,39
 396 -20 396 -20 357.5 29.5 c 128,-1,40
 319 79 319 79 319 147 c 0,41,42
 319 426 319 426 343.5 759 c 128,-1,43
 368 1092 368 1092 393 1286 c 2,44,-1
 418 1479 l 1,45,-1
 102 1479 l 1,0,-1
EndSplineSet
EndChar

StartChar: u
Encoding: 117 117 88
Width: 1937
GlyphClass: 2
Flags: W
LayerCount: 2
Fore
SplineSet
102 1446 m 1,0,1
 153 1469 153 1469 232 1502 c 128,-1,2
 311 1535 311 1535 468 1591 c 128,-1,3
 625 1647 625 1647 680 1647 c 0,4,5
 719 1647 719 1647 734.5 1626 c 128,-1,6
 750 1605 750 1605 750 1561 c 128,-1,7
 750 1517 750 1517 719.5 1358 c 128,-1,8
 689 1199 689 1199 676 1085 c 1,9,10
 635 685 635 685 635 508 c 0,11,12
 635 477 635 477 635.5 460.5 c 128,-1,13
 636 444 636 444 637 415.5 c 128,-1,14
 638 387 638 387 641 371 c 128,-1,15
 644 355 644 355 649.5 337 c 128,-1,16
 655 319 655 319 663.5 311 c 128,-1,17
 672 303 672 303 684 303 c 0,18,19
 720 303 720 303 795.5 381.5 c 128,-1,20
 871 460 871 460 957 588 c 128,-1,21
 1043 716 1043 716 1122.5 861.5 c 128,-1,22
 1202 1007 1202 1007 1254.5 1160 c 128,-1,23
 1307 1313 1307 1313 1307 1421 c 2,24,-1
 1307 1511 l 2,25,26
 1307 1574 1307 1574 1332.5 1604 c 128,-1,27
 1358 1634 1358 1634 1425 1634 c 2,28,-1
 1524 1634 l 2,29,30
 1548 1634 1548 1634 1566 1618 c 128,-1,31
 1584 1602 1584 1602 1581 1573 c 0,32,33
 1574 1501 1574 1501 1545 1235 c 128,-1,34
 1516 969 1516 969 1499.5 762.5 c 128,-1,35
 1483 556 1483 556 1483 397 c 0,36,37
 1483 367 1483 367 1495.5 343 c 128,-1,38
 1508 319 1508 319 1528 319 c 0,39,40
 1557 319 1557 319 1620.5 394 c 128,-1,41
 1684 469 1684 469 1733 544 c 2,42,-1
 1782 618 l 1,43,-1
 1855 565 l 1,44,45
 1852 561 1852 561 1829.5 519.5 c 128,-1,46
 1807 478 1807 478 1780.5 437 c 128,-1,47
 1754 396 1754 396 1710 335 c 128,-1,48
 1666 274 1666 274 1599 199 c 128,-1,49
 1532 124 1532 124 1450 45 c 1,50,51
 1364 -41 1364 -41 1311 -41 c 0,52,53
 1264 -41 1264 -41 1236 11 c 128,-1,54
 1208 63 1208 63 1208 156 c 0,55,56
 1208 247 1208 247 1234.5 514.5 c 128,-1,57
 1261 782 1261 782 1270 938 c 1,58,59
 1188 754 1188 754 1061 545 c 1,60,61
 989 424 989 424 894.5 312 c 128,-1,62
 800 200 800 200 713.5 125.5 c 128,-1,63
 627 51 627 51 552.5 7 c 128,-1,64
 478 -37 478 -37 438 -37 c 0,65,66
 390 -37 390 -37 365 25 c 128,-1,67
 340 87 340 87 340 197 c 0,68,69
 340 332 340 332 387 740 c 128,-1,70
 434 1148 434 1148 434 1335 c 0,71,72
 434 1430 434 1430 381 1430 c 0,73,74
 358 1430 358 1430 332 1417 c 1,75,-1
 147 1335 l 1,76,-1
 102 1446 l 1,0,1
EndSplineSet
EndChar

StartChar: v
Encoding: 118 118 89
Width: 1568
GlyphClass: 2
Flags: W
LayerCount: 2
Fore
SplineSet
102 1454 m 1,0,1
 206 1498 206 1498 352 1560 c 0,2,3
 525 1634 525 1634 565 1648.5 c 128,-1,4
 605 1663 605 1663 635 1663 c 0,5,6
 673 1663 673 1663 691 1645 c 128,-1,7
 709 1627 709 1627 709 1597 c 0,8,9
 709 1553 709 1553 686.5 1413.5 c 128,-1,10
 664 1274 664 1274 641 1096.5 c 128,-1,11
 618 919 618 919 618 782 c 2,12,-1
 618 602 l 2,13,14
 618 388 618 388 641.5 296.5 c 128,-1,15
 665 205 665 205 737 205 c 0,16,17
 763 205 763 205 812.5 242.5 c 128,-1,18
 862 280 862 280 922.5 344.5 c 128,-1,19
 983 409 983 409 1046 504 c 128,-1,20
 1109 599 1109 599 1160.5 704.5 c 128,-1,21
 1212 810 1212 810 1245 939 c 128,-1,22
 1278 1068 1278 1068 1278 1192 c 0,23,24
 1278 1242 1278 1242 1267 1281 c 128,-1,25
 1256 1320 1256 1320 1240 1346 c 128,-1,26
 1224 1372 1224 1372 1208.5 1395.5 c 128,-1,27
 1193 1419 1193 1419 1182 1450.5 c 128,-1,28
 1171 1482 1171 1482 1171 1520 c 0,29,30
 1171 1582 1171 1582 1202 1616.5 c 128,-1,31
 1233 1651 1233 1651 1294 1651 c 0,32,33
 1349 1651 1349 1651 1389 1614 c 128,-1,34
 1429 1577 1429 1577 1447.5 1524 c 128,-1,35
 1466 1471 1466 1471 1466 1413 c 0,36,37
 1466 1230 1466 1230 1373 936.5 c 128,-1,38
 1280 643 1280 643 1147 438 c 0,39,40
 1059 304 1059 304 964.5 202.5 c 128,-1,41
 870 101 870 101 788 46 c 128,-1,42
 706 -9 706 -9 640 -35 c 128,-1,43
 574 -61 574 -61 524 -61 c 0,44,45
 478 -61 478 -61 444 -38.5 c 128,-1,46
 410 -16 410 -16 391.5 18 c 128,-1,47
 373 52 373 52 361.5 104 c 128,-1,48
 350 156 350 156 347 202 c 128,-1,49
 344 248 344 248 344 307 c 0,50,51
 344 609 344 609 414 1343 c 0,52,53
 417 1383 417 1383 402.5 1406.5 c 128,-1,54
 388 1430 388 1430 360 1430 c 0,55,56
 337 1430 337 1430 311 1417 c 1,57,-1
 127 1339 l 1,58,-1
 102 1454 l 1,0,1
EndSplineSet
EndChar

StartChar: w
Encoding: 119 119 90
Width: 2506
GlyphClass: 2
Flags: W
LayerCount: 2
Fore
SplineSet
102 1397 m 1,0,1
 331 1519 331 1519 470 1583 c 128,-1,2
 609 1647 609 1647 668 1647 c 0,3,4
 733 1647 733 1647 733 1585 c 0,5,6
 733 1559 733 1559 682 1098.5 c 128,-1,7
 631 638 631 638 631 557 c 0,8,9
 631 491 631 491 637.5 434 c 128,-1,10
 644 377 644 377 657 326.5 c 128,-1,11
 670 276 670 276 695 246.5 c 128,-1,12
 720 217 720 217 754 217 c 0,13,14
 820 217 820 217 925.5 324.5 c 128,-1,15
 1031 432 1031 432 1151 651 c 0,16,17
 1318 954 1318 954 1376 1503 c 0,18,19
 1383 1565 1383 1565 1405 1593.5 c 128,-1,20
 1427 1622 1427 1622 1487 1622 c 2,21,-1
 1569 1622 l 2,22,23
 1605 1622 1605 1622 1621.5 1594 c 128,-1,24
 1638 1566 1638 1566 1638 1532 c 1,25,26
 1633 1472 1633 1472 1608 1338 c 128,-1,27
 1583 1204 1583 1204 1563.5 1019.5 c 128,-1,28
 1544 835 1544 835 1544 594 c 0,29,30
 1544 534 1544 534 1545 491 c 128,-1,31
 1546 448 1546 448 1549.5 401 c 128,-1,32
 1553 354 1553 354 1560 323 c 128,-1,33
 1567 292 1567 292 1578.5 265 c 128,-1,34
 1590 238 1590 238 1607 225.5 c 128,-1,35
 1624 213 1624 213 1647 213 c 0,36,37
 1681 213 1681 213 1736 253.5 c 128,-1,38
 1791 294 1791 294 1854.5 362 c 128,-1,39
 1918 430 1918 430 1982.5 526.5 c 128,-1,40
 2047 623 2047 623 2098.5 727 c 128,-1,41
 2150 831 2150 831 2183 951 c 128,-1,42
 2216 1071 2216 1071 2216 1180 c 0,43,44
 2216 1235 2216 1235 2199.5 1283.5 c 128,-1,45
 2183 1332 2183 1332 2162.5 1361 c 128,-1,46
 2142 1390 2142 1390 2125.5 1430 c 128,-1,47
 2109 1470 2109 1470 2109 1511 c 0,48,49
 2109 1553 2109 1553 2147 1587.5 c 128,-1,50
 2185 1622 2185 1622 2253 1622 c 0,51,52
 2294 1622 2294 1622 2324.5 1603.5 c 128,-1,53
 2355 1585 2355 1585 2372 1552.5 c 128,-1,54
 2389 1520 2389 1520 2396.5 1482.5 c 128,-1,55
 2404 1445 2404 1445 2404 1401 c 0,56,57
 2404 1224 2404 1224 2302.5 930 c 128,-1,58
 2201 636 2201 636 2064 426 c 0,59,60
 1976 292 1976 292 1886 193.5 c 128,-1,61
 1796 95 1796 95 1720 44 c 128,-1,62
 1644 -7 1644 -7 1584 -30 c 128,-1,63
 1524 -53 1524 -53 1475 -53 c 0,64,65
 1425 -53 1425 -53 1389.5 -32.5 c 128,-1,66
 1354 -12 1354 -12 1334 19 c 128,-1,67
 1314 50 1314 50 1303 99 c 128,-1,68
 1292 148 1292 148 1289 191.5 c 128,-1,69
 1286 235 1286 235 1286 295 c 0,70,71
 1286 342 1286 342 1293 460 c 128,-1,72
 1300 578 1300 578 1308 672 c 2,73,-1
 1315 766 l 1,74,75
 1299 729 1299 729 1271.5 668.5 c 128,-1,76
 1244 608 1244 608 1162 462.5 c 128,-1,77
 1080 317 1080 317 1004 221 c 1,78,79
 914 105 914 105 781.5 26 c 128,-1,80
 649 -53 649 -53 569 -53 c 0,81,82
 511 -53 511 -53 469 -23.5 c 128,-1,83
 427 6 427 6 404 57 c 128,-1,84
 381 108 381 108 370.5 167 c 128,-1,85
 360 226 360 226 360 295 c 0,86,87
 360 489 360 489 400.5 871 c 128,-1,88
 441 1253 441 1253 442 1331 c 0,89,90
 442 1372 442 1372 427 1396.5 c 128,-1,91
 412 1421 412 1421 385 1421 c 0,92,93
 381 1421 381 1421 378 1420.5 c 128,-1,94
 375 1420 375 1420 371.5 1419.5 c 128,-1,95
 368 1419 368 1419 362.5 1417.5 c 128,-1,96
 357 1416 357 1416 351 1413.5 c 128,-1,97
 345 1411 345 1411 334.5 1406.5 c 128,-1,98
 324 1402 324 1402 313 1397.5 c 128,-1,99
 302 1393 302 1393 283.5 1384.5 c 128,-1,100
 265 1376 265 1376 245.5 1367.5 c 128,-1,101
 226 1359 226 1359 196 1345.5 c 128,-1,102
 166 1332 166 1332 135 1319 c 1,103,-1
 102 1397 l 1,0,1
EndSplineSet
EndChar

StartChar: x
Encoding: 120 120 91
Width: 1687
GlyphClass: 2
Flags: W
LayerCount: 2
Fore
SplineSet
41 90 m 0,0,1
 41 127 41 127 74.5 166 c 128,-1,2
 108 205 108 205 139 205 c 0,3,4
 158 205 158 205 171.5 193.5 c 128,-1,5
 185 182 185 182 192 168 c 128,-1,6
 199 154 199 154 215 142.5 c 128,-1,7
 231 131 231 131 254 131 c 0,8,9
 296 131 296 131 345 158 c 128,-1,10
 394 185 394 185 436 226 c 128,-1,11
 478 267 478 267 508 302 c 128,-1,12
 538 337 538 337 557 365 c 0,13,14
 654 506 654 506 704 638.5 c 128,-1,15
 754 771 754 771 754 930 c 0,16,17
 754 988 754 988 753 1031.5 c 128,-1,18
 752 1075 752 1075 749 1135.5 c 128,-1,19
 746 1196 746 1196 738.5 1239 c 128,-1,20
 731 1282 731 1282 720 1322.5 c 128,-1,21
 709 1363 709 1363 690.5 1384 c 128,-1,22
 672 1405 672 1405 647 1405 c 0,23,24
 604 1405 604 1405 562.5 1374 c 128,-1,25
 521 1343 521 1343 491.5 1298.5 c 128,-1,26
 462 1254 462 1254 439 1209 c 128,-1,27
 416 1164 416 1164 404 1133 c 2,28,-1
 393 1102 l 1,29,-1
 311 1147 l 2,30,31
 311 1148 311 1148 318.5 1167 c 128,-1,32
 326 1186 326 1186 327 1189.5 c 128,-1,33
 328 1193 328 1193 336 1212 c 128,-1,34
 344 1231 344 1231 348 1238.5 c 128,-1,35
 352 1246 352 1246 362 1266 c 128,-1,36
 372 1286 372 1286 380 1298.5 c 128,-1,37
 388 1311 388 1311 401 1332 c 128,-1,38
 414 1353 414 1353 427.5 1371.5 c 128,-1,39
 441 1390 441 1390 458.5 1413.5 c 128,-1,40
 476 1437 476 1437 496 1462 c 0,41,42
 642 1638 642 1638 795 1638 c 0,43,44
 847 1638 847 1638 884.5 1592.5 c 128,-1,45
 922 1547 922 1547 939.5 1482 c 128,-1,46
 957 1417 957 1417 967 1352 c 128,-1,47
 977 1287 977 1287 978 1242 c 2,48,-1
 979 1196 l 1,49,50
 985 1205 985 1205 996 1221 c 128,-1,51
 1007 1237 1007 1237 1041.5 1282.5 c 128,-1,52
 1076 1328 1076 1328 1111 1369 c 128,-1,53
 1146 1410 1146 1410 1196 1460.5 c 128,-1,54
 1246 1511 1246 1511 1292 1547.5 c 128,-1,55
 1338 1584 1338 1584 1390.5 1609 c 128,-1,56
 1443 1634 1443 1634 1487 1634 c 0,57,58
 1562 1634 1562 1634 1594 1598.5 c 128,-1,59
 1626 1563 1626 1563 1626 1520 c 0,60,61
 1626 1473 1626 1473 1589 1435 c 128,-1,62
 1552 1397 1552 1397 1516 1397 c 0,63,64
 1500 1397 1500 1397 1487 1409 c 128,-1,65
 1474 1421 1474 1421 1467 1436 c 128,-1,66
 1460 1451 1460 1451 1444.5 1463 c 128,-1,67
 1429 1475 1429 1475 1409 1475 c 0,68,69
 1372 1475 1372 1475 1295 1408.5 c 128,-1,70
 1218 1342 1218 1342 1139 1241 c 0,71,72
 1042 1117 1042 1117 994 1000.5 c 128,-1,73
 946 884 946 884 946 745 c 0,74,75
 946 646 946 646 972.5 552 c 128,-1,76
 999 458 999 458 1037.5 396 c 128,-1,77
 1076 334 1076 334 1117 296 c 128,-1,78
 1158 258 1158 258 1188 258 c 0,79,80
 1219 258 1219 258 1255.5 286 c 128,-1,81
 1292 314 1292 314 1320.5 352 c 128,-1,82
 1349 390 1349 390 1380 443 c 128,-1,83
 1411 496 1411 496 1428 530.5 c 128,-1,84
 1445 565 1445 565 1462 602 c 1,85,-1
 1561 573 l 1,86,87
 1554 557 1554 557 1534.5 513 c 128,-1,88
 1515 469 1515 469 1508 454.5 c 128,-1,89
 1501 440 1501 440 1482.5 403 c 128,-1,90
 1464 366 1464 366 1451 346.5 c 128,-1,91
 1438 327 1438 327 1414 290.5 c 128,-1,92
 1390 254 1390 254 1364.5 223.5 c 128,-1,93
 1339 193 1339 193 1303.5 152 c 128,-1,94
 1268 111 1268 111 1225 66 c 0,95,96
 1133 -33 1133 -33 1069 -33 c 0,97,98
 1021 -33 1021 -33 979 -3 c 128,-1,99
 937 27 937 27 907.5 75 c 128,-1,100
 878 123 878 123 853.5 181 c 128,-1,101
 829 239 829 239 814 297.5 c 128,-1,102
 799 356 799 356 788.5 404 c 128,-1,103
 778 452 778 452 774 482 c 2,104,-1
 770 512 l 1,105,106
 765 501 765 501 755 481 c 128,-1,107
 745 461 745 461 713 404.5 c 128,-1,108
 681 348 681 348 646.5 296.5 c 128,-1,109
 612 245 612 245 559.5 182 c 128,-1,110
 507 119 507 119 454.5 74 c 128,-1,111
 402 29 402 29 335.5 -2 c 128,-1,112
 269 -33 269 -33 205 -33 c 0,113,114
 129 -33 129 -33 85 -1.5 c 128,-1,115
 41 30 41 30 41 90 c 0,0,1
EndSplineSet
EndChar

StartChar: y
Encoding: 121 121 92
Width: 1576
GlyphClass: 2
Flags: W
LayerCount: 2
Fore
SplineSet
-8 -971 m 1,0,1
 20 -964 20 -964 59 -956.5 c 128,-1,2
 98 -949 98 -949 114 -944.5 c 128,-1,3
 130 -940 130 -940 160 -926 c 128,-1,4
 190 -912 190 -912 218.5 -887.5 c 128,-1,5
 247 -863 247 -863 292 -820 c 128,-1,6
 337 -777 337 -777 401 -709 c 0,7,8
 545 -557 545 -557 684 -324.5 c 128,-1,9
 823 -92 823 -92 823 -8 c 0,10,11
 823 84 823 84 727 445.5 c 128,-1,12
 631 807 631 807 532 1073 c 0,13,14
 427 1356 427 1356 381 1356 c 0,15,16
 368 1356 368 1356 355 1349.5 c 128,-1,17
 342 1343 342 1343 327.5 1327.5 c 128,-1,18
 313 1312 313 1312 299.5 1295.5 c 128,-1,19
 286 1279 286 1279 268 1251.5 c 128,-1,20
 250 1224 250 1224 235 1201 c 128,-1,21
 220 1178 220 1178 197 1141 c 128,-1,22
 174 1104 174 1104 156 1077 c 1,23,-1
 61 1135 l 1,24,25
 63 1137 63 1137 87.5 1177 c 128,-1,26
 112 1217 112 1217 142 1263.5 c 128,-1,27
 172 1310 172 1310 217 1370.5 c 128,-1,28
 262 1431 262 1431 303 1475 c 0,29,30
 378 1554 378 1554 437.5 1598 c 128,-1,31
 497 1642 497 1642 545 1642 c 0,32,33
 607 1642 607 1642 658 1550.5 c 128,-1,34
 709 1459 709 1459 770 1253 c 0,35,36
 798 1157 798 1157 830 1033 c 128,-1,37
 862 909 862 909 920.5 679 c 128,-1,38
 979 449 979 449 1008 336 c 1,39,40
 1221 853 1221 853 1221 1389 c 0,41,42
 1221 1428 1221 1428 1211.5 1458.5 c 128,-1,43
 1202 1489 1202 1489 1189 1505 c 128,-1,44
 1176 1521 1176 1521 1162.5 1531.5 c 128,-1,45
 1149 1542 1149 1542 1140 1545 c 2,46,-1
 1130 1548 l 1,47,-1
 1135 1618 l 1,48,49
 1201 1626 1201 1626 1278 1626 c 2,50,-1
 1303 1626 l 2,51,52
 1404 1626 1404 1626 1439.5 1607.5 c 128,-1,53
 1475 1589 1475 1589 1475 1520 c 0,54,55
 1475 1419 1475 1419 1391.5 1115.5 c 128,-1,56
 1308 812 1308 812 1172.5 435 c 128,-1,57
 1037 58 1037 58 909 -201 c 0,58,59
 695 -636 695 -636 438 -999 c 0,60,61
 435 -1002 435 -1002 429 -1010.5 c 128,-1,62
 423 -1019 423 -1019 420 -1022.5 c 128,-1,63
 417 -1026 417 -1026 411.5 -1032.5 c 128,-1,64
 406 -1039 406 -1039 402 -1042 c 128,-1,65
 398 -1045 398 -1045 391.5 -1049.5 c 128,-1,66
 385 -1054 385 -1054 379 -1056 c 128,-1,67
 373 -1058 373 -1058 365 -1060.5 c 128,-1,68
 357 -1063 357 -1063 348 -1064 c 128,-1,69
 339 -1065 339 -1065 328 -1065 c 2,70,-1
 -8 -1065 l 1,71,-1
 -8 -971 l 1,0,1
EndSplineSet
EndChar

StartChar: z
Encoding: 122 122 93
Width: 1843
GlyphClass: 2
Flags: W
LayerCount: 2
Fore
SplineSet
41 -106 m 128,-1,1
 41 -49 41 -49 62 10 c 128,-1,2
 83 69 83 69 113.5 116.5 c 128,-1,3
 144 164 144 164 196.5 223 c 128,-1,4
 249 282 249 282 292 323.5 c 128,-1,5
 335 365 335 365 403 430 c 128,-1,6
 471 495 471 495 512 537 c 2,7,-1
 1298 1335 l 1,8,9
 1119 1346 1119 1346 893.5 1381.5 c 128,-1,10
 668 1417 668 1417 631 1417 c 0,11,12
 564 1417 564 1417 511 1408 c 128,-1,13
 458 1399 458 1399 429.5 1386 c 128,-1,14
 401 1373 401 1373 382 1357.5 c 128,-1,15
 363 1342 363 1342 357.5 1331.5 c 128,-1,16
 352 1321 352 1321 352 1315 c 0,17,18
 352 1298 352 1298 369.5 1279.5 c 128,-1,19
 387 1261 387 1261 407.5 1247.5 c 128,-1,20
 428 1234 428 1234 445.5 1212.5 c 128,-1,21
 463 1191 463 1191 463 1167 c 0,22,23
 463 1129 463 1129 440 1105 c 128,-1,24
 417 1081 417 1081 365 1081 c 0,25,26
 317 1081 317 1081 275 1130 c 128,-1,27
 233 1179 233 1179 233 1257 c 0,28,29
 233 1363 233 1363 302.5 1453 c 128,-1,30
 372 1543 372 1543 489.5 1595 c 128,-1,31
 607 1647 607 1647 745 1647 c 0,32,33
 897 1647 897 1647 1117.5 1610 c 128,-1,34
 1338 1573 1338 1573 1475 1573 c 0,35,36
 1519 1573 1519 1573 1535.5 1585.5 c 128,-1,37
 1552 1598 1552 1598 1552 1634 c 0,38,39
 1552 1642 1552 1642 1540 1672.5 c 128,-1,40
 1528 1703 1528 1703 1528 1724 c 0,41,42
 1528 1764 1528 1764 1556 1793.5 c 128,-1,43
 1584 1823 1584 1823 1634 1823 c 0,44,45
 1671 1823 1671 1823 1716 1783.5 c 128,-1,46
 1761 1744 1761 1744 1761 1679 c 0,47,48
 1761 1649 1761 1649 1732.5 1604.5 c 128,-1,49
 1704 1560 1704 1560 1678.5 1532.5 c 128,-1,50
 1653 1505 1653 1505 1606 1458 c 2,51,-1
 430 291 l 1,52,53
 441 296 441 296 462 302.5 c 128,-1,54
 483 309 483 309 559.5 320.5 c 128,-1,55
 636 332 636 332 725 332 c 0,56,57
 822 332 822 332 933.5 303 c 128,-1,58
 1045 274 1045 274 1146 245.5 c 128,-1,59
 1247 217 1247 217 1319 217 c 0,60,61
 1370 217 1370 217 1411.5 238.5 c 128,-1,62
 1453 260 1453 260 1477.5 290 c 128,-1,63
 1502 320 1502 320 1519 354.5 c 128,-1,64
 1536 389 1536 389 1542 413.5 c 128,-1,65
 1548 438 1548 438 1548 451 c 0,66,67
 1548 489 1548 489 1535.5 521 c 128,-1,68
 1523 553 1523 553 1512 566.5 c 128,-1,69
 1501 580 1501 580 1483 598 c 1,70,-1
 1544 655 l 1,71,72
 1550 653 1550 653 1559.5 648 c 128,-1,73
 1569 643 1569 643 1594 623 c 128,-1,74
 1619 603 1619 603 1638 577.5 c 128,-1,75
 1657 552 1657 552 1672.5 506 c 128,-1,76
 1688 460 1688 460 1688 406 c 0,77,78
 1688 335 1688 335 1660.5 258.5 c 128,-1,79
 1633 182 1633 182 1582.5 112 c 128,-1,80
 1532 42 1532 42 1446.5 -3.5 c 128,-1,81
 1361 -49 1361 -49 1257 -49 c 0,82,83
 1178 -49 1178 -49 1078 -22.5 c 128,-1,84
 978 4 978 4 896.5 35 c 128,-1,85
 815 66 815 66 712 92.5 c 128,-1,86
 609 119 609 119 524 119 c 0,87,88
 365 119 365 119 276.5 75.5 c 128,-1,89
 188 32 188 32 188 -33 c 0,90,91
 188 -35 188 -35 196.5 -80 c 128,-1,92
 205 -125 205 -125 205 -152 c 0,93,94
 205 -229 205 -229 135 -229 c 0,95,96
 94 -229 94 -229 67.5 -196 c 128,-1,0
 41 -163 41 -163 41 -106 c 128,-1,1
EndSplineSet
Substitution2: "'swsh' Swash in Latin lookup 13 subtable" z.001
AlternateSubs2: "'aalt' Access All Alternates in Latin lookup 1 subtable" z.001
AlternateSubs2: "'aalt' Access All Alternates lookup 0 subtable" z.001
EndChar

StartChar: braceleft
Encoding: 123 123 94
Width: 1150
GlyphClass: 2
Flags: W
LayerCount: 2
Fore
SplineSet
70 942 m 1,0,-1
 70 1020 l 1,1,2
 84 1023 84 1023 113 1028 c 0,3,4
 177 1040 177 1040 208.5 1049 c 128,-1,5
 240 1058 240 1058 286.5 1090.5 c 128,-1,6
 333 1123 333 1123 354.5 1175 c 128,-1,7
 376 1227 376 1227 393 1324.5 c 128,-1,8
 410 1422 410 1422 410 1561 c 0,9,10
 410 1630 410 1630 403.5 1796.5 c 128,-1,11
 397 1963 397 1963 397 2060 c 0,12,13
 397 2198 397 2198 419.5 2318 c 128,-1,14
 442 2438 442 2438 493 2545 c 128,-1,15
 544 2652 544 2652 622 2728 c 128,-1,16
 700 2804 700 2804 817 2848 c 128,-1,17
 934 2892 934 2892 1081 2892 c 1,18,-1
 1081 2773 l 1,19,20
 1017 2773 1017 2773 963 2760 c 128,-1,21
 909 2747 909 2747 869 2725.5 c 128,-1,22
 829 2704 829 2704 797 2669 c 128,-1,23
 765 2634 765 2634 743 2597 c 128,-1,24
 721 2560 721 2560 705.5 2509.5 c 128,-1,25
 690 2459 690 2459 681 2413 c 128,-1,26
 672 2367 672 2367 667 2307 c 128,-1,27
 662 2247 662 2247 660.5 2198 c 128,-1,28
 659 2149 659 2149 659 2085 c 0,29,30
 659 1967 659 1967 669.5 1773 c 128,-1,31
 680 1579 680 1579 680 1495 c 0,32,33
 680 1285 680 1285 617.5 1162.5 c 128,-1,34
 555 1040 555 1040 406 983 c 1,35,36
 506 945 506 945 567 871.5 c 128,-1,37
 628 798 628 798 652 701 c 128,-1,38
 676 604 676 604 676 467 c 0,39,40
 676 385 676 385 667.5 192.5 c 128,-1,41
 659 0 659 0 659 -119 c 0,42,43
 659 -205 659 -205 661.5 -266.5 c 128,-1,44
 664 -328 664 -328 673.5 -407 c 128,-1,45
 683 -486 683 -486 700 -541.5 c 128,-1,46
 717 -597 717 -597 748.5 -654.5 c 128,-1,47
 780 -712 780 -712 823.5 -747 c 128,-1,48
 867 -782 867 -782 932.5 -804.5 c 128,-1,49
 998 -827 998 -827 1081 -827 c 1,50,-1
 1081 -946 l 1,51,52
 932 -946 932 -946 815 -904.5 c 128,-1,53
 698 -863 698 -863 620 -789.5 c 128,-1,54
 542 -716 542 -716 491.5 -608.5 c 128,-1,55
 441 -501 441 -501 419 -375.5 c 128,-1,56
 397 -250 397 -250 397 -98 c 0,57,58
 397 -5 397 -5 405.5 161.5 c 128,-1,59
 414 328 414 328 414 401 c 0,60,61
 414 480 414 480 408.5 545.5 c 128,-1,62
 403 611 403 611 394.5 660 c 128,-1,63
 386 709 386 709 370.5 748 c 128,-1,64
 355 787 355 787 340.5 813 c 128,-1,65
 326 839 326 839 303 859 c 128,-1,66
 280 879 280 879 262.5 890 c 128,-1,67
 245 901 245 901 216.5 910 c 128,-1,68
 188 919 188 919 169.5 923 c 128,-1,69
 151 927 151 927 119.5 932.5 c 128,-1,70
 88 938 88 938 70 942 c 1,0,-1
EndSplineSet
EndChar

StartChar: bar
Encoding: 124 124 95
Width: 901
GlyphClass: 2
Flags: W
LayerCount: 2
Fore
SplineSet
360 -946 m 1,0,-1
 360 2892 l 1,1,-1
 541 2892 l 1,2,-1
 541 -946 l 1,3,-1
 360 -946 l 1,0,-1
EndSplineSet
EndChar

StartChar: braceright
Encoding: 125 125 96
Width: 1150
GlyphClass: 2
Flags: W
LayerCount: 2
Fore
SplineSet
70 -827 m 1,0,1
 153 -827 153 -827 218.5 -804.5 c 128,-1,2
 284 -782 284 -782 328 -747 c 128,-1,3
 372 -712 372 -712 404 -654.5 c 128,-1,4
 436 -597 436 -597 453.5 -541 c 128,-1,5
 471 -485 471 -485 481 -407 c 128,-1,6
 491 -329 491 -329 493.5 -266 c 128,-1,7
 496 -203 496 -203 496 -119 c 0,8,9
 496 0 496 0 485.5 192.5 c 128,-1,10
 475 385 475 385 475 467 c 0,11,12
 475 672 475 672 538.5 799.5 c 128,-1,13
 602 927 602 927 750 983 c 1,14,15
 600 1040 600 1040 537.5 1163 c 128,-1,16
 475 1286 475 1286 475 1495 c 0,17,18
 475 1579 475 1579 483.5 1773 c 128,-1,19
 492 1967 492 1967 492 2085 c 0,20,21
 492 2149 492 2149 490.5 2198 c 128,-1,22
 489 2247 489 2247 484 2307 c 128,-1,23
 479 2367 479 2367 470 2413 c 128,-1,24
 461 2459 461 2459 445.5 2509.5 c 128,-1,25
 430 2560 430 2560 408 2597 c 128,-1,26
 386 2634 386 2634 354 2669 c 128,-1,27
 322 2704 322 2704 282 2725.5 c 128,-1,28
 242 2747 242 2747 188 2760 c 128,-1,29
 134 2773 134 2773 70 2773 c 1,30,-1
 70 2892 l 1,31,32
 217 2892 217 2892 334.5 2848 c 128,-1,33
 452 2804 452 2804 530.5 2728 c 128,-1,34
 609 2652 609 2652 661 2545 c 128,-1,35
 713 2438 713 2438 735.5 2318 c 128,-1,36
 758 2198 758 2198 758 2060 c 0,37,38
 758 1963 758 1963 749.5 1796.5 c 128,-1,39
 741 1630 741 1630 741 1561 c 0,40,41
 741 1482 741 1482 746 1417.5 c 128,-1,42
 751 1353 751 1353 759 1304 c 128,-1,43
 767 1255 767 1255 782 1216.5 c 128,-1,44
 797 1178 797 1178 810.5 1151.5 c 128,-1,45
 824 1125 824 1125 847 1104.5 c 128,-1,46
 870 1084 870 1084 887.5 1073 c 128,-1,47
 905 1062 905 1062 935 1052.5 c 128,-1,48
 965 1043 965 1043 984.5 1038.5 c 128,-1,49
 1004 1034 1004 1034 1038 1028 c 0,50,51
 1048 1026 1048 1026 1053 1025 c 128,-1,52
 1058 1024 1058 1024 1066 1022.5 c 128,-1,53
 1074 1021 1074 1021 1081 1020 c 1,54,-1
 1081 942 l 1,55,56
 1064 938 1064 938 1032 932.5 c 128,-1,57
 1000 927 1000 927 982 923 c 128,-1,58
 964 919 964 919 935.5 910 c 128,-1,59
 907 901 907 901 890 890 c 128,-1,60
 873 879 873 879 850 859 c 128,-1,61
 827 839 827 839 813 813 c 128,-1,62
 799 787 799 787 783.5 748 c 128,-1,63
 768 709 768 709 760 660 c 128,-1,64
 752 611 752 611 746.5 545.5 c 128,-1,65
 741 480 741 480 741 401 c 0,66,67
 741 328 741 328 749.5 161.5 c 128,-1,68
 758 -5 758 -5 758 -98 c 0,69,70
 758 -250 758 -250 735.5 -375.5 c 128,-1,71
 713 -501 713 -501 662 -608.5 c 128,-1,72
 611 -716 611 -716 532 -789.5 c 128,-1,73
 453 -863 453 -863 336 -904.5 c 128,-1,74
 219 -946 219 -946 70 -946 c 1,75,-1
 70 -827 l 1,0,1
EndSplineSet
EndChar

StartChar: exclamdown
Encoding: 161 161 99
Width: 1167
GlyphClass: 2
Flags: W
LayerCount: 2
Fore
SplineSet
406 8 m 0,0,1
 406 37 406 37 413 91.5 c 128,-1,2
 420 146 420 146 438.5 272 c 128,-1,3
 457 398 457 398 482 558.5 c 128,-1,4
 507 719 507 719 552 1029.5 c 128,-1,5
 597 1340 597 1340 647 1696 c 0,6,7
 651 1722 651 1722 654 1753 c 128,-1,8
 657 1784 657 1784 659 1803 c 128,-1,9
 661 1822 661 1822 664 1843 c 128,-1,10
 667 1864 667 1864 670.5 1875.5 c 128,-1,11
 674 1887 674 1887 680.5 1897.5 c 128,-1,12
 687 1908 687 1908 697 1912.5 c 128,-1,13
 707 1917 707 1917 721 1917 c 0,14,15
 786 1917 786 1917 786 1802 c 0,16,17
 786 1782 786 1782 772 1490 c 128,-1,18
 758 1198 758 1198 743.5 804 c 128,-1,19
 729 410 729 410 729 143 c 0,20,21
 729 128 729 128 726.5 115.5 c 128,-1,22
 724 103 724 103 717.5 92.5 c 128,-1,23
 711 82 711 82 705 74 c 128,-1,24
 699 66 699 66 685 57 c 128,-1,25
 671 48 671 48 661.5 42 c 128,-1,26
 652 36 652 36 630.5 27 c 128,-1,27
 609 18 609 18 596 13 c 128,-1,28
 583 8 583 8 554 -2.5 c 128,-1,29
 525 -13 525 -13 508 -20 c 0,30,31
 466 -37 466 -37 446 -37 c 0,32,33
 406 -37 406 -37 406 8 c 0,0,1
582 2413 m 0,34,35
 582 2454 582 2454 650 2529.5 c 128,-1,36
 718 2605 718 2605 770 2605 c 0,37,38
 813 2605 813 2605 869.5 2527 c 128,-1,39
 926 2449 926 2449 926 2408 c 0,40,41
 926 2353 926 2353 857 2284.5 c 128,-1,42
 788 2216 788 2216 745 2216 c 0,43,44
 695 2216 695 2216 638.5 2289.5 c 128,-1,45
 582 2363 582 2363 582 2413 c 0,34,35
EndSplineSet
Position2: "'cpsp' Capital Spacing in Latin lookup 0 subtable" dx=33 dy=0 dh=66 dv=0
EndChar

StartChar: cent
Encoding: 162 162 100
Width: 1748
GlyphClass: 2
Flags: W
LayerCount: 2
Fore
SplineSet
98 897 m 0,0,1
 98 1005 98 1005 121.5 1111 c 128,-1,2
 145 1217 145 1217 191 1316.5 c 128,-1,3
 237 1416 237 1416 309.5 1501 c 128,-1,4
 382 1586 382 1586 474.5 1650 c 128,-1,5
 567 1714 567 1714 690 1750 c 128,-1,6
 813 1786 813 1786 954 1786 c 1,7,-1
 1249 2970 l 1,8,-1
 1413 2949 l 1,9,-1
 1073 1774 l 1,10,11
 1289 1739 1289 1739 1437 1615 c 128,-1,12
 1585 1491 1585 1491 1585 1327 c 0,13,14
 1585 1225 1585 1225 1514.5 1151 c 128,-1,15
 1444 1077 1444 1077 1343 1077 c 0,16,17
 1254 1077 1254 1077 1190 1135 c 128,-1,18
 1126 1193 1126 1193 1126 1270 c 0,19,20
 1126 1317 1126 1317 1151 1358 c 128,-1,21
 1176 1399 1176 1399 1206 1422.5 c 128,-1,22
 1236 1446 1236 1446 1261 1472.5 c 128,-1,23
 1286 1499 1286 1499 1286 1520 c 0,24,25
 1286 1563 1286 1563 1212.5 1609.5 c 128,-1,26
 1139 1656 1139 1656 1044 1659 c 1,27,-1
 651 213 l 1,28,29
 785 90 785 90 983 90 c 0,30,31
 1078 90 1078 90 1170 122.5 c 128,-1,32
 1262 155 1262 155 1323.5 196 c 128,-1,33
 1385 237 1385 237 1442.5 292 c 128,-1,34
 1500 347 1500 347 1521 373.5 c 128,-1,35
 1542 400 1542 400 1559 423 c 1,36,-1
 1561 426 l 1,37,-1
 1651 340 l 1,38,39
 1648 338 1648 338 1616.5 302 c 128,-1,40
 1585 266 1585 266 1547 226 c 128,-1,41
 1509 186 1509 186 1443 135 c 128,-1,42
 1377 84 1377 84 1306.5 45 c 128,-1,43
 1236 6 1236 6 1138 -21.5 c 128,-1,44
 1040 -49 1040 -49 938 -49 c 0,45,46
 762 -49 762 -49 602 25 c 1,47,-1
 389 -827 l 1,48,-1
 246 -791 l 1,49,-1
 500 82 l 1,50,51
 316 198 316 198 207 406 c 128,-1,52
 98 614 98 614 98 897 c 0,0,1
426 872 m 0,53,54
 426 518 426 518 561 319 c 1,55,-1
 918 1647 l 1,56,57
 766 1617 766 1617 653.5 1507 c 128,-1,58
 541 1397 541 1397 483.5 1233 c 128,-1,59
 426 1069 426 1069 426 872 c 0,53,54
EndSplineSet
EndChar

StartChar: sterling
Encoding: 163 163 101
Width: 1781
GlyphClass: 2
Flags: W
LayerCount: 2
Fore
SplineSet
70 94 m 0,0,1
 70 153 70 153 101.5 204 c 128,-1,2
 133 255 133 255 186.5 292.5 c 128,-1,3
 240 330 240 330 292.5 358.5 c 128,-1,4
 345 387 345 387 405 416 c 128,-1,5
 465 445 465 445 492 463 c 1,6,7
 533 508 533 508 555.5 641 c 128,-1,8
 578 774 578 774 578 885 c 0,9,10
 578 887 578 887 575.5 903 c 128,-1,11
 573 919 573 919 570 947 c 128,-1,12
 567 975 567 975 565 1004 c 1,13,-1
 111 1004 l 1,14,-1
 111 1163 l 1,15,-1
 549 1163 l 1,16,17
 512 1552 512 1552 512 1614 c 0,18,19
 512 1832 512 1832 550 2012 c 128,-1,20
 588 2192 588 2192 656 2319.5 c 128,-1,21
 724 2447 724 2447 818.5 2535 c 128,-1,22
 913 2623 913 2623 1025.5 2665 c 128,-1,23
 1138 2707 1138 2707 1266 2707 c 0,24,25
 1380 2707 1380 2707 1482.5 2658.5 c 128,-1,26
 1585 2610 1585 2610 1648.5 2523.5 c 128,-1,27
 1712 2437 1712 2437 1712 2335 c 0,28,29
 1712 2251 1712 2251 1665.5 2196.5 c 128,-1,30
 1619 2142 1619 2142 1556 2142 c 0,31,32
 1422 2142 1422 2142 1384 2343 c 1,33,34
 1362 2445 1362 2445 1345 2479 c 0,35,36
 1301 2569 1301 2569 1181 2572 c 0,37,38
 1176 2572 1176 2572 1171 2572 c 0,39,40
 1129 2572 1129 2572 1087 2558.5 c 128,-1,41
 1045 2545 1045 2545 1001 2512 c 128,-1,42
 957 2479 957 2479 923.5 2429.5 c 128,-1,43
 890 2380 890 2380 869 2300.5 c 128,-1,44
 848 2221 848 2221 848 2122 c 0,45,46
 848 2097 848 2097 850 1888 c 128,-1,47
 852 1679 852 1679 852 1470 c 0,48,49
 852 1328 852 1328 831 1163 c 1,50,-1
 1319 1163 l 1,51,-1
 1319 1004 l 1,52,-1
 807 1004 l 1,53,54
 778 864 778 864 733 736 c 128,-1,55
 688 608 688 608 658 550 c 2,56,-1
 627 492 l 1,57,58
 647 504 647 504 676 504 c 0,59,60
 747 504 747 504 813 482 c 128,-1,61
 879 460 879 460 929.5 424.5 c 128,-1,62
 980 389 980 389 1027 346 c 128,-1,63
 1074 303 1074 303 1116 260 c 128,-1,64
 1158 217 1158 217 1197 181.5 c 128,-1,65
 1236 146 1236 146 1280 124 c 128,-1,66
 1324 102 1324 102 1368 102 c 0,67,68
 1430 102 1430 102 1473 158.5 c 128,-1,69
 1516 215 1516 215 1516 283 c 0,70,71
 1516 320 1516 320 1499 353 c 128,-1,72
 1482 386 1482 386 1458 411 c 128,-1,73
 1434 436 1434 436 1410 461.5 c 128,-1,74
 1386 487 1386 487 1369 520 c 128,-1,75
 1352 553 1352 553 1352 590 c 0,76,77
 1352 647 1352 647 1388 694 c 128,-1,78
 1424 741 1424 741 1479 741 c 0,79,80
 1542 741 1542 741 1593.5 689 c 128,-1,81
 1645 637 1645 637 1672.5 559.5 c 128,-1,82
 1700 482 1700 482 1700 401 c 0,83,84
 1700 278 1700 278 1639.5 173 c 128,-1,85
 1579 68 1579 68 1466 3.5 c 128,-1,86
 1353 -61 1353 -61 1212 -61 c 0,87,88
 1150 -61 1150 -61 1097.5 -46.5 c 128,-1,89
 1045 -32 1045 -32 1010 -12.5 c 128,-1,90
 975 7 975 7 937 45 c 128,-1,91
 899 83 899 83 877.5 111 c 128,-1,92
 856 139 856 139 818.5 192 c 128,-1,93
 781 245 781 245 758 274 c 0,94,95
 655 401 655 401 594 401 c 0,96,97
 556 401 556 401 525 354 c 128,-1,98
 494 307 494 307 468 240.5 c 128,-1,99
 442 174 442 174 411.5 107.5 c 128,-1,100
 381 41 381 41 329 -6 c 128,-1,101
 277 -53 277 -53 209 -53 c 0,102,103
 149 -53 149 -53 109.5 -9.5 c 128,-1,104
 70 34 70 34 70 94 c 0,0,1
EndSplineSet
EndChar

StartChar: currency
Encoding: 164 164 102
Width: 2134
GlyphClass: 2
Flags: W
LayerCount: 2
Fore
SplineSet
70 180 m 0,0,1
 70 203 70 203 82 226.5 c 128,-1,2
 94 250 94 250 106.5 264.5 c 128,-1,3
 119 279 119 279 143 303 c 2,4,-1
 422 586 l 1,5,6
 262 798 262 798 262 1073 c 0,7,8
 262 1204 262 1204 303 1328.5 c 128,-1,9
 344 1453 344 1453 418 1552 c 1,10,-1
 143 1835 l 1,11,-1
 136 1841 l 2,12,13
 130 1847 130 1847 125 1852.5 c 128,-1,14
 120 1858 120 1858 111.5 1867.5 c 128,-1,15
 103 1877 103 1877 96.5 1887 c 128,-1,16
 90 1897 90 1897 83.5 1908.5 c 128,-1,17
 77 1920 77 1920 73.5 1933 c 128,-1,18
 70 1946 70 1946 70 1958 c 0,19,20
 70 2006 70 2006 102 2037 c 128,-1,21
 134 2068 134 2068 176 2068 c 0,22,23
 230 2068 230 2068 303 1995 c 2,24,-1
 586 1712 l 1,25,26
 686 1787 686 1787 810.5 1829.5 c 128,-1,27
 935 1872 935 1872 1065 1872 c 0,28,29
 1332 1872 1332 1872 1548 1712 c 1,30,-1
 1831 1995 l 2,31,32
 1900 2064 1900 2064 1954 2064 c 0,33,34
 2002 2064 2002 2064 2033 2032 c 128,-1,35
 2064 2000 2064 2000 2064 1958 c 0,36,37
 2064 1935 2064 1935 2052 1911.5 c 128,-1,38
 2040 1888 2040 1888 2027.5 1873.5 c 128,-1,39
 2015 1859 2015 1859 1991 1835 c 2,40,-1
 1708 1548 l 1,41,42
 1876 1317 1876 1317 1876 1065 c 0,43,44
 1876 815 1876 815 1708 590 c 1,45,-1
 1991 303 l 1,46,-1
 1998 297 l 2,47,48
 2004 291 2004 291 2009 285.5 c 128,-1,49
 2014 280 2014 280 2022.5 270.5 c 128,-1,50
 2031 261 2031 261 2037.5 251 c 128,-1,51
 2044 241 2044 241 2050.5 229.5 c 128,-1,52
 2057 218 2057 218 2060.5 205 c 128,-1,53
 2064 192 2064 192 2064 180 c 0,54,55
 2064 133 2064 133 2030 101.5 c 128,-1,56
 1996 70 1996 70 1954 70 c 0,57,58
 1931 70 1931 70 1907.5 82 c 128,-1,59
 1884 94 1884 94 1869.5 106.5 c 128,-1,60
 1855 119 1855 119 1831 143 c 2,61,-1
 1548 426 l 1,62,63
 1447 351 1447 351 1322 308.5 c 128,-1,64
 1197 266 1197 266 1065 266 c 0,65,66
 934 266 934 266 809.5 307 c 128,-1,67
 685 348 685 348 586 422 c 1,68,-1
 303 143 l 2,69,70
 234 74 234 74 176 74 c 0,71,72
 129 74 129 74 99.5 106 c 128,-1,73
 70 138 70 138 70 180 c 0,0,1
496 1065 m 0,74,75
 496 906 496 906 573 774 c 128,-1,76
 650 642 650 642 780.5 567 c 128,-1,77
 911 492 911 492 1065 492 c 0,78,79
 1218 492 1218 492 1350 569 c 128,-1,80
 1482 646 1482 646 1560 779.5 c 128,-1,81
 1638 913 1638 913 1638 1069 c 0,82,83
 1638 1224 1638 1224 1561 1359 c 128,-1,84
 1484 1494 1484 1494 1351.5 1574.5 c 128,-1,85
 1219 1655 1219 1655 1065 1655 c 0,86,87
 909 1655 909 1655 777.5 1574.5 c 128,-1,88
 646 1494 646 1494 571 1358.5 c 128,-1,89
 496 1223 496 1223 496 1065 c 0,74,75
EndSplineSet
EndChar

StartChar: yen
Encoding: 165 165 103
Width: 2617
GlyphClass: 2
Flags: W
LayerCount: 2
Fore
SplineSet
111 2568 m 1,0,-1
 115 2732 l 1,1,-1
 1032 2732 l 1,2,-1
 1032 2568 l 1,3,-1
 930 2568 l 2,4,5
 825 2568 825 2568 781 2558.5 c 128,-1,6
 737 2549 737 2549 737 2515 c 0,7,8
 737 2499 737 2499 760.5 2456.5 c 128,-1,9
 784 2414 784 2414 877 2269 c 2,10,-1
 1397 1450 l 1,11,-1
 2114 2466 l 1,12,13
 2138 2506 2138 2506 2138 2515 c 0,14,15
 2138 2549 2138 2549 2075 2558.5 c 128,-1,16
 2012 2568 2012 2568 1872 2568 c 2,17,-1
 1806 2568 l 1,18,-1
 1802 2732 l 1,19,-1
 2548 2732 l 1,20,-1
 2548 2568 l 1,21,-1
 2527 2568 l 2,22,23
 2482 2568 2482 2568 2460 2566 c 128,-1,24
 2438 2564 2438 2564 2411 2556 c 128,-1,25
 2384 2548 2384 2548 2363 2528.5 c 128,-1,26
 2342 2509 2342 2509 2316 2478.5 c 128,-1,27
 2290 2448 2290 2448 2253 2396 c 2,28,-1
 1704 1606 l 1,29,-1
 2142 1606 l 1,30,-1
 2093 1409 l 1,31,-1
 1540 1409 l 1,32,-1
 1454 1270 l 1,33,-1
 1454 1004 l 1,34,-1
 2142 1004 l 1,35,-1
 2093 807 l 1,36,-1
 1454 807 l 1,37,-1
 1454 348 l 2,38,39
 1454 300 1454 300 1455.5 274 c 128,-1,40
 1457 248 1457 248 1466 223.5 c 128,-1,41
 1475 199 1475 199 1488 189 c 128,-1,42
 1501 179 1501 179 1531 171 c 128,-1,43
 1561 163 1561 163 1596 161.5 c 128,-1,44
 1631 160 1631 160 1692 160 c 2,45,-1
 1880 160 l 1,46,-1
 1876 0 l 1,47,-1
 725 0 l 1,48,-1
 729 160 l 1,49,-1
 893 160 l 2,50,51
 936 160 936 160 961 160.5 c 128,-1,52
 986 161 986 161 1013.5 164 c 128,-1,53
 1041 167 1041 167 1054.5 171.5 c 128,-1,54
 1068 176 1068 176 1082.5 185.5 c 128,-1,55
 1097 195 1097 195 1103 207 c 128,-1,56
 1109 219 1109 219 1114.5 239.5 c 128,-1,57
 1120 260 1120 260 1121 283 c 128,-1,58
 1122 306 1122 306 1122 340 c 2,59,-1
 1122 807 l 1,60,-1
 475 807 l 1,61,-1
 524 1004 l 1,62,-1
 1122 1004 l 1,63,-1
 1122 1303 l 1,64,-1
 1061 1409 l 1,65,-1
 475 1409 l 1,66,-1
 524 1606 l 1,67,-1
 909 1606 l 1,68,-1
 451 2318 l 2,69,70
 438 2338 438 2338 416 2373 c 0,71,72
 393 2410 393 2410 382.5 2426 c 128,-1,73
 372 2442 372 2442 354 2467.5 c 128,-1,74
 336 2493 336 2493 330 2501.5 c 128,-1,75
 324 2510 324 2510 307 2525.5 c 128,-1,76
 290 2541 290 2541 285 2544 c 128,-1,77
 280 2547 280 2547 261 2555 c 128,-1,78
 242 2563 242 2563 233.5 2563.5 c 128,-1,79
 225 2564 225 2564 200 2566 c 128,-1,80
 175 2568 175 2568 160 2568 c 128,-1,81
 145 2568 145 2568 111 2568 c 1,0,-1
EndSplineSet
EndChar

StartChar: brokenbar
Encoding: 166 166 104
Width: 901
GlyphClass: 2
Flags: W
LayerCount: 2
Fore
SplineSet
360 590 m 1,0,-1
 541 590 l 1,1,-1
 541 -946 l 1,2,-1
 360 -946 l 1,3,-1
 360 590 l 1,0,-1
360 1356 m 1,4,-1
 360 2892 l 1,5,-1
 541 2892 l 1,6,-1
 541 1356 l 1,7,-1
 360 1356 l 1,4,-1
EndSplineSet
EndChar

StartChar: section
Encoding: 167 167 105
Width: 1839
GlyphClass: 2
Flags: W
LayerCount: 2
Fore
SplineSet
221 1208 m 0,0,1
 221 1307 221 1307 245 1387 c 128,-1,2
 269 1467 269 1467 307.5 1518.5 c 128,-1,3
 346 1570 346 1570 398 1604 c 128,-1,4
 450 1638 450 1638 503.5 1652.5 c 128,-1,5
 557 1667 557 1667 614 1667 c 0,6,7
 625 1667 625 1667 644 1665 c 128,-1,8
 663 1663 663 1663 668 1663 c 1,9,10
 667 1666 667 1666 642 1694.5 c 128,-1,11
 617 1723 617 1723 582.5 1763.5 c 128,-1,12
 548 1804 548 1804 507 1868.5 c 128,-1,13
 466 1933 466 1933 432 2003 c 128,-1,14
 398 2073 398 2073 375 2164.5 c 128,-1,15
 352 2256 352 2256 352 2347 c 0,16,17
 352 2457 352 2457 381.5 2546.5 c 128,-1,18
 411 2636 411 2636 461 2696 c 128,-1,19
 511 2756 511 2756 579 2797 c 128,-1,20
 647 2838 647 2838 721.5 2856.5 c 128,-1,21
 796 2875 796 2875 877 2875 c 0,22,23
 977 2875 977 2875 1063 2851 c 128,-1,24
 1149 2827 1149 2827 1209 2787 c 128,-1,25
 1269 2747 1269 2747 1312.5 2695 c 128,-1,26
 1356 2643 1356 2643 1376.5 2586.5 c 128,-1,27
 1397 2530 1397 2530 1397 2474 c 0,28,29
 1397 2354 1397 2354 1339 2299.5 c 128,-1,30
 1281 2245 1281 2245 1192 2245 c 0,31,32
 1097 2245 1097 2245 1013.5 2298.5 c 128,-1,33
 930 2352 930 2352 930 2421 c 0,34,35
 930 2464 930 2464 977 2538 c 128,-1,36
 1024 2612 1024 2612 1024 2646 c 0,37,38
 1024 2686 1024 2686 990.5 2713 c 128,-1,39
 957 2740 957 2740 905 2740 c 0,40,41
 835 2740 835 2740 777 2725 c 128,-1,42
 719 2710 719 2710 667.5 2675.5 c 128,-1,43
 616 2641 616 2641 586.5 2574 c 128,-1,44
 557 2507 557 2507 557 2413 c 0,45,46
 557 2338 557 2338 593.5 2261.5 c 128,-1,47
 630 2185 630 2185 691 2115 c 128,-1,48
 752 2045 752 2045 832 1972 c 128,-1,49
 912 1899 912 1899 1000 1823 c 128,-1,50
 1088 1747 1088 1747 1175.5 1666.5 c 128,-1,51
 1263 1586 1263 1586 1343 1493 c 128,-1,52
 1423 1400 1423 1400 1484 1302 c 128,-1,53
 1545 1204 1545 1204 1581.5 1083.5 c 128,-1,54
 1618 963 1618 963 1618 836 c 0,55,56
 1618 738 1618 738 1602 660 c 128,-1,57
 1586 582 1586 582 1558 531.5 c 128,-1,58
 1530 481 1530 481 1496 446 c 128,-1,59
 1462 411 1462 411 1420.5 393 c 128,-1,60
 1379 375 1379 375 1342.5 367.5 c 128,-1,61
 1306 360 1306 360 1266 360 c 0,62,63
 1238 360 1238 360 1216 363 c 128,-1,64
 1194 366 1194 366 1162.5 373 c 128,-1,65
 1131 380 1131 380 1126 381 c 1,66,67
 1162 348 1162 348 1185.5 325.5 c 128,-1,68
 1209 303 1209 303 1255 253 c 128,-1,69
 1301 203 1301 203 1333 160.5 c 128,-1,70
 1365 118 1365 118 1405 54.5 c 128,-1,71
 1445 -9 1445 -9 1469.5 -69.5 c 128,-1,72
 1494 -130 1494 -130 1511 -205.5 c 128,-1,73
 1528 -281 1528 -281 1528 -356 c 0,74,75
 1528 -479 1528 -479 1480.5 -577.5 c 128,-1,76
 1433 -676 1433 -676 1353.5 -736.5 c 128,-1,77
 1274 -797 1274 -797 1176 -828.5 c 128,-1,78
 1078 -860 1078 -860 971 -860 c 0,79,80
 884 -860 884 -860 800 -840 c 128,-1,81
 716 -820 716 -820 641 -778.5 c 128,-1,82
 566 -737 566 -737 509 -679.5 c 128,-1,83
 452 -622 452 -622 418.5 -540.5 c 128,-1,84
 385 -459 385 -459 385 -365 c 0,85,86
 385 -232 385 -232 454.5 -146.5 c 128,-1,87
 524 -61 524 -61 627 -61 c 0,88,89
 655 -61 655 -61 709 -91 c 128,-1,90
 763 -121 763 -121 809.5 -170 c 128,-1,91
 856 -219 856 -219 856 -262 c 0,92,93
 856 -295 856 -295 831 -336 c 128,-1,94
 806 -377 806 -377 776 -409.5 c 128,-1,95
 746 -442 746 -442 721 -483 c 128,-1,96
 696 -524 696 -524 696 -557 c 0,97,98
 696 -580 696 -580 702.5 -602.5 c 128,-1,99
 709 -625 709 -625 728.5 -649 c 128,-1,100
 748 -673 748 -673 778.5 -691 c 128,-1,101
 809 -709 809 -709 860.5 -721 c 128,-1,102
 912 -733 912 -733 979 -733 c 0,103,104
 1057 -733 1057 -733 1135 -696.5 c 128,-1,105
 1213 -660 1213 -660 1268 -588.5 c 128,-1,106
 1323 -517 1323 -517 1323 -430 c 0,107,108
 1323 -351 1323 -351 1289.5 -273 c 128,-1,109
 1256 -195 1256 -195 1204 -130 c 128,-1,110
 1152 -65 1152 -65 1072.5 11 c 128,-1,111
 993 87 993 87 918 149.5 c 128,-1,112
 843 212 843 212 746 298.5 c 128,-1,113
 649 385 649 385 578 459 c 0,114,115
 451 590 451 590 368.5 729.5 c 128,-1,116
 286 869 286 869 253.5 984 c 128,-1,117
 221 1099 221 1099 221 1208 c 0,0,1
406 1364 m 0,118,119
 406 1286 406 1286 452.5 1183 c 128,-1,120
 499 1080 499 1080 572.5 979.5 c 128,-1,121
 646 879 646 879 739 780 c 128,-1,122
 832 681 832 681 923.5 606 c 128,-1,123
 1015 531 1015 531 1099 484.5 c 128,-1,124
 1183 438 1183 438 1237 438 c 0,125,126
 1333 438 1333 438 1395.5 488 c 128,-1,127
 1458 538 1458 538 1458 627 c 0,128,129
 1458 717 1458 717 1389.5 848.5 c 128,-1,130
 1321 980 1321 980 1219.5 1106 c 128,-1,131
 1118 1232 1118 1232 1009.5 1344 c 128,-1,132
 901 1456 901 1456 811.5 1524.5 c 128,-1,133
 722 1593 722 1593 688 1593 c 0,134,135
 561 1593 561 1593 483.5 1528.5 c 128,-1,136
 406 1464 406 1464 406 1364 c 0,118,119
EndSplineSet
EndChar

StartChar: copyright
Encoding: 169 169 107
Width: 3309
GlyphClass: 2
Flags: W
LayerCount: 2
Fore
SplineSet
180 971 m 0,0,1
 180 1171 180 1171 232 1362 c 128,-1,2
 284 1553 284 1553 378.5 1716 c 128,-1,3
 473 1879 473 1879 610 2016.5 c 128,-1,4
 747 2154 747 2154 910.5 2250 c 128,-1,5
 1074 2346 1074 2346 1270.5 2400 c 128,-1,6
 1467 2454 1467 2454 1675 2454 c 0,7,8
 1880 2454 1880 2454 2072.5 2400 c 128,-1,9
 2265 2346 2265 2346 2424 2249.5 c 128,-1,10
 2583 2153 2583 2153 2715 2016 c 128,-1,11
 2847 1879 2847 1879 2938 1716 c 128,-1,12
 3029 1553 3029 1553 3079 1362 c 128,-1,13
 3129 1171 3129 1171 3129 971 c 0,14,15
 3129 772 3129 772 3080 581.5 c 128,-1,16
 3031 391 3031 391 2941.5 226 c 128,-1,17
 2852 61 2852 61 2720.5 -77.5 c 128,-1,18
 2589 -216 2589 -216 2430 -315 c 128,-1,19
 2271 -414 2271 -414 2076 -469 c 128,-1,20
 1881 -524 1881 -524 1671 -524 c 0,21,22
 1455 -524 1455 -524 1256.5 -472 c 128,-1,23
 1058 -420 1058 -420 894.5 -325 c 128,-1,24
 731 -230 731 -230 597 -94 c 128,-1,25
 463 42 463 42 371.5 206.5 c 128,-1,26
 280 371 280 371 230 566 c 128,-1,27
 180 761 180 761 180 971 c 0,0,1
360 971 m 0,28,29
 360 751 360 751 423.5 548 c 128,-1,30
 487 345 487 345 605.5 180 c 128,-1,31
 724 15 724 15 884 -108 c 128,-1,32
 1044 -231 1044 -231 1248 -298 c 128,-1,33
 1452 -365 1452 -365 1675 -365 c 0,34,35
 1934 -365 1934 -365 2169 -260.5 c 128,-1,36
 2404 -156 2404 -156 2575 22 c 128,-1,37
 2746 200 2746 200 2847.5 450 c 128,-1,38
 2949 700 2949 700 2949 979 c 0,39,40
 2949 1187 2949 1187 2889 1383.5 c 128,-1,41
 2829 1580 2829 1580 2715.5 1743.5 c 128,-1,42
 2602 1907 2602 1907 2447.5 2030 c 128,-1,43
 2293 2153 2293 2153 2092.5 2221.5 c 128,-1,44
 1892 2290 1892 2290 1671 2290 c 0,45,46
 1454 2290 1454 2290 1252.5 2222.5 c 128,-1,47
 1051 2155 1051 2155 890.5 2032 c 128,-1,48
 730 1909 730 1909 610 1746 c 128,-1,49
 490 1583 490 1583 425 1383 c 128,-1,50
 360 1183 360 1183 360 971 c 0,28,29
668 926 m 0,51,52
 668 1067 668 1067 700 1192.5 c 128,-1,53
 732 1318 732 1318 788.5 1415 c 128,-1,54
 845 1512 845 1512 922 1593 c 128,-1,55
 999 1674 999 1674 1088 1730.5 c 128,-1,56
 1177 1787 1177 1787 1275.5 1826 c 128,-1,57
 1374 1865 1374 1865 1472.5 1883 c 128,-1,58
 1571 1901 1571 1901 1667 1901 c 0,59,60
 1825 1901 1825 1901 1962 1876.5 c 128,-1,61
 2099 1852 2099 1852 2168.5 1824 c 128,-1,62
 2238 1796 2238 1796 2296 1767 c 128,-1,63
 2354 1738 2354 1738 2359 1737 c 1,64,-1
 2359 1450 l 2,65,66
 2359 1384 2359 1384 2347 1384 c 0,67,68
 2339 1384 2339 1384 2322 1403 c 128,-1,69
 2305 1422 2305 1422 2278.5 1452.5 c 128,-1,70
 2252 1483 2252 1483 2215.5 1519.5 c 128,-1,71
 2179 1556 2179 1556 2125.5 1593 c 128,-1,72
 2072 1630 2072 1630 2009 1660.5 c 128,-1,73
 1946 1691 1946 1691 1859 1710 c 128,-1,74
 1772 1729 1772 1729 1675 1729 c 0,75,76
 1514 1729 1514 1729 1375 1665.5 c 128,-1,77
 1236 1602 1236 1602 1142 1496.5 c 128,-1,78
 1048 1391 1048 1391 995 1253.5 c 128,-1,79
 942 1116 942 1116 942 967 c 0,80,81
 942 843 942 843 979.5 721 c 128,-1,82
 1017 599 1017 599 1089 494.5 c 128,-1,83
 1161 390 1161 390 1257.5 310 c 128,-1,84
 1354 230 1354 230 1479.5 184.5 c 128,-1,85
 1605 139 1605 139 1741 139 c 0,86,87
 1844 139 1844 139 1934.5 160 c 128,-1,88
 2025 181 2025 181 2088 214.5 c 128,-1,89
 2151 248 2151 248 2203 289 c 128,-1,90
 2255 330 2255 330 2288.5 370.5 c 128,-1,91
 2322 411 2322 411 2346 444.5 c 128,-1,92
 2370 478 2370 478 2384 499 c 128,-1,93
 2398 520 2398 520 2404 520 c 0,94,95
 2413 520 2413 520 2413 451 c 2,96,-1
 2413 225 l 1,97,98
 2402 215 2402 215 2382 198 c 128,-1,99
 2362 181 2362 181 2291 138 c 128,-1,100
 2220 95 2220 95 2140.5 62 c 128,-1,101
 2061 29 2061 29 1933.5 2 c 128,-1,102
 1806 -25 1806 -25 1671 -25 c 0,103,104
 1484 -25 1484 -25 1322 25 c 128,-1,105
 1160 75 1160 75 1041.5 163.5 c 128,-1,106
 923 252 923 252 838 371.5 c 128,-1,107
 753 491 753 491 710.5 632 c 128,-1,108
 668 773 668 773 668 926 c 0,51,52
EndSplineSet
EndChar

StartChar: ordfeminine
Encoding: 170 170 108
Width: 1466
GlyphClass: 2
Flags: W
LayerCount: 2
Fore
SplineSet
180 1995 m 0,0,1
 180 2100 180 2100 190.5 2178.5 c 128,-1,2
 201 2257 201 2257 230 2333.5 c 128,-1,3
 259 2410 259 2410 291 2470 c 128,-1,4
 323 2530 323 2530 385 2630 c 0,5,6
 406 2665 406 2665 454.5 2722 c 128,-1,7
 503 2779 503 2779 561 2838 c 128,-1,8
 619 2897 619 2897 680 2939.5 c 128,-1,9
 741 2982 741 2982 778 2982 c 0,10,11
 811 2982 811 2982 840.5 2961.5 c 128,-1,12
 870 2941 870 2941 887.5 2911.5 c 128,-1,13
 905 2882 905 2882 918 2852 c 128,-1,14
 931 2822 931 2822 936 2802 c 2,15,-1
 942 2781 l 1,16,-1
 975 2966 l 1,17,18
 983 3023 983 3023 1053 3023 c 2,19,-1
 1085 3023 l 2,20,21
 1123 3023 1123 3023 1133 3016 c 128,-1,22
 1143 3009 1143 3009 1143 2982 c 0,23,24
 1143 2975 1143 2975 1114.5 2791.5 c 128,-1,25
 1086 2608 1086 2608 1057 2386.5 c 128,-1,26
 1028 2165 1028 2165 1028 2068 c 0,27,28
 1028 1909 1028 1909 1069 1909 c 0,29,30
 1077 1909 1077 1909 1085.5 1913 c 128,-1,31
 1094 1917 1094 1917 1105 1928.5 c 128,-1,32
 1116 1940 1116 1940 1125.5 1950.5 c 128,-1,33
 1135 1961 1135 1961 1154 1983.5 c 128,-1,34
 1173 2006 1173 2006 1188 2023 c 1,35,-1
 1249 1974 l 1,36,37
 1240 1960 1240 1960 1223.5 1937 c 128,-1,38
 1207 1914 1207 1914 1159.5 1855.5 c 128,-1,39
 1112 1797 1112 1797 1069 1752 c 128,-1,40
 1026 1707 1026 1707 974 1670.5 c 128,-1,41
 922 1634 922 1634 885 1634 c 0,42,43
 811 1634 811 1634 811 1872 c 0,44,45
 811 1913 811 1913 827 2159 c 1,46,47
 697 1924 697 1924 610 1815 c 1,48,49
 551 1744 551 1744 466.5 1689 c 128,-1,50
 382 1634 382 1634 340 1634 c 0,51,52
 318 1634 318 1634 298 1642 c 128,-1,53
 278 1650 278 1650 255.5 1674 c 128,-1,54
 233 1698 233 1698 217 1736.5 c 128,-1,55
 201 1775 201 1775 190.5 1841.5 c 128,-1,56
 180 1908 180 1908 180 1995 c 0,0,1
348 2101 m 0,57,58
 348 1999 348 1999 387 1931.5 c 128,-1,59
 426 1864 426 1864 467 1864 c 0,60,61
 527 1864 527 1864 632.5 2011.5 c 128,-1,62
 738 2159 738 2159 819.5 2342.5 c 128,-1,63
 901 2526 901 2526 901 2621 c 0,64,65
 901 2693 901 2693 827.5 2763.5 c 128,-1,66
 754 2834 754 2834 700 2834 c 0,67,68
 657 2834 657 2834 596.5 2766 c 128,-1,69
 536 2698 536 2698 481 2596 c 128,-1,70
 426 2494 426 2494 387 2358 c 128,-1,71
 348 2222 348 2222 348 2101 c 0,57,58
EndSplineSet
EndChar

StartChar: logicalnot
Encoding: 172 172 110
Width: 2949
GlyphClass: 2
Flags: W
LayerCount: 2
Fore
SplineSet
328 844 m 1,0,-1
 328 1081 l 1,1,-1
 2621 1081 l 1,2,-1
 2621 -135 l 1,3,-1
 2380 -135 l 1,4,-1
 2380 844 l 1,5,-1
 328 844 l 1,0,-1
EndSplineSet
EndChar

StartChar: registered
Encoding: 174 174 112
Width: 2052
GlyphClass: 2
Flags: W
LayerCount: 2
Fore
SplineSet
180 2236 m 0,0,1
 180 2413 180 2413 246 2573 c 128,-1,2
 312 2733 312 2733 424.5 2848.5 c 128,-1,3
 537 2964 537 2964 694 3032.5 c 128,-1,4
 851 3101 851 3101 1024 3101 c 0,5,6
 1165 3101 1165 3101 1295.5 3057.5 c 128,-1,7
 1426 3014 1426 3014 1530 2934 c 128,-1,8
 1634 2854 1634 2854 1711 2747.5 c 128,-1,9
 1788 2641 1788 2641 1830 2509.5 c 128,-1,10
 1872 2378 1872 2378 1872 2236 c 0,11,12
 1872 2061 1872 2061 1813 1905.5 c 128,-1,13
 1754 1750 1754 1750 1647 1633 c 128,-1,14
 1540 1516 1540 1516 1378.5 1448 c 128,-1,15
 1217 1380 1217 1380 1024 1380 c 0,16,17
 851 1380 851 1380 694 1448.5 c 128,-1,18
 537 1517 537 1517 424.5 1632.5 c 128,-1,19
 312 1748 312 1748 246 1906 c 128,-1,20
 180 2064 180 2064 180 2236 c 0,0,1
307 2232 m 0,21,22
 307 2035 307 2035 404 1868 c 128,-1,23
 501 1701 501 1701 668.5 1604 c 128,-1,24
 836 1507 836 1507 1036 1507 c 0,25,26
 1248 1507 1248 1507 1411 1605 c 128,-1,27
 1574 1703 1574 1703 1659.5 1867 c 128,-1,28
 1745 2031 1745 2031 1745 2232 c 0,29,30
 1745 2382 1745 2382 1689 2521 c 128,-1,31
 1633 2660 1633 2660 1538.5 2762 c 128,-1,32
 1444 2864 1444 2864 1312 2925 c 128,-1,33
 1180 2986 1180 2986 1036 2986 c 0,34,35
 837 2986 837 2986 668.5 2882.5 c 128,-1,36
 500 2779 500 2779 403.5 2605.5 c 128,-1,37
 307 2432 307 2432 307 2232 c 0,21,22
594 2695 m 1,38,-1
 598 2793 l 1,39,-1
 934 2793 l 2,40,41
 1056 2793 1056 2793 1126 2778 c 128,-1,42
 1196 2763 1196 2763 1249 2720 c 1,43,44
 1360 2633 1360 2633 1360 2494 c 0,45,46
 1360 2416 1360 2416 1313 2351.5 c 128,-1,47
 1266 2287 1266 2287 1163 2253 c 1,48,-1
 1430 1901 l 1,49,50
 1453 1868 1453 1868 1479 1868 c 2,51,-1
 1520 1868 l 1,52,-1
 1524 1769 l 1,53,-1
 1319 1769 l 1,54,-1
 1004 2220 l 1,55,-1
 979 2220 l 2,56,57
 940 2220 940 2220 904 2222 c 128,-1,58
 868 2224 868 2224 864 2224 c 1,59,-1
 864 1884 l 2,60,61
 864 1872 864 1872 867 1870 c 128,-1,62
 870 1868 870 1868 888 1868 c 0,63,64
 898 1868 898 1868 905 1868 c 2,65,-1
 983 1868 l 1,66,-1
 979 1769 l 1,67,-1
 606 1769 l 1,68,-1
 606 1868 l 1,69,-1
 647 1868 l 2,70,71
 688 1868 688 1868 696.5 1869.5 c 128,-1,72
 705 1871 705 1871 705 1880 c 2,73,-1
 705 2662 l 2,74,75
 705 2683 705 2683 694 2689 c 128,-1,76
 683 2695 683 2695 651 2695 c 2,77,-1
 594 2695 l 1,38,-1
864 2310 m 1,78,79
 880 2306 880 2306 938 2306 c 0,80,81
 1071 2306 1071 2306 1123.5 2348.5 c 128,-1,82
 1176 2391 1176 2391 1176 2474 c 0,83,84
 1176 2573 1176 2573 1101 2634 c 128,-1,85
 1026 2695 1026 2695 889 2695 c 0,86,87
 873 2695 873 2695 868.5 2688 c 128,-1,88
 864 2681 864 2681 864 2646 c 2,89,-1
 864 2310 l 1,78,79
EndSplineSet
EndChar

StartChar: degree
Encoding: 176 176 114
Width: 1351
GlyphClass: 2
Flags: W
LayerCount: 2
Fore
SplineSet
180 2490 m 128,-1,1
 180 2625 180 2625 246.5 2739 c 128,-1,2
 313 2853 313 2853 427 2919.5 c 128,-1,3
 541 2986 541 2986 676 2986 c 128,-1,4
 811 2986 811 2986 925 2919.5 c 128,-1,5
 1039 2853 1039 2853 1105 2739 c 128,-1,6
 1171 2625 1171 2625 1171 2490 c 0,7,8
 1171 2389 1171 2389 1132 2297.5 c 128,-1,9
 1093 2206 1093 2206 1026.5 2139.5 c 128,-1,10
 960 2073 960 2073 868.5 2034 c 128,-1,11
 777 1995 777 1995 676 1995 c 0,12,13
 541 1995 541 1995 427 2061 c 128,-1,14
 313 2127 313 2127 246.5 2241 c 128,-1,0
 180 2355 180 2355 180 2490 c 128,-1,1
328 2490 m 128,-1,16
 328 2345 328 2345 430 2241.5 c 128,-1,17
 532 2138 532 2138 676 2138 c 0,18,19
 821 2138 821 2138 924.5 2241.5 c 128,-1,20
 1028 2345 1028 2345 1028 2490 c 0,21,22
 1028 2634 1028 2634 924.5 2736.5 c 128,-1,23
 821 2839 821 2839 676 2839 c 128,-1,24
 531 2839 531 2839 429.5 2737 c 128,-1,15
 328 2635 328 2635 328 2490 c 128,-1,16
EndSplineSet
EndChar

StartChar: plusminus
Encoding: 177 177 115
Width: 2969
GlyphClass: 2
Flags: W
LayerCount: 2
Fore
SplineSet
328 -94 m 1,0,-1
 328 147 l 1,1,-1
 2642 147 l 1,2,-1
 2642 -94 l 1,3,-1
 328 -94 l 1,0,-1
328 1184 m 1,4,-1
 328 1421 l 1,5,6
 725 1421 725 1421 989 1417 c 128,-1,7
 1253 1413 1253 1413 1318 1409 c 2,8,-1
 1384 1405 l 1,9,10
 1364 1570 1364 1570 1364 2298 c 1,11,-1
 1606 2298 l 1,12,13
 1606 1990 1606 1990 1601 1767 c 128,-1,14
 1596 1544 1596 1544 1590 1474 c 2,15,-1
 1585 1405 l 1,16,17
 1792 1421 1792 1421 2642 1421 c 1,18,-1
 2642 1184 l 1,19,20
 2243 1184 2243 1184 1979 1188 c 128,-1,21
 1715 1192 1715 1192 1650 1196 c 2,22,-1
 1585 1200 l 1,23,24
 1606 1039 1606 1039 1606 307 c 1,25,-1
 1364 307 l 1,26,27
 1364 629 1364 629 1369 852.5 c 128,-1,28
 1374 1076 1374 1076 1379 1138 c 2,29,-1
 1384 1200 l 1,30,31
 1219 1184 1219 1184 328 1184 c 1,4,-1
EndSplineSet
EndChar

StartChar: uni00B5
Encoding: 181 181 119
Width: 2121
GlyphClass: 2
Flags: W
LayerCount: 2
Fore
SplineSet
70 -614 m 0,0,1
 70 -443 70 -443 107 -264 c 128,-1,2
 144 -85 144 -85 217 170.5 c 128,-1,3
 290 426 290 426 324 578 c 0,4,5
 399 905 399 905 472 1270 c 0,6,7
 510 1457 510 1457 525 1502.5 c 128,-1,8
 540 1548 540 1548 569 1548 c 0,9,10
 576 1548 576 1548 600 1543.5 c 128,-1,11
 624 1539 624 1539 657.5 1529.5 c 128,-1,12
 691 1520 691 1520 716 1500 c 128,-1,13
 741 1480 741 1480 741 1454 c 0,14,15
 741 1417 741 1417 649 899.5 c 128,-1,16
 557 382 557 382 557 311 c 0,17,18
 557 281 557 281 563 253 c 128,-1,19
 569 225 569 225 586.5 202.5 c 128,-1,20
 604 180 604 180 631 180 c 0,21,22
 711 180 711 180 810.5 258 c 128,-1,23
 910 336 910 336 1004 456.5 c 128,-1,24
 1098 577 1098 577 1193.5 731 c 128,-1,25
 1289 885 1289 885 1363 1028 c 128,-1,26
 1437 1171 1437 1171 1495 1303 c 1,27,28
 1521 1357 1521 1357 1540.5 1404.5 c 128,-1,29
 1560 1452 1560 1452 1568.5 1474.5 c 128,-1,30
 1577 1497 1577 1497 1583 1515.5 c 128,-1,31
 1589 1534 1589 1534 1596 1539 c 128,-1,32
 1603 1544 1603 1544 1610.5 1546 c 128,-1,33
 1618 1548 1618 1548 1638 1548 c 0,34,35
 1693 1548 1693 1548 1754 1526 c 128,-1,36
 1815 1504 1815 1504 1815 1475 c 0,37,38
 1815 1458 1815 1458 1750.5 1198 c 128,-1,39
 1686 938 1686 938 1621 654 c 128,-1,40
 1556 370 1556 370 1556 295 c 0,41,42
 1556 254 1556 254 1586 227.5 c 128,-1,43
 1616 201 1616 201 1655 201 c 0,44,45
 1706 201 1706 201 1749 242 c 128,-1,46
 1792 283 1792 283 1816 332 c 128,-1,47
 1840 381 1840 381 1868 422 c 128,-1,48
 1896 463 1896 463 1921 463 c 0,49,50
 1970 463 1970 463 1970 397 c 0,51,52
 1970 350 1970 350 1943 287 c 128,-1,53
 1916 224 1916 224 1864.5 159 c 128,-1,54
 1813 94 1813 94 1747.5 39 c 128,-1,55
 1682 -16 1682 -16 1595.5 -51 c 128,-1,56
 1509 -86 1509 -86 1421 -86 c 0,57,58
 1372 -86 1372 -86 1338.5 -64.5 c 128,-1,59
 1305 -43 1305 -43 1288 -3.5 c 128,-1,60
 1271 36 1271 36 1264 81 c 128,-1,61
 1257 126 1257 126 1257 184 c 0,62,63
 1257 284 1257 284 1298 510 c 128,-1,64
 1339 736 1339 736 1339 741 c 0,65,66
 1339 758 1339 758 1331 758 c 0,67,68
 1322 758 1322 758 1306 733 c 128,-1,69
 1290 708 1290 708 1261.5 657.5 c 128,-1,70
 1233 607 1233 607 1194.5 544.5 c 128,-1,71
 1156 482 1156 482 1088.5 393 c 128,-1,72
 1021 304 1021 304 942 217 c 0,73,74
 828 92 828 92 699 9 c 128,-1,75
 570 -74 570 -74 463 -74 c 0,76,77
 420 -74 420 -74 388 -46.5 c 128,-1,78
 356 -19 356 -19 343 14 c 128,-1,79
 330 47 330 47 320.5 74.5 c 128,-1,80
 311 102 311 102 307 102 c 0,81,82
 299 102 299 102 281 21.5 c 128,-1,83
 263 -59 263 -59 248 -169 c 128,-1,84
 233 -279 233 -279 233 -348 c 0,85,86
 233 -407 233 -407 256.5 -482 c 128,-1,87
 280 -557 280 -557 304 -614.5 c 128,-1,88
 328 -672 328 -672 328 -688 c 0,89,90
 328 -696 328 -696 324.5 -709 c 128,-1,91
 321 -722 321 -722 311.5 -741 c 128,-1,92
 302 -760 302 -760 287.5 -776 c 128,-1,93
 273 -792 273 -792 246.5 -803.5 c 128,-1,94
 220 -815 220 -815 188 -815 c 0,95,96
 124 -815 124 -815 97 -767.5 c 128,-1,97
 70 -720 70 -720 70 -614 c 0,0,1
EndSplineSet
EndChar

StartChar: paragraph
Encoding: 182 182 120
Width: 2871
GlyphClass: 2
Flags: W
LayerCount: 2
Fore
SplineSet
180 1397 m 0,0,1
 180 1614 180 1614 236 1811 c 128,-1,2
 292 2008 292 2008 392 2165.5 c 128,-1,3
 492 2323 492 2323 631.5 2451.5 c 128,-1,4
 771 2580 771 2580 938 2665.5 c 128,-1,5
 1105 2751 1105 2751 1296 2797 c 128,-1,6
 1487 2843 1487 2843 1688 2843 c 0,7,8
 1822 2843 1822 2843 1926.5 2822 c 128,-1,9
 2031 2801 2031 2801 2086 2769 c 128,-1,10
 2141 2737 2141 2737 2168 2705.5 c 128,-1,11
 2195 2674 2195 2674 2195 2646 c 0,12,13
 2195 2611 2195 2611 2172 2589.5 c 128,-1,14
 2149 2568 2149 2568 2122 2568 c 0,15,16
 2096 2568 2096 2568 2053.5 2590.5 c 128,-1,17
 2011 2613 2011 2613 1967 2640 c 128,-1,18
 1923 2667 1923 2667 1838 2689.5 c 128,-1,19
 1753 2712 1753 2712 1651 2712 c 0,20,21
 1586 2712 1586 2712 1507 2701.5 c 128,-1,22
 1428 2691 1428 2691 1421 2691 c 1,23,-1
 1421 -57 l 1,24,25
 1492 -74 1492 -74 1597.5 -88 c 128,-1,26
 1703 -102 1703 -102 1803 -110 c 128,-1,27
 1903 -118 1903 -118 2017 -131.5 c 128,-1,28
 2131 -145 2131 -145 2229 -160.5 c 128,-1,29
 2327 -176 2327 -176 2419.5 -207 c 128,-1,30
 2512 -238 2512 -238 2577 -278.5 c 128,-1,31
 2642 -319 2642 -319 2681 -384 c 128,-1,32
 2720 -449 2720 -449 2720 -532 c 0,33,34
 2720 -629 2720 -629 2673 -705.5 c 128,-1,35
 2626 -782 2626 -782 2548 -782 c 0,36,37
 2437 -782 2437 -782 2437 -676 c 0,38,39
 2437 -652 2437 -652 2451.5 -620 c 128,-1,40
 2466 -588 2466 -588 2466 -573 c 0,41,42
 2466 -502 2466 -502 2357.5 -445.5 c 128,-1,43
 2249 -389 2249 -389 2071.5 -348.5 c 128,-1,44
 1894 -308 1894 -308 1704.5 -272.5 c 128,-1,45
 1515 -237 1515 -237 1313.5 -188.5 c 128,-1,46
 1112 -140 1112 -140 995 -86 c 0,47,48
 787 9 787 9 630 159.5 c 128,-1,49
 473 310 473 310 375 502.5 c 128,-1,50
 277 695 277 695 228.5 919 c 128,-1,51
 180 1143 180 1143 180 1397 c 0,0,1
860 176 m 1,52,53
 946 103 946 103 1039 57.5 c 128,-1,54
 1132 12 1132 12 1270 -25 c 1,55,-1
 1270 2650 l 1,56,57
 1021 2589 1021 2589 860 2449 c 1,58,-1
 860 176 l 1,52,53
EndSplineSet
EndChar

StartChar: periodcentered
Encoding: 183 183 121
Width: 823
GlyphClass: 2
Flags: W
LayerCount: 2
Fore
SplineSet
262 1384 m 0,0,1
 262 1420 262 1420 316.5 1480 c 128,-1,2
 371 1540 371 1540 434 1540 c 0,3,4
 479 1540 479 1540 522 1481.5 c 128,-1,5
 565 1423 565 1423 565 1364 c 0,6,7
 565 1326 565 1326 530.5 1285 c 128,-1,8
 496 1244 496 1244 457.5 1220 c 128,-1,9
 419 1196 419 1196 401 1196 c 0,10,11
 353 1196 353 1196 307.5 1260 c 128,-1,12
 262 1324 262 1324 262 1384 c 0,0,1
EndSplineSet
EndChar

StartChar: ordmasculine
Encoding: 186 186 124
Width: 1310
GlyphClass: 2
Flags: W
LayerCount: 2
Fore
SplineSet
180 2093 m 0,0,1
 180 2491 180 2491 442 2781 c 1,2,3
 517 2867 517 2867 610.5 2928.5 c 128,-1,4
 704 2990 704 2990 799 2990 c 0,5,6
 876 2990 876 2990 936.5 2959 c 128,-1,7
 997 2928 997 2928 1032.5 2881.5 c 128,-1,8
 1068 2835 1068 2835 1091 2772.5 c 128,-1,9
 1114 2710 1114 2710 1122 2653.5 c 128,-1,10
 1130 2597 1130 2597 1130 2540 c 0,11,12
 1130 2418 1130 2418 1095.5 2287 c 128,-1,13
 1061 2156 1061 2156 999.5 2041.5 c 128,-1,14
 938 1927 938 1927 861.5 1834.5 c 128,-1,15
 785 1742 785 1742 694 1688 c 128,-1,16
 603 1634 603 1634 516 1634 c 0,17,18
 416 1634 416 1634 338.5 1697 c 128,-1,19
 261 1760 261 1760 220.5 1864 c 128,-1,20
 180 1968 180 1968 180 2093 c 0,0,1
401 2232 m 0,21,22
 401 2106 401 2106 426.5 1999.5 c 128,-1,23
 452 1893 452 1893 500 1827 c 128,-1,24
 548 1761 548 1761 610 1761 c 0,25,26
 685 1761 685 1761 758 1871 c 128,-1,27
 831 1981 831 1981 874.5 2142.5 c 128,-1,28
 918 2304 918 2304 918 2454 c 0,29,30
 918 2521 918 2521 906 2592.5 c 128,-1,31
 894 2664 894 2664 871.5 2731 c 128,-1,32
 849 2798 849 2798 808.5 2841 c 128,-1,33
 768 2884 768 2884 717 2884 c 0,34,35
 679 2884 679 2884 635.5 2850 c 128,-1,36
 592 2816 592 2816 551 2754 c 128,-1,37
 510 2692 510 2692 476 2612.5 c 128,-1,38
 442 2533 442 2533 421.5 2433 c 128,-1,39
 401 2333 401 2333 401 2232 c 0,21,22
EndSplineSet
EndChar

